<ttFont>
<head>
    <!-- Most of this table will be recalculated by the compiler -->
    <tableVersion value="1.0"/>
    <fontRevision value="2.01"/>
    <checkSumAdjustment value="0x23a2b85e"/>
    <magicNumber value="0x5f0f3cf5"/>
    <flags value="00000000 00000011"/>
    <unitsPerEm value="1000"/>
    <created value="Wed Feb  7 19:23:23 2018"/>
    <modified value="Wed Feb  7 11:23:28 2018"/>
    <xMin value="-420"/>
    <yMin value="-609"/>
    <xMax value="1771"/>
    <yMax value="930"/>
    <macStyle value="00000000 00000000"/>
    <lowestRecPPEM value="7"/>
    <fontDirectionHint value="2"/>
    <indexToLocFormat value="0"/>
    <glyphDataFormat value="0"/>
  </head>
    <TTGlyph name=".notdef" xMin="174" yMin="0" xMax="577" yMax="701">
      <contour>
        <pt x="577" y="701" on="1"/>
        <pt x="577" y="0" on="1"/>
        <pt x="174" y="0" on="1"/>
        <pt x="174" y="701" on="1"/>
      </contour>
      <contour>
        <pt x="516" y="57" on="1"/>
        <pt x="516" y="644" on="1"/>
        <pt x="236" y="644" on="1"/>
        <pt x="236" y="57" on="1"/>
      </contour>
    </TTGlyph>
    <TTGlyph name="A" xMin="16" yMin="0" xMax="427" yMax="674">
      <contour>
        <pt x="309" y="185" on="1"/>
        <pt x="133" y="185" on="1"/>
        <pt x="94" y="0" on="1"/>
        <pt x="16" y="0" on="1"/>
        <pt x="166" y="674" on="1"/>
        <pt x="277" y="674" on="1"/>
        <pt x="427" y="0" on="1"/>
        <pt x="349" y="0" on="1"/>
      </contour>
      <contour>
        <pt x="295" y="253" on="1"/>
        <pt x="220" y="599" on="1"/>
        <pt x="147" y="253" on="1"/>
      </contour>
    </TTGlyph>
    <TTGlyph name="AE" xMin="7" yMin="0" xMax="649" yMax="674">
      <contour>
        <pt x="430" y="604" on="1"/>
        <pt x="430" y="375" on="1"/>
        <pt x="620" y="375" on="1"/>
        <pt x="620" y="305" on="1"/>
        <pt x="430" y="305" on="1"/>
        <pt x="430" y="69" on="1"/>
        <pt x="649" y="69" on="1"/>
        <pt x="649" y="0" on="1"/>
        <pt x="354" y="0" on="1"/>
        <pt x="354" y="185" on="1"/>
        <pt x="168" y="185" on="1"/>
        <pt x="88" y="0" on="1"/>
        <pt x="7" y="0" on="1"/>
        <pt x="307" y="674" on="1"/>
        <pt x="649" y="674" on="1"/>
        <pt x="649" y="604" on="1"/>
      </contour>
      <contour>
        <pt x="354" y="253" on="1"/>
        <pt x="354" y="618" on="1"/>
        <pt x="197" y="253" on="1"/>
      </contour>
    </TTGlyph>
    <TTGlyph name="Aacute" xMin="16" yMin="0" xMax="427" yMax="823">
      <component glyphName="A" x="0" y="0" flags="0x0"/>
      <component glyphName="acute" x="76" y="100" flags="0x4"/>
    </TTGlyph>
    <TTGlyph name="Abreve" xMin="16" yMin="0" xMax="427" yMax="823">
      <component glyphName="A" x="0" y="0" flags="0x0"/>
      <component glyphName="breve" x="46" y="100" flags="0x4"/>
    </TTGlyph>
    <TTGlyph name="Acircumflex" xMin="16" yMin="0" xMax="427" yMax="823">
      <component glyphName="A" x="0" y="0" flags="0x0"/>
      <component glyphName="circumflex" x="49" y="100" flags="0x4"/>
    </TTGlyph>
    <TTGlyph name="Adieresis" xMin="16" yMin="0" xMax="427" yMax="807">
      <component glyphName="dieresis" x="46" y="100" flags="0x4"/>
      <component glyphName="A" x="0" y="0" flags="0x0"/>
    </TTGlyph>
    <TTGlyph name="Agrave" xMin="16" yMin="0" xMax="427" yMax="823">
      <component glyphName="A" x="0" y="0" flags="0x0"/>
      <component glyphName="grave" x="11" y="100" flags="0x4"/>
    </TTGlyph>
    <TTGlyph name="Amacron" xMin="16" yMin="0" xMax="427" yMax="794">
      <component glyphName="A" x="0" y="0" flags="0x0"/>
      <component glyphName="macron" x="44" y="100" flags="0x4"/>
    </TTGlyph>
    <TTGlyph name="Aogonek" xMin="16" yMin="-179" xMax="427" yMax="674">
      <component glyphName="A" x="0" y="0" flags="0x0"/>
      <component glyphName="ogonek" x="201" y="0" flags="0x0"/>
    </TTGlyph>
    <TTGlyph name="Aring" xMin="16" yMin="0" xMax="427" yMax="842">
      <component glyphName="A" x="0" y="0" flags="0x0"/>
      <component glyphName="ring" x="46" y="100" flags="0x4"/>
    </TTGlyph>
    <TTGlyph name="Atilde" xMin="16" yMin="0" xMax="427" yMax="815">
      <component glyphName="A" x="0" y="0" flags="0x0"/>
      <component glyphName="tilde" x="50" y="100" flags="0x4"/>
    </TTGlyph>
    <TTGlyph name="B" xMin="66" yMin="0" xMax="414" yMax="674">
      <contour>
        <pt x="414" y="313" on="0"/>
        <pt x="414" y="214" on="1"/>
        <pt x="414" y="153" on="1"/>
        <pt x="414" y="80" on="0"/>
        <pt x="332" y="0" on="0"/>
        <pt x="252" y="0" on="1"/>
        <pt x="66" y="0" on="1"/>
        <pt x="66" y="674" on="1"/>
        <pt x="246" y="674" on="1"/>
        <pt x="326" y="674" on="0"/>
        <pt x="408" y="594" on="0"/>
        <pt x="408" y="521" on="1"/>
        <pt x="408" y="464" on="1"/>
        <pt x="408" y="368" on="0"/>
        <pt x="334" y="340" on="1"/>
      </contour>
      <contour>
        <pt x="145" y="606" on="1"/>
        <pt x="145" y="374" on="1"/>
        <pt x="238" y="374" on="1"/>
        <pt x="330" y="374" on="0"/>
        <pt x="330" y="461" on="1"/>
        <pt x="330" y="518" on="1"/>
        <pt x="330" y="606" on="0"/>
        <pt x="238" y="606" on="1"/>
      </contour>
      <contour>
        <pt x="336" y="216" on="1"/>
        <pt x="336" y="304" on="0"/>
        <pt x="244" y="304" on="1"/>
        <pt x="145" y="304" on="1"/>
        <pt x="145" y="68" on="1"/>
        <pt x="244" y="68" on="1"/>
        <pt x="336" y="68" on="0"/>
        <pt x="336" y="155" on="1"/>
      </contour>
    </TTGlyph>
    <TTGlyph name="C" xMin="56" yMin="-5" xMax="360" yMax="679">
      <contour>
        <pt x="56" y="603" on="0"/>
        <pt x="148" y="679" on="0"/>
        <pt x="241" y="679" on="1"/>
        <pt x="300" y="679" on="0"/>
        <pt x="358" y="663" on="1"/>
        <pt x="358" y="590" on="1"/>
        <pt x="305" y="607" on="0"/>
        <pt x="241" y="607" on="1"/>
        <pt x="183" y="607" on="0"/>
        <pt x="136" y="568" on="0"/>
        <pt x="136" y="530" on="1"/>
        <pt x="136" y="144" on="1"/>
        <pt x="136" y="105" on="0"/>
        <pt x="183" y="66" on="0"/>
        <pt x="241" y="66" on="1"/>
        <pt x="301" y="66" on="0"/>
        <pt x="360" y="83" on="1"/>
        <pt x="360" y="11" on="1"/>
        <pt x="338" y="4" on="0"/>
        <pt x="273" y="-5" on="0"/>
        <pt x="240" y="-5" on="1"/>
        <pt x="147" y="-5" on="0"/>
        <pt x="56" y="70" on="0"/>
        <pt x="56" y="139" on="1"/>
        <pt x="56" y="534" on="1"/>
      </contour>
    </TTGlyph>
    <TTGlyph name="Cacute" xMin="56" yMin="-5" xMax="360" yMax="823">
      <component glyphName="C" x="0" y="0" flags="0x0"/>
      <component glyphName="acute" x="83" y="100" flags="0x4"/>
    </TTGlyph>
    <TTGlyph name="Ccaron" xMin="56" yMin="-5" xMax="360" yMax="823">
      <component glyphName="C" x="0" y="0" flags="0x0"/>
      <component glyphName="caron" x="53" y="100" flags="0x4"/>
    </TTGlyph>
    <TTGlyph name="Ccedilla" xMin="56" yMin="-182" xMax="360" yMax="679">
      <component glyphName="C" x="0" y="0" flags="0x0"/>
      <component glyphName="cedilla" x="57" y="0" flags="0x0"/>
    </TTGlyph>
    <TTGlyph name="D" xMin="66" yMin="0" xMax="412" yMax="674">
      <contour>
        <pt x="329" y="674" on="0"/>
        <pt x="412" y="593" on="0"/>
        <pt x="412" y="523" on="1"/>
        <pt x="412" y="154" on="1"/>
        <pt x="412" y="83" on="0"/>
        <pt x="332" y="0" on="0"/>
        <pt x="252" y="0" on="1"/>
        <pt x="66" y="0" on="1"/>
        <pt x="66" y="674" on="1"/>
        <pt x="249" y="674" on="1"/>
      </contour>
      <contour>
        <pt x="333" y="606" on="0"/>
        <pt x="243" y="606" on="1"/>
        <pt x="145" y="606" on="1"/>
        <pt x="145" y="69" on="1"/>
        <pt x="243" y="69" on="1"/>
        <pt x="333" y="69" on="0"/>
        <pt x="333" y="157" on="1"/>
        <pt x="333" y="521" on="1"/>
      </contour>
    </TTGlyph>
    <TTGlyph name="Dcaron" xMin="66" yMin="0" xMax="412" yMax="823">
      <component glyphName="D" x="0" y="0" flags="0x0"/>
      <component glyphName="caron" x="51" y="100" flags="0x4"/>
    </TTGlyph>
    <TTGlyph name="Dcroat" xMin="8" yMin="0" xMax="415" yMax="674">
      <contour>
        <pt x="332" y="674" on="0"/>
        <pt x="415" y="593" on="0"/>
        <pt x="415" y="523" on="1"/>
        <pt x="415" y="154" on="1"/>
        <pt x="415" y="83" on="0"/>
        <pt x="335" y="0" on="0"/>
        <pt x="255" y="0" on="1"/>
        <pt x="69" y="0" on="1"/>
        <pt x="69" y="302" on="1"/>
        <pt x="8" y="302" on="1"/>
        <pt x="8" y="369" on="1"/>
        <pt x="69" y="369" on="1"/>
        <pt x="69" y="674" on="1"/>
        <pt x="252" y="674" on="1"/>
      </contour>
      <contour>
        <pt x="336" y="521" on="1"/>
        <pt x="336" y="606" on="0"/>
        <pt x="246" y="606" on="1"/>
        <pt x="148" y="606" on="1"/>
        <pt x="148" y="369" on="1"/>
        <pt x="245" y="369" on="1"/>
        <pt x="245" y="302" on="1"/>
        <pt x="148" y="302" on="1"/>
        <pt x="148" y="69" on="1"/>
        <pt x="246" y="69" on="1"/>
        <pt x="336" y="69" on="0"/>
        <pt x="336" y="157" on="1"/>
      </contour>
    </TTGlyph>
    <TTGlyph name="E" xMin="66" yMin="0" xMax="364" yMax="674">
      <contour>
        <pt x="364" y="604" on="1"/>
        <pt x="145" y="604" on="1"/>
        <pt x="145" y="375" on="1"/>
        <pt x="335" y="375" on="1"/>
        <pt x="335" y="305" on="1"/>
        <pt x="145" y="305" on="1"/>
        <pt x="145" y="69" on="1"/>
        <pt x="364" y="69" on="1"/>
        <pt x="364" y="0" on="1"/>
        <pt x="66" y="0" on="1"/>
        <pt x="66" y="674" on="1"/>
        <pt x="364" y="674" on="1"/>
      </contour>
    </TTGlyph>
    <TTGlyph name="Eacute" xMin="66" yMin="0" xMax="364" yMax="823">
      <component glyphName="E" x="0" y="0" flags="0x0"/>
      <component glyphName="acute" x="71" y="100" flags="0x4"/>
    </TTGlyph>
    <TTGlyph name="Ecaron" xMin="66" yMin="0" xMax="364" yMax="823">
      <component glyphName="E" x="0" y="0" flags="0x0"/>
      <component glyphName="caron" x="41" y="100" flags="0x4"/>
    </TTGlyph>
    <TTGlyph name="Ecircumflex" xMin="66" yMin="0" xMax="364" yMax="823">
      <component glyphName="E" x="0" y="0" flags="0x0"/>
      <component glyphName="circumflex" x="35" y="100" flags="0x4"/>
    </TTGlyph>
    <TTGlyph name="Edieresis" xMin="66" yMin="0" xMax="364" yMax="807">
      <component glyphName="E" x="0" y="0" flags="0x0"/>
      <component glyphName="dieresis" x="42" y="100" flags="0x4"/>
    </TTGlyph>
    <TTGlyph name="Edotaccent" xMin="66" yMin="0" xMax="364" yMax="828">
      <component glyphName="E" x="0" y="0" flags="0x0"/>
      <component glyphName="dotaccent" x="46" y="100" flags="0x4"/>
    </TTGlyph>
    <TTGlyph name="Egrave" xMin="66" yMin="0" xMax="364" yMax="823">
      <component glyphName="E" x="0" y="0" flags="0x0"/>
      <component glyphName="grave" x="11" y="100" flags="0x4"/>
    </TTGlyph>
    <TTGlyph name="Emacron" xMin="66" yMin="0" xMax="364" yMax="794">
      <component glyphName="E" x="0" y="0" flags="0x0"/>
      <component glyphName="macron" x="40" y="100" flags="0x4"/>
    </TTGlyph>
    <TTGlyph name="Eogonek" xMin="66" yMin="-179" xMax="364" yMax="674">
      <component glyphName="E" x="0" y="0" flags="0x0"/>
      <component glyphName="ogonek" x="139" y="0" flags="0x0"/>
    </TTGlyph>
    <TTGlyph name="Eth" xMin="-3" yMin="0" xMax="415" yMax="674">
      <contour>
        <pt x="332" y="674" on="0"/>
        <pt x="415" y="593" on="0"/>
        <pt x="415" y="523" on="1"/>
        <pt x="415" y="154" on="1"/>
        <pt x="415" y="83" on="0"/>
        <pt x="335" y="0" on="0"/>
        <pt x="255" y="0" on="1"/>
        <pt x="69" y="0" on="1"/>
        <pt x="69" y="297" on="1"/>
        <pt x="-3" y="297" on="1"/>
        <pt x="-3" y="364" on="1"/>
        <pt x="69" y="364" on="1"/>
        <pt x="69" y="674" on="1"/>
        <pt x="252" y="674" on="1"/>
      </contour>
      <contour>
        <pt x="336" y="521" on="1"/>
        <pt x="336" y="606" on="0"/>
        <pt x="246" y="606" on="1"/>
        <pt x="148" y="606" on="1"/>
        <pt x="148" y="364" on="1"/>
        <pt x="251" y="364" on="1"/>
        <pt x="251" y="297" on="1"/>
        <pt x="148" y="297" on="1"/>
        <pt x="148" y="69" on="1"/>
        <pt x="246" y="69" on="1"/>
        <pt x="336" y="69" on="0"/>
        <pt x="336" y="157" on="1"/>
      </contour>
    </TTGlyph>
    <TTGlyph name="Euro" xMin="15" yMin="-5" xMax="371" yMax="679">
      <contour>
        <pt x="312" y="66" on="0"/>
        <pt x="371" y="83" on="1"/>
        <pt x="371" y="11" on="1"/>
        <pt x="349" y="4" on="0"/>
        <pt x="284" y="-5" on="0"/>
        <pt x="251" y="-5" on="1"/>
        <pt x="158" y="-5" on="0"/>
        <pt x="67" y="70" on="0"/>
        <pt x="67" y="139" on="1"/>
        <pt x="67" y="247" on="1"/>
        <pt x="15" y="247" on="1"/>
        <pt x="15" y="303" on="1"/>
        <pt x="67" y="303" on="1"/>
        <pt x="67" y="380" on="1"/>
        <pt x="15" y="380" on="1"/>
        <pt x="15" y="437" on="1"/>
        <pt x="67" y="437" on="1"/>
        <pt x="67" y="534" on="1"/>
        <pt x="67" y="603" on="0"/>
        <pt x="159" y="679" on="0"/>
        <pt x="252" y="679" on="1"/>
        <pt x="311" y="679" on="0"/>
        <pt x="369" y="663" on="1"/>
        <pt x="369" y="590" on="1"/>
        <pt x="316" y="607" on="0"/>
        <pt x="252" y="607" on="1"/>
        <pt x="194" y="607" on="0"/>
        <pt x="147" y="568" on="0"/>
        <pt x="147" y="530" on="1"/>
        <pt x="147" y="437" on="1"/>
        <pt x="295" y="437" on="1"/>
        <pt x="295" y="380" on="1"/>
        <pt x="147" y="380" on="1"/>
        <pt x="147" y="303" on="1"/>
        <pt x="295" y="303" on="1"/>
        <pt x="295" y="247" on="1"/>
        <pt x="147" y="247" on="1"/>
        <pt x="147" y="144" on="1"/>
        <pt x="147" y="105" on="0"/>
        <pt x="194" y="66" on="0"/>
        <pt x="252" y="66" on="1"/>
      </contour>
    </TTGlyph>
    <TTGlyph name="F" xMin="66" yMin="0" xMax="355" yMax="674">
      <contour>
        <pt x="355" y="604" on="1"/>
        <pt x="146" y="604" on="1"/>
        <pt x="146" y="360" on="1"/>
        <pt x="344" y="360" on="1"/>
        <pt x="344" y="290" on="1"/>
        <pt x="146" y="290" on="1"/>
        <pt x="146" y="0" on="1"/>
        <pt x="66" y="0" on="1"/>
        <pt x="66" y="674" on="1"/>
        <pt x="355" y="674" on="1"/>
      </contour>
    </TTGlyph>
    <TTGlyph name="G" xMin="56" yMin="-5" xMax="392" yMax="679">
      <contour>
        <pt x="56" y="599" on="0"/>
        <pt x="150" y="679" on="0"/>
        <pt x="247" y="679" on="1"/>
        <pt x="313" y="679" on="0"/>
        <pt x="370" y="662" on="1"/>
        <pt x="370" y="586" on="1"/>
        <pt x="314" y="606" on="0"/>
        <pt x="249" y="606" on="1"/>
        <pt x="188" y="606" on="0"/>
        <pt x="136" y="564" on="0"/>
        <pt x="136" y="524" on="1"/>
        <pt x="136" y="144" on="1"/>
        <pt x="136" y="103" on="0"/>
        <pt x="182" y="66" on="0"/>
        <pt x="229" y="66" on="1"/>
        <pt x="258" y="66" on="0"/>
        <pt x="305" y="79" on="0"/>
        <pt x="314" y="85" on="1"/>
        <pt x="314" y="334" on="1"/>
        <pt x="392" y="334" on="1"/>
        <pt x="392" y="35" on="1"/>
        <pt x="360" y="17" on="0"/>
        <pt x="289" y="-5" on="0"/>
        <pt x="229" y="-5" on="1"/>
        <pt x="149" y="-5" on="0"/>
        <pt x="56" y="66" on="0"/>
        <pt x="56" y="139" on="1"/>
        <pt x="56" y="529" on="1"/>
      </contour>
    </TTGlyph>
    <TTGlyph name="Gbreve" xMin="56" yMin="-5" xMax="392" yMax="823">
      <component glyphName="G" x="0" y="0" flags="0x0"/>
      <component glyphName="breve" x="56" y="100" flags="0x4"/>
    </TTGlyph>
    <TTGlyph name="H" xMin="66" yMin="0" xMax="432" yMax="674">
      <contour>
        <pt x="432" y="674" on="1"/>
        <pt x="432" y="0" on="1"/>
        <pt x="352" y="0" on="1"/>
        <pt x="352" y="295" on="1"/>
        <pt x="146" y="295" on="1"/>
        <pt x="146" y="0" on="1"/>
        <pt x="66" y="0" on="1"/>
        <pt x="66" y="674" on="1"/>
        <pt x="146" y="674" on="1"/>
        <pt x="146" y="366" on="1"/>
        <pt x="352" y="366" on="1"/>
        <pt x="352" y="674" on="1"/>
      </contour>
    </TTGlyph>
    <TTGlyph name="I" xMin="66" yMin="0" xMax="146" yMax="674">
      <contour>
        <pt x="146" y="0" on="1"/>
        <pt x="66" y="0" on="1"/>
        <pt x="66" y="674" on="1"/>
        <pt x="146" y="674" on="1"/>
      </contour>
    </TTGlyph>
    <TTGlyph name="Iacute" xMin="66" yMin="0" xMax="189" yMax="823">
      <component glyphName="I" x="0" y="0" flags="0x0"/>
      <component glyphName="acute" x="-41" y="100" flags="0x4"/>
    </TTGlyph>
    <TTGlyph name="Icircumflex" xMin="27" yMin="0" xMax="193" yMax="823">
      <component glyphName="I" x="0" y="0" flags="0x0"/>
      <component glyphName="circumflex" x="-65" y="100" flags="0x4"/>
    </TTGlyph>
    <TTGlyph name="Idieresis" xMin="-4" yMin="0" xMax="214" yMax="807">
      <component glyphName="I" x="0" y="0" flags="0x0"/>
      <component glyphName="dieresis" x="-70" y="100" flags="0x4"/>
    </TTGlyph>
    <TTGlyph name="Idotaccent" xMin="63" yMin="0" xMax="146" yMax="828">
      <component glyphName="I" x="0" y="0" flags="0x0"/>
      <component glyphName="dotaccent" x="-70" y="100" flags="0x4"/>
    </TTGlyph>
    <TTGlyph name="Igrave" xMin="23" yMin="0" xMax="146" yMax="823">
      <component glyphName="I" x="0" y="0" flags="0x0"/>
      <component glyphName="grave" x="-97" y="100" flags="0x4"/>
    </TTGlyph>
    <TTGlyph name="Imacron" xMin="-5" yMin="0" xMax="221" yMax="794">
      <component glyphName="I" x="0" y="0" flags="0x0"/>
      <component glyphName="macron" x="-67" y="100" flags="0x4"/>
    </TTGlyph>
    <TTGlyph name="Iogonek" xMin="47" yMin="-179" xMax="146" yMax="674">
      <component glyphName="I" x="0" y="0" flags="0x0"/>
      <component glyphName="ogonek" x="-79" y="0" flags="0x0"/>
    </TTGlyph>
    <TTGlyph name="J" xMin="1" yMin="-149" xMax="147" yMax="674">
      <contour>
        <pt x="147" y="199" on="1"/>
        <pt x="147" y="122" on="0"/>
        <pt x="130" y="14" on="0"/>
        <pt x="113" y="-45" on="1"/>
        <pt x="82" y="-149" on="1"/>
        <pt x="1" y="-149" on="1"/>
        <pt x="31" y="-44" on="1"/>
        <pt x="50" y="23" on="0"/>
        <pt x="68" y="129" on="0"/>
        <pt x="68" y="198" on="1"/>
        <pt x="68" y="674" on="1"/>
        <pt x="147" y="674" on="1"/>
      </contour>
    </TTGlyph>
    <TTGlyph name="K" xMin="66" yMin="0" xMax="422" yMax="674">
      <contour>
        <pt x="145" y="0" on="1"/>
        <pt x="66" y="0" on="1"/>
        <pt x="66" y="674" on="1"/>
        <pt x="145" y="674" on="1"/>
      </contour>
      <contour>
        <pt x="274" y="339" on="1"/>
        <pt x="422" y="0" on="1"/>
        <pt x="335" y="0" on="1"/>
        <pt x="190" y="337" on="1"/>
        <pt x="329" y="674" on="1"/>
        <pt x="414" y="674" on="1"/>
      </contour>
    </TTGlyph>
    <TTGlyph name="L" xMin="66" yMin="0" xMax="348" yMax="674">
      <contour>
        <pt x="146" y="68" on="1"/>
        <pt x="348" y="68" on="1"/>
        <pt x="348" y="0" on="1"/>
        <pt x="66" y="0" on="1"/>
        <pt x="66" y="674" on="1"/>
        <pt x="146" y="674" on="1"/>
      </contour>
    </TTGlyph>
    <TTGlyph name="Lacute" xMin="66" yMin="0" xMax="348" yMax="823">
      <component glyphName="L" x="0" y="0" flags="0x0"/>
      <component glyphName="acute" x="-41" y="100" flags="0x4"/>
    </TTGlyph>
    <TTGlyph name="Lcaron" xMin="66" yMin="0" xMax="348" yMax="721">
      <contour>
        <pt x="269" y="721" on="0"/>
        <pt x="269" y="695" on="1"/>
        <pt x="269" y="679" on="0"/>
        <pt x="237" y="618" on="0"/>
        <pt x="221" y="596" on="1"/>
        <pt x="186" y="596" on="1"/>
        <pt x="212" y="721" on="1"/>
        <pt x="242" y="721" on="1"/>
      </contour>
      <contour>
        <pt x="146" y="68" on="1"/>
        <pt x="348" y="68" on="1"/>
        <pt x="348" y="0" on="1"/>
        <pt x="66" y="0" on="1"/>
        <pt x="66" y="674" on="1"/>
        <pt x="146" y="674" on="1"/>
      </contour>
    </TTGlyph>
    <TTGlyph name="Lslash" xMin="14" yMin="0" xMax="351" yMax="674">
      <contour>
        <pt x="351" y="68" on="1"/>
        <pt x="351" y="0" on="1"/>
        <pt x="69" y="0" on="1"/>
        <pt x="69" y="278" on="1"/>
        <pt x="14" y="250" on="1"/>
        <pt x="14" y="310" on="1"/>
        <pt x="69" y="338" on="1"/>
        <pt x="69" y="674" on="1"/>
        <pt x="149" y="674" on="1"/>
        <pt x="149" y="378" on="1"/>
        <pt x="244" y="426" on="1"/>
        <pt x="244" y="365" on="1"/>
        <pt x="149" y="318" on="1"/>
        <pt x="149" y="68" on="1"/>
      </contour>
    </TTGlyph>
    <TTGlyph name="M" xMin="66" yMin="0" xMax="548" yMax="674">
      <contour>
        <pt x="548" y="0" on="1"/>
        <pt x="473" y="0" on="1"/>
        <pt x="473" y="343" on="1"/>
        <pt x="473" y="416" on="0"/>
        <pt x="479" y="528" on="0"/>
        <pt x="480" y="543" on="1"/>
        <pt x="346" y="179" on="1"/>
        <pt x="267" y="179" on="1"/>
        <pt x="133" y="543" on="1"/>
        <pt x="134" y="527" on="0"/>
        <pt x="141" y="410" on="0"/>
        <pt x="141" y="344" on="1"/>
        <pt x="141" y="0" on="1"/>
        <pt x="66" y="0" on="1"/>
        <pt x="66" y="674" on="1"/>
        <pt x="158" y="674" on="1"/>
        <pt x="307" y="259" on="1"/>
        <pt x="456" y="674" on="1"/>
        <pt x="548" y="674" on="1"/>
      </contour>
    </TTGlyph>
    <TTGlyph name="N" xMin="66" yMin="0" xMax="436" yMax="674">
      <contour>
        <pt x="436" y="0" on="1"/>
        <pt x="348" y="0" on="1"/>
        <pt x="215" y="337" on="1"/>
        <pt x="166" y="466" on="1"/>
        <pt x="135" y="549" on="1"/>
        <pt x="135" y="532" on="0"/>
        <pt x="137" y="500" on="0"/>
        <pt x="138" y="485" on="1"/>
        <pt x="143" y="376" on="0"/>
        <pt x="144" y="323" on="1"/>
        <pt x="144" y="0" on="1"/>
        <pt x="66" y="0" on="1"/>
        <pt x="66" y="674" on="1"/>
        <pt x="155" y="674" on="1"/>
        <pt x="288" y="337" on="1"/>
        <pt x="315" y="271" on="0"/>
        <pt x="337" y="205" on="1"/>
        <pt x="345" y="184" on="0"/>
        <pt x="359" y="144" on="0"/>
        <pt x="367" y="125" on="1"/>
        <pt x="367" y="142" on="0"/>
        <pt x="365" y="174" on="0"/>
        <pt x="364" y="189" on="1"/>
        <pt x="359" y="302" on="0"/>
        <pt x="358" y="352" on="1"/>
        <pt x="358" y="674" on="1"/>
        <pt x="436" y="674" on="1"/>
      </contour>
    </TTGlyph>
    <TTGlyph name="Nacute" xMin="66" yMin="0" xMax="436" yMax="823">
      <component glyphName="N" x="0" y="0" flags="0x0"/>
      <component glyphName="acute" x="106" y="100" flags="0x4"/>
    </TTGlyph>
    <TTGlyph name="Ncaron" xMin="66" yMin="0" xMax="436" yMax="823">
      <component glyphName="N" x="0" y="0" flags="0x0"/>
      <component glyphName="caron" x="77" y="100" flags="0x4"/>
    </TTGlyph>
    <TTGlyph name="Ntilde" xMin="66" yMin="0" xMax="436" yMax="815">
      <component glyphName="N" x="0" y="0" flags="0x0"/>
      <component glyphName="tilde" x="85" y="100" flags="0x4"/>
    </TTGlyph>
    <TTGlyph name="O" xMin="56" yMin="-10" xMax="403" yMax="684">
      <contour>
        <pt x="56" y="595" on="0"/>
        <pt x="144" y="684" on="0"/>
        <pt x="230" y="684" on="1"/>
        <pt x="316" y="684" on="0"/>
        <pt x="403" y="596" on="0"/>
        <pt x="403" y="523" on="1"/>
        <pt x="403" y="150" on="1"/>
        <pt x="403" y="78" on="0"/>
        <pt x="316" y="-10" on="0"/>
        <pt x="230" y="-10" on="1"/>
        <pt x="144" y="-10" on="0"/>
        <pt x="56" y="78" on="0"/>
        <pt x="56" y="150" on="1"/>
        <pt x="56" y="523" on="1"/>
      </contour>
      <contour>
        <pt x="325" y="564" on="0"/>
        <pt x="279" y="612" on="0"/>
        <pt x="230" y="612" on="1"/>
        <pt x="135" y="612" on="0"/>
        <pt x="135" y="521" on="1"/>
        <pt x="135" y="153" on="1"/>
        <pt x="135" y="61" on="0"/>
        <pt x="230" y="61" on="1"/>
        <pt x="279" y="61" on="0"/>
        <pt x="325" y="110" on="0"/>
        <pt x="325" y="153" on="1"/>
        <pt x="325" y="521" on="1"/>
      </contour>
    </TTGlyph>
    <TTGlyph name="OE" xMin="76" yMin="0" xMax="645" yMax="674">
      <contour>
        <pt x="426" y="604" on="1"/>
        <pt x="426" y="375" on="1"/>
        <pt x="616" y="375" on="1"/>
        <pt x="616" y="305" on="1"/>
        <pt x="426" y="305" on="1"/>
        <pt x="426" y="69" on="1"/>
        <pt x="645" y="69" on="1"/>
        <pt x="645" y="0" on="1"/>
        <pt x="236" y="0" on="1"/>
        <pt x="156" y="0" on="0"/>
        <pt x="76" y="83" on="0"/>
        <pt x="76" y="154" on="1"/>
        <pt x="76" y="523" on="1"/>
        <pt x="76" y="593" on="0"/>
        <pt x="159" y="674" on="0"/>
        <pt x="239" y="674" on="1"/>
        <pt x="645" y="674" on="1"/>
        <pt x="645" y="604" on="1"/>
      </contour>
      <contour>
        <pt x="347" y="69" on="1"/>
        <pt x="347" y="606" on="1"/>
        <pt x="245" y="606" on="1"/>
        <pt x="155" y="606" on="0"/>
        <pt x="155" y="521" on="1"/>
        <pt x="155" y="157" on="1"/>
        <pt x="155" y="69" on="0"/>
        <pt x="245" y="69" on="1"/>
      </contour>
    </TTGlyph>
    <TTGlyph name="Oacute" xMin="56" yMin="-10" xMax="403" yMax="823">
      <component glyphName="O" x="0" y="0" flags="0x0"/>
      <component glyphName="acute" x="86" y="100" flags="0x4"/>
    </TTGlyph>
    <TTGlyph name="Ocircumflex" xMin="56" yMin="-10" xMax="403" yMax="823">
      <component glyphName="O" x="0" y="0" flags="0x0"/>
      <component glyphName="circumflex" x="55" y="100" flags="0x4"/>
    </TTGlyph>
    <TTGlyph name="Odieresis" xMin="56" yMin="-10" xMax="403" yMax="807">
      <component glyphName="O" x="0" y="0" flags="0x0"/>
      <component glyphName="dieresis" x="55" y="100" flags="0x4"/>
    </TTGlyph>
    <TTGlyph name="Ograve" xMin="56" yMin="-10" xMax="403" yMax="823">
      <component glyphName="O" x="0" y="0" flags="0x0"/>
      <component glyphName="grave" x="19" y="100" flags="0x4"/>
    </TTGlyph>
    <TTGlyph name="Ohungarumlaut" xMin="56" yMin="-10" xMax="403" yMax="823">
      <component glyphName="O" x="0" y="0" flags="0x0"/>
      <component glyphName="hungarumlaut" x="84" y="100" flags="0x4"/>
    </TTGlyph>
    <TTGlyph name="Omacron" xMin="56" yMin="-10" xMax="403" yMax="794">
      <component glyphName="O" x="0" y="0" flags="0x0"/>
      <component glyphName="macron" x="56" y="100" flags="0x4"/>
    </TTGlyph>
    <TTGlyph name="Oslash" xMin="55" yMin="-10" xMax="405" yMax="684">
      <contour>
        <pt x="379" y="615" on="1"/>
        <pt x="403" y="576" on="0"/>
        <pt x="403" y="523" on="1"/>
        <pt x="403" y="150" on="1"/>
        <pt x="403" y="78" on="0"/>
        <pt x="316" y="-10" on="0"/>
        <pt x="230" y="-10" on="1"/>
        <pt x="162" y="-10" on="0"/>
        <pt x="120" y="18" on="1"/>
        <pt x="112" y="0" on="1"/>
        <pt x="55" y="0" on="1"/>
        <pt x="80" y="58" on="1"/>
        <pt x="56" y="97" on="0"/>
        <pt x="56" y="150" on="1"/>
        <pt x="56" y="523" on="1"/>
        <pt x="56" y="595" on="0"/>
        <pt x="144" y="684" on="0"/>
        <pt x="230" y="684" on="1"/>
        <pt x="299" y="684" on="0"/>
        <pt x="340" y="655" on="1"/>
        <pt x="348" y="674" on="1"/>
        <pt x="405" y="674" on="1"/>
      </contour>
      <contour>
        <pt x="135" y="184" on="1"/>
        <pt x="308" y="581" on="1"/>
        <pt x="285" y="612" on="0"/>
        <pt x="230" y="612" on="1"/>
        <pt x="135" y="612" on="0"/>
        <pt x="135" y="521" on="1"/>
      </contour>
      <contour>
        <pt x="325" y="490" on="1"/>
        <pt x="152" y="92" on="1"/>
        <pt x="175" y="61" on="0"/>
        <pt x="230" y="61" on="1"/>
        <pt x="279" y="61" on="0"/>
        <pt x="325" y="110" on="0"/>
        <pt x="325" y="153" on="1"/>
      </contour>
    </TTGlyph>
    <TTGlyph name="Otilde" xMin="56" yMin="-10" xMax="403" yMax="815">
      <component glyphName="O" x="0" y="0" flags="0x0"/>
      <component glyphName="tilde" x="56" y="100" flags="0x4"/>
    </TTGlyph>
    <TTGlyph name="P" xMin="66" yMin="0" xMax="399" yMax="674">
      <contour>
        <pt x="316" y="674" on="0"/>
        <pt x="399" y="593" on="0"/>
        <pt x="399" y="523" on="1"/>
        <pt x="399" y="379" on="1"/>
        <pt x="399" y="309" on="0"/>
        <pt x="316" y="228" on="0"/>
        <pt x="236" y="228" on="1"/>
        <pt x="145" y="228" on="1"/>
        <pt x="145" y="0" on="1"/>
        <pt x="66" y="0" on="1"/>
        <pt x="66" y="674" on="1"/>
        <pt x="236" y="674" on="1"/>
      </contour>
      <contour>
        <pt x="321" y="560" on="0"/>
        <pt x="278" y="604" on="0"/>
        <pt x="231" y="604" on="1"/>
        <pt x="145" y="604" on="1"/>
        <pt x="145" y="297" on="1"/>
        <pt x="231" y="297" on="1"/>
        <pt x="321" y="297" on="0"/>
        <pt x="321" y="384" on="1"/>
        <pt x="321" y="517" on="1"/>
      </contour>
    </TTGlyph>
    <TTGlyph name="Q" xMin="56" yMin="-99" xMax="450" yMax="684">
      <contour>
        <pt x="353" y="-99" on="1"/>
        <pt x="269" y="-7" on="1"/>
        <pt x="251" y="-10" on="0"/>
        <pt x="230" y="-10" on="1"/>
        <pt x="144" y="-10" on="0"/>
        <pt x="56" y="78" on="0"/>
        <pt x="56" y="150" on="1"/>
        <pt x="56" y="523" on="1"/>
        <pt x="56" y="595" on="0"/>
        <pt x="144" y="684" on="0"/>
        <pt x="230" y="684" on="1"/>
        <pt x="316" y="684" on="0"/>
        <pt x="403" y="596" on="0"/>
        <pt x="403" y="523" on="1"/>
        <pt x="403" y="150" on="1"/>
        <pt x="403" y="108" on="0"/>
        <pt x="372" y="40" on="0"/>
        <pt x="341" y="19" on="1"/>
        <pt x="450" y="-99" on="1"/>
      </contour>
      <contour>
        <pt x="135" y="61" on="0"/>
        <pt x="230" y="61" on="1"/>
        <pt x="279" y="61" on="0"/>
        <pt x="325" y="110" on="0"/>
        <pt x="325" y="153" on="1"/>
        <pt x="325" y="521" on="1"/>
        <pt x="325" y="564" on="0"/>
        <pt x="279" y="612" on="0"/>
        <pt x="230" y="612" on="1"/>
        <pt x="135" y="612" on="0"/>
        <pt x="135" y="521" on="1"/>
        <pt x="135" y="153" on="1"/>
      </contour>
    </TTGlyph>
    <TTGlyph name="R" xMin="66" yMin="0" xMax="421" yMax="674">
      <contour>
        <pt x="334" y="0" on="1"/>
        <pt x="237" y="268" on="1"/>
        <pt x="145" y="268" on="1"/>
        <pt x="145" y="0" on="1"/>
        <pt x="66" y="0" on="1"/>
        <pt x="66" y="674" on="1"/>
        <pt x="236" y="674" on="1"/>
        <pt x="316" y="674" on="0"/>
        <pt x="399" y="593" on="0"/>
        <pt x="399" y="523" on="1"/>
        <pt x="399" y="421" on="1"/>
        <pt x="399" y="312" on="0"/>
        <pt x="314" y="280" on="1"/>
        <pt x="421" y="0" on="1"/>
      </contour>
      <contour>
        <pt x="145" y="335" on="1"/>
        <pt x="231" y="335" on="1"/>
        <pt x="278" y="335" on="0"/>
        <pt x="321" y="379" on="0"/>
        <pt x="321" y="422" on="1"/>
        <pt x="321" y="519" on="1"/>
        <pt x="321" y="561" on="0"/>
        <pt x="278" y="605" on="0"/>
        <pt x="231" y="605" on="1"/>
        <pt x="145" y="605" on="1"/>
      </contour>
    </TTGlyph>
    <TTGlyph name="Racute" xMin="66" yMin="0" xMax="421" yMax="823">
      <component glyphName="R" x="0" y="0" flags="0x0"/>
      <component glyphName="acute" x="82" y="100" flags="0x4"/>
    </TTGlyph>
    <TTGlyph name="Rcaron" xMin="66" yMin="0" xMax="421" yMax="823">
      <component glyphName="R" x="0" y="0" flags="0x0"/>
      <component glyphName="caron" x="49" y="100" flags="0x4"/>
    </TTGlyph>
    <TTGlyph name="S" xMin="27" yMin="-5" xMax="362" yMax="679">
      <contour>
        <pt x="27" y="603" on="0"/>
        <pt x="117" y="679" on="0"/>
        <pt x="205" y="679" on="1"/>
        <pt x="280" y="679" on="0"/>
        <pt x="335" y="662" on="1"/>
        <pt x="335" y="587" on="1"/>
        <pt x="283" y="606" on="0"/>
        <pt x="206" y="606" on="1"/>
        <pt x="107" y="606" on="0"/>
        <pt x="107" y="531" on="1"/>
        <pt x="107" y="486" on="1"/>
        <pt x="107" y="452" on="0"/>
        <pt x="133" y="413" on="0"/>
        <pt x="165" y="395" on="1"/>
        <pt x="281" y="330" on="1"/>
        <pt x="323" y="307" on="0"/>
        <pt x="362" y="244" on="0"/>
        <pt x="362" y="197" on="1"/>
        <pt x="362" y="142" on="1"/>
        <pt x="362" y="72" on="0"/>
        <pt x="266" y="-5" on="0"/>
        <pt x="169" y="-5" on="1"/>
        <pt x="129" y="-5" on="0"/>
        <pt x="55" y="7" on="0"/>
        <pt x="33" y="15" on="1"/>
        <pt x="33" y="91" on="1"/>
        <pt x="59" y="81" on="0"/>
        <pt x="132" y="68" on="0"/>
        <pt x="168" y="68" on="1"/>
        <pt x="283" y="68" on="0"/>
        <pt x="283" y="148" on="1"/>
        <pt x="283" y="187" on="1"/>
        <pt x="283" y="219" on="0"/>
        <pt x="260" y="255" on="0"/>
        <pt x="229" y="272" on="1"/>
        <pt x="115" y="335" on="1"/>
        <pt x="71" y="358" on="0"/>
        <pt x="27" y="426" on="0"/>
        <pt x="27" y="476" on="1"/>
        <pt x="27" y="535" on="1"/>
      </contour>
    </TTGlyph>
    <TTGlyph name="Sacute" xMin="27" yMin="-5" xMax="362" yMax="823">
      <component glyphName="S" x="0" y="0" flags="0x0"/>
      <component glyphName="acute" x="52" y="100" flags="0x4"/>
    </TTGlyph>
    <TTGlyph name="Scaron" xMin="27" yMin="-5" xMax="362" yMax="823">
      <component glyphName="S" x="0" y="0" flags="0x0"/>
      <component glyphName="caron" x="26" y="100" flags="0x4"/>
    </TTGlyph>
    <TTGlyph name="T" xMin="9" yMin="0" xMax="348" yMax="674">
      <contour>
        <pt x="348" y="604" on="1"/>
        <pt x="218" y="604" on="1"/>
        <pt x="218" y="0" on="1"/>
        <pt x="139" y="0" on="1"/>
        <pt x="139" y="604" on="1"/>
        <pt x="9" y="604" on="1"/>
        <pt x="9" y="674" on="1"/>
        <pt x="348" y="674" on="1"/>
      </contour>
    </TTGlyph>
    <TTGlyph name="Tcaron" xMin="9" yMin="0" xMax="348" yMax="823">
      <component glyphName="T" x="0" y="0" flags="0x0"/>
      <component glyphName="caron" x="2" y="100" flags="0x4"/>
    </TTGlyph>
    <TTGlyph name="Thorn" xMin="76" yMin="0" xMax="406" yMax="674">
      <contour>
        <pt x="322" y="554" on="0"/>
        <pt x="406" y="473" on="0"/>
        <pt x="406" y="403" on="1"/>
        <pt x="406" y="271" on="1"/>
        <pt x="406" y="201" on="0"/>
        <pt x="322" y="120" on="0"/>
        <pt x="243" y="120" on="1"/>
        <pt x="153" y="120" on="1"/>
        <pt x="153" y="0" on="1"/>
        <pt x="76" y="0" on="1"/>
        <pt x="76" y="674" on="1"/>
        <pt x="153" y="674" on="1"/>
        <pt x="153" y="554" on="1"/>
        <pt x="243" y="554" on="1"/>
      </contour>
      <contour>
        <pt x="329" y="399" on="1"/>
        <pt x="329" y="486" on="0"/>
        <pt x="239" y="486" on="1"/>
        <pt x="153" y="486" on="1"/>
        <pt x="153" y="190" on="1"/>
        <pt x="239" y="190" on="1"/>
        <pt x="286" y="190" on="0"/>
        <pt x="329" y="233" on="0"/>
        <pt x="329" y="275" on="1"/>
      </contour>
    </TTGlyph>
    <TTGlyph name="U" xMin="61" yMin="-10" xMax="407" yMax="674">
      <contour>
        <pt x="407" y="150" on="1"/>
        <pt x="407" y="78" on="0"/>
        <pt x="320" y="-10" on="0"/>
        <pt x="234" y="-10" on="1"/>
        <pt x="148" y="-10" on="0"/>
        <pt x="61" y="78" on="0"/>
        <pt x="61" y="150" on="1"/>
        <pt x="61" y="674" on="1"/>
        <pt x="140" y="674" on="1"/>
        <pt x="140" y="153" on="1"/>
        <pt x="140" y="61" on="0"/>
        <pt x="234" y="61" on="1"/>
        <pt x="329" y="61" on="0"/>
        <pt x="329" y="153" on="1"/>
        <pt x="329" y="674" on="1"/>
        <pt x="407" y="674" on="1"/>
      </contour>
    </TTGlyph>
    <TTGlyph name="Uacute" xMin="61" yMin="-10" xMax="407" yMax="823">
      <component glyphName="U" x="0" y="0" flags="0x0"/>
      <component glyphName="acute" x="90" y="100" flags="0x4"/>
    </TTGlyph>
    <TTGlyph name="Ucircumflex" xMin="61" yMin="-10" xMax="407" yMax="823">
      <component glyphName="U" x="0" y="0" flags="0x0"/>
      <component glyphName="circumflex" x="59" y="100" flags="0x4"/>
    </TTGlyph>
    <TTGlyph name="Udieresis" xMin="61" yMin="-10" xMax="407" yMax="807">
      <component glyphName="U" x="0" y="0" flags="0x0"/>
      <component glyphName="dieresis" x="59" y="100" flags="0x4"/>
    </TTGlyph>
    <TTGlyph name="Ugrave" xMin="61" yMin="-10" xMax="407" yMax="823">
      <component glyphName="U" x="0" y="0" flags="0x0"/>
      <component glyphName="grave" x="29" y="100" flags="0x4"/>
    </TTGlyph>
    <TTGlyph name="Uhungarumlaut" xMin="61" yMin="-10" xMax="407" yMax="823">
      <component glyphName="hungarumlaut" x="82" y="100" flags="0x4"/>
      <component glyphName="U" x="0" y="0" flags="0x0"/>
    </TTGlyph>
    <TTGlyph name="Umacron" xMin="61" yMin="-10" xMax="407" yMax="794">
      <component glyphName="U" x="0" y="0" flags="0x0"/>
      <component glyphName="macron" x="59" y="100" flags="0x4"/>
    </TTGlyph>
    <TTGlyph name="Uogonek" xMin="61" yMin="-169" xMax="407" yMax="674">
      <component glyphName="U" x="0" y="0" flags="0x0"/>
      <component glyphName="ogonek" x="102" y="10" flags="0x4"/>
    </TTGlyph>
    <TTGlyph name="Uring" xMin="61" yMin="-10" xMax="407" yMax="842">
      <component glyphName="U" x="0" y="0" flags="0x0"/>
      <component glyphName="ring" x="61" y="100" flags="0x4"/>
    </TTGlyph>
    <TTGlyph name="V" xMin="12" yMin="0" xMax="414" yMax="674">
      <contour>
        <pt x="269" y="0" on="1"/>
        <pt x="158" y="0" on="1"/>
        <pt x="12" y="674" on="1"/>
        <pt x="93" y="674" on="1"/>
        <pt x="162" y="344" on="1"/>
        <pt x="186" y="220" on="1"/>
        <pt x="203" y="123" on="0"/>
        <pt x="214" y="75" on="1"/>
        <pt x="241" y="218" on="1"/>
        <pt x="264" y="344" on="1"/>
        <pt x="332" y="674" on="1"/>
        <pt x="414" y="674" on="1"/>
      </contour>
    </TTGlyph>
    <TTGlyph name="W" xMin="19" yMin="0" xMax="588" yMax="674">
      <contour>
        <pt x="479" y="0" on="1"/>
        <pt x="389" y="0" on="1"/>
        <pt x="334" y="329" on="1"/>
        <pt x="322" y="402" on="0"/>
        <pt x="306" y="534" on="0"/>
        <pt x="304" y="552" on="1"/>
        <pt x="302" y="533" on="0"/>
        <pt x="288" y="401" on="0"/>
        <pt x="275" y="330" on="1"/>
        <pt x="220" y="0" on="1"/>
        <pt x="128" y="0" on="1"/>
        <pt x="19" y="674" on="1"/>
        <pt x="94" y="674" on="1"/>
        <pt x="156" y="290" on="1"/>
        <pt x="165" y="235" on="0"/>
        <pt x="177" y="126" on="0"/>
        <pt x="179" y="110" on="1"/>
        <pt x="181" y="126" on="0"/>
        <pt x="194" y="225" on="0"/>
        <pt x="204" y="291" on="1"/>
        <pt x="265" y="674" on="1"/>
        <pt x="343" y="674" on="1"/>
        <pt x="404" y="290" on="1"/>
        <pt x="428" y="112" on="1"/>
        <pt x="430" y="130" on="0"/>
        <pt x="445" y="244" on="0"/>
        <pt x="452" y="290" on="1"/>
        <pt x="514" y="674" on="1"/>
        <pt x="588" y="674" on="1"/>
      </contour>
    </TTGlyph>
    <TTGlyph name="X" xMin="12" yMin="0" xMax="387" yMax="674">
      <contour>
        <pt x="240" y="336" on="1"/>
        <pt x="387" y="0" on="1"/>
        <pt x="301" y="0" on="1"/>
        <pt x="200" y="248" on="1"/>
        <pt x="98" y="0" on="1"/>
        <pt x="12" y="0" on="1"/>
        <pt x="158" y="336" on="1"/>
        <pt x="12" y="674" on="1"/>
        <pt x="98" y="674" on="1"/>
        <pt x="200" y="424" on="1"/>
        <pt x="302" y="674" on="1"/>
        <pt x="387" y="674" on="1"/>
      </contour>
    </TTGlyph>
    <TTGlyph name="Y" xMin="4" yMin="0" xMax="413" yMax="674">
      <contour>
        <pt x="248" y="226" on="1"/>
        <pt x="248" y="0" on="1"/>
        <pt x="169" y="0" on="1"/>
        <pt x="169" y="226" on="1"/>
        <pt x="4" y="674" on="1"/>
        <pt x="85" y="674" on="1"/>
        <pt x="149" y="499" on="1"/>
        <pt x="181" y="407" on="0"/>
        <pt x="209" y="316" on="1"/>
        <pt x="269" y="498" on="1"/>
        <pt x="333" y="674" on="1"/>
        <pt x="413" y="674" on="1"/>
      </contour>
    </TTGlyph>
    <TTGlyph name="Yacute" xMin="4" yMin="0" xMax="413" yMax="823">
      <component glyphName="Y" x="0" y="0" flags="0x0"/>
      <component glyphName="acute" x="61" y="100" flags="0x4"/>
    </TTGlyph>
    <TTGlyph name="Ydieresis" xMin="4" yMin="0" xMax="413" yMax="807">
      <component glyphName="dieresis" x="29" y="100" flags="0x4"/>
      <component glyphName="Y" x="0" y="0" flags="0x0"/>
    </TTGlyph>
    <TTGlyph name="Z" xMin="27" yMin="0" xMax="358" yMax="674">
      <contour>
        <pt x="358" y="607" on="1"/>
        <pt x="110" y="68" on="1"/>
        <pt x="355" y="68" on="1"/>
        <pt x="355" y="0" on="1"/>
        <pt x="27" y="0" on="1"/>
        <pt x="27" y="68" on="1"/>
        <pt x="274" y="605" on="1"/>
        <pt x="33" y="605" on="1"/>
        <pt x="33" y="674" on="1"/>
        <pt x="358" y="674" on="1"/>
      </contour>
    </TTGlyph>
    <TTGlyph name="Zacute" xMin="27" yMin="0" xMax="358" yMax="823">
      <component glyphName="Z" x="0" y="0" flags="0x0"/>
      <component glyphName="acute" x="46" y="100" flags="0x4"/>
    </TTGlyph>
    <TTGlyph name="Zcaron" xMin="27" yMin="0" xMax="358" yMax="823">
      <component glyphName="Z" x="0" y="0" flags="0x0"/>
      <component glyphName="caron" x="21" y="100" flags="0x4"/>
    </TTGlyph>
    <TTGlyph name="Zdotaccent" xMin="27" yMin="0" xMax="358" yMax="828">
      <component glyphName="Z" x="0" y="0" flags="0x0"/>
      <component glyphName="dotaccent" x="19" y="100" flags="0x4"/>
    </TTGlyph>
    <TTGlyph name="a" xMin="30" yMin="-3" xMax="365" yMax="576">
      <contour>
        <pt x="81" y="565" on="0"/>
        <pt x="154" y="576" on="0"/>
        <pt x="192" y="576" on="1"/>
        <pt x="283" y="576" on="0"/>
        <pt x="365" y="500" on="0"/>
        <pt x="365" y="427" on="1"/>
        <pt x="365" y="0" on="1"/>
        <pt x="290" y="0" on="1"/>
        <pt x="290" y="41" on="1"/>
        <pt x="266" y="19" on="0"/>
        <pt x="213" y="-3" on="0"/>
        <pt x="169" y="-3" on="1"/>
        <pt x="97" y="-3" on="0"/>
        <pt x="30" y="66" on="0"/>
        <pt x="30" y="134" on="1"/>
        <pt x="30" y="166" on="1"/>
        <pt x="30" y="220" on="0"/>
        <pt x="89" y="288" on="0"/>
        <pt x="152" y="306" on="1"/>
        <pt x="289" y="344" on="1"/>
        <pt x="289" y="428" on="1"/>
        <pt x="288" y="467" on="0"/>
        <pt x="246" y="504" on="0"/>
        <pt x="188" y="504" on="1"/>
        <pt x="153" y="504" on="0"/>
        <pt x="80" y="492" on="0"/>
        <pt x="58" y="484" on="1"/>
        <pt x="58" y="557" on="1"/>
      </contour>
      <contour>
        <pt x="181" y="246" on="1"/>
        <pt x="139" y="234" on="0"/>
        <pt x="108" y="197" on="0"/>
        <pt x="108" y="163" on="1"/>
        <pt x="108" y="133" on="1"/>
        <pt x="108" y="96" on="0"/>
        <pt x="143" y="60" on="0"/>
        <pt x="185" y="60" on="1"/>
        <pt x="215" y="60" on="0"/>
        <pt x="269" y="80" on="0"/>
        <pt x="288" y="96" on="1"/>
        <pt x="288" y="276" on="1"/>
      </contour>
    </TTGlyph>
    <TTGlyph name="aacute" xMin="30" yMin="-3" xMax="365" yMax="723">
      <component glyphName="a" x="0" y="0" flags="0x0"/>
      <component glyphName="acute" x="61" y="0" flags="0x0"/>
    </TTGlyph>
    <TTGlyph name="abreve" xMin="30" yMin="-3" xMax="365" yMax="723">
      <component glyphName="a" x="0" y="0" flags="0x0"/>
      <component glyphName="breve" x="37" y="0" flags="0x0"/>
    </TTGlyph>
    <TTGlyph name="acircumflex" xMin="30" yMin="-3" xMax="365" yMax="723">
      <component glyphName="a" x="0" y="0" flags="0x0"/>
      <component glyphName="circumflex" x="40" y="0" flags="0x0"/>
    </TTGlyph>
    <TTGlyph name="acute" xMin="120" yMin="615" xMax="230" yMax="723">
      <contour>
        <pt x="169" y="615" on="1"/>
        <pt x="120" y="615" on="1"/>
        <pt x="159" y="723" on="1"/>
        <pt x="230" y="723" on="1"/>
      </contour>
    </TTGlyph>
    <TTGlyph name="adieresis" xMin="30" yMin="-3" xMax="365" yMax="707">
      <component glyphName="a" x="0" y="0" flags="0x0"/>
      <component glyphName="dieresis" x="35" y="0" flags="0x0"/>
    </TTGlyph>
    <TTGlyph name="ae" xMin="32" yMin="-5" xMax="619" yMax="581">
      <contour>
        <pt x="348" y="552" on="0"/>
        <pt x="414" y="581" on="0"/>
        <pt x="456" y="581" on="1"/>
        <pt x="539" y="581" on="0"/>
        <pt x="619" y="496" on="0"/>
        <pt x="619" y="425" on="1"/>
        <pt x="619" y="247" on="1"/>
        <pt x="365" y="247" on="1"/>
        <pt x="365" y="151" on="1"/>
        <pt x="365" y="108" on="0"/>
        <pt x="423" y="66" on="0"/>
        <pt x="485" y="66" on="1"/>
        <pt x="547" y="66" on="0"/>
        <pt x="603" y="84" on="1"/>
        <pt x="603" y="11" on="1"/>
        <pt x="545" y="-5" on="0"/>
        <pt x="480" y="-5" on="1"/>
        <pt x="375" y="-5" on="0"/>
        <pt x="329" y="41" on="1"/>
        <pt x="303" y="20" on="0"/>
        <pt x="221" y="-4" on="0"/>
        <pt x="175" y="-4" on="1"/>
        <pt x="103" y="-4" on="0"/>
        <pt x="32" y="66" on="0"/>
        <pt x="32" y="133" on="1"/>
        <pt x="32" y="166" on="1"/>
        <pt x="32" y="220" on="0"/>
        <pt x="89" y="288" on="0"/>
        <pt x="152" y="306" on="1"/>
        <pt x="288" y="346" on="1"/>
        <pt x="288" y="430" on="1"/>
        <pt x="288" y="467" on="0"/>
        <pt x="245" y="504" on="0"/>
        <pt x="188" y="504" on="1"/>
        <pt x="152" y="504" on="0"/>
        <pt x="81" y="491" on="0"/>
        <pt x="58" y="483" on="1"/>
        <pt x="58" y="557" on="1"/>
        <pt x="82" y="564" on="0"/>
        <pt x="154" y="576" on="0"/>
        <pt x="191" y="576" on="1"/>
        <pt x="286" y="576" on="0"/>
        <pt x="327" y="530" on="1"/>
      </contour>
      <contour>
        <pt x="544" y="513" on="0"/>
        <pt x="456" y="513" on="1"/>
        <pt x="410" y="513" on="0"/>
        <pt x="365" y="466" on="0"/>
        <pt x="365" y="424" on="1"/>
        <pt x="365" y="312" on="1"/>
        <pt x="544" y="312" on="1"/>
        <pt x="544" y="424" on="1"/>
      </contour>
      <contour>
        <pt x="181" y="246" on="1"/>
        <pt x="139" y="234" on="0"/>
        <pt x="108" y="197" on="0"/>
        <pt x="108" y="163" on="1"/>
        <pt x="108" y="133" on="1"/>
        <pt x="108" y="95" on="0"/>
        <pt x="144" y="60" on="0"/>
        <pt x="185" y="60" on="1"/>
        <pt x="216" y="60" on="0"/>
        <pt x="270" y="77" on="0"/>
        <pt x="289" y="92" on="1"/>
        <pt x="289" y="277" on="1"/>
      </contour>
    </TTGlyph>
    <TTGlyph name="agrave" xMin="30" yMin="-3" xMax="365" yMax="723">
      <component glyphName="a" x="0" y="0" flags="0x0"/>
      <component glyphName="grave" x="2" y="0" flags="0x0"/>
    </TTGlyph>
    <TTGlyph name="amacron" xMin="30" yMin="-3" xMax="365" yMax="694">
      <component glyphName="a" x="0" y="0" flags="0x0"/>
      <component glyphName="macron" x="34" y="0" flags="0x0"/>
    </TTGlyph>
    <TTGlyph name="ampersand" xMin="53" yMin="-9" xMax="448" yMax="679">
      <contour>
        <pt x="448" y="312" on="1"/>
        <pt x="405" y="312" on="1"/>
        <pt x="405" y="152" on="1"/>
        <pt x="405" y="80" on="0"/>
        <pt x="316" y="-9" on="0"/>
        <pt x="231" y="-9" on="1"/>
        <pt x="145" y="-9" on="0"/>
        <pt x="53" y="80" on="0"/>
        <pt x="53" y="152" on="1"/>
        <pt x="53" y="224" on="1"/>
        <pt x="53" y="320" on="0"/>
        <pt x="130" y="348" on="1"/>
        <pt x="93" y="362" on="0"/>
        <pt x="54" y="425" on="0"/>
        <pt x="54" y="472" on="1"/>
        <pt x="54" y="528" on="1"/>
        <pt x="54" y="598" on="0"/>
        <pt x="149" y="679" on="0"/>
        <pt x="247" y="679" on="1"/>
        <pt x="318" y="679" on="0"/>
        <pt x="372" y="661" on="1"/>
        <pt x="372" y="586" on="1"/>
        <pt x="314" y="606" on="0"/>
        <pt x="248" y="606" on="1"/>
        <pt x="184" y="606" on="0"/>
        <pt x="133" y="562" on="0"/>
        <pt x="133" y="523" on="1"/>
        <pt x="133" y="473" on="1"/>
        <pt x="133" y="429" on="0"/>
        <pt x="172" y="381" on="0"/>
        <pt x="218" y="381" on="1"/>
        <pt x="328" y="381" on="1"/>
        <pt x="328" y="441" on="1"/>
        <pt x="405" y="441" on="1"/>
        <pt x="405" y="381" on="1"/>
        <pt x="448" y="381" on="1"/>
      </contour>
      <contour>
        <pt x="328" y="312" on="1"/>
        <pt x="219" y="312" on="1"/>
        <pt x="132" y="312" on="0"/>
        <pt x="132" y="222" on="1"/>
        <pt x="132" y="153" on="1"/>
        <pt x="132" y="110" on="0"/>
        <pt x="181" y="61" on="0"/>
        <pt x="231" y="61" on="1"/>
        <pt x="280" y="61" on="0"/>
        <pt x="328" y="110" on="0"/>
        <pt x="328" y="153" on="1"/>
      </contour>
    </TTGlyph>
    <TTGlyph name="aogonek" xMin="30" yMin="-179" xMax="365" yMax="576">
      <component glyphName="a" x="0" y="0" flags="0x0"/>
      <component glyphName="ogonek" x="139" y="0" flags="0x0"/>
    </TTGlyph>
    <TTGlyph name="apostrophemod" xMin="29" yMin="510" xMax="135" yMax="715">
      <component glyphName="quoteright" x="0" y="0" flags="0x0"/>
    </TTGlyph>
    <TTGlyph name="approxequal" xMin="41" yMin="188" xMax="439" yMax="482">
      <contour>
        <pt x="437" y="471" on="0"/>
        <pt x="439" y="454" on="0"/>
        <pt x="439" y="441" on="1"/>
        <pt x="439" y="395" on="0"/>
        <pt x="386" y="346" on="0"/>
        <pt x="346" y="346" on="1"/>
        <pt x="317" y="346" on="0"/>
        <pt x="284" y="360" on="1"/>
        <pt x="191" y="400" on="1"/>
        <pt x="166" y="411" on="0"/>
        <pt x="146" y="411" on="1"/>
        <pt x="128" y="411" on="0"/>
        <pt x="107" y="391" on="0"/>
        <pt x="107" y="371" on="1"/>
        <pt x="107" y="367" on="0"/>
        <pt x="109" y="355" on="1"/>
        <pt x="44" y="355" on="1"/>
        <pt x="43" y="358" on="0"/>
        <pt x="41" y="375" on="0"/>
        <pt x="41" y="387" on="1"/>
        <pt x="41" y="433" on="0"/>
        <pt x="94" y="482" on="0"/>
        <pt x="134" y="482" on="1"/>
        <pt x="163" y="482" on="0"/>
        <pt x="196" y="468" on="1"/>
        <pt x="289" y="429" on="1"/>
        <pt x="315" y="417" on="0"/>
        <pt x="335" y="417" on="1"/>
        <pt x="353" y="417" on="0"/>
        <pt x="373" y="437" on="0"/>
        <pt x="373" y="457" on="1"/>
        <pt x="373" y="462" on="0"/>
        <pt x="371" y="474" on="1"/>
        <pt x="436" y="474" on="1"/>
      </contour>
      <contour>
        <pt x="437" y="312" on="0"/>
        <pt x="439" y="295" on="0"/>
        <pt x="439" y="283" on="1"/>
        <pt x="439" y="237" on="0"/>
        <pt x="386" y="188" on="0"/>
        <pt x="346" y="188" on="1"/>
        <pt x="317" y="188" on="0"/>
        <pt x="284" y="202" on="1"/>
        <pt x="191" y="241" on="1"/>
        <pt x="166" y="252" on="0"/>
        <pt x="146" y="252" on="1"/>
        <pt x="128" y="252" on="0"/>
        <pt x="107" y="233" on="0"/>
        <pt x="107" y="213" on="1"/>
        <pt x="107" y="209" on="0"/>
        <pt x="109" y="197" on="1"/>
        <pt x="44" y="197" on="1"/>
        <pt x="43" y="200" on="0"/>
        <pt x="41" y="217" on="0"/>
        <pt x="41" y="229" on="1"/>
        <pt x="41" y="275" on="0"/>
        <pt x="94" y="324" on="0"/>
        <pt x="134" y="324" on="1"/>
        <pt x="163" y="324" on="0"/>
        <pt x="196" y="310" on="1"/>
        <pt x="289" y="271" on="1"/>
        <pt x="315" y="259" on="0"/>
        <pt x="335" y="259" on="1"/>
        <pt x="373" y="259" on="0"/>
        <pt x="373" y="298" on="1"/>
        <pt x="373" y="303" on="0"/>
        <pt x="371" y="315" on="1"/>
        <pt x="436" y="315" on="1"/>
      </contour>
    </TTGlyph>
    <TTGlyph name="aring" xMin="30" yMin="-3" xMax="365" yMax="742">
      <component glyphName="a" x="0" y="0" flags="0x0"/>
      <component glyphName="ring" x="34" y="0" flags="0x0"/>
    </TTGlyph>
    <TTGlyph name="asciicircum" xMin="3" yMin="381" xMax="322" yMax="671">
      <contour>
        <pt x="246" y="381" on="1"/>
        <pt x="163" y="628" on="1"/>
        <pt x="79" y="381" on="1"/>
        <pt x="3" y="381" on="1"/>
        <pt x="113" y="671" on="1"/>
        <pt x="213" y="671" on="1"/>
        <pt x="322" y="381" on="1"/>
      </contour>
    </TTGlyph>
    <TTGlyph name="asciitilde" xMin="24" yMin="272" xMax="422" yMax="408">
      <contour>
        <pt x="420" y="397" on="0"/>
        <pt x="422" y="380" on="0"/>
        <pt x="422" y="367" on="1"/>
        <pt x="422" y="321" on="0"/>
        <pt x="369" y="272" on="0"/>
        <pt x="329" y="272" on="1"/>
        <pt x="300" y="272" on="0"/>
        <pt x="267" y="286" on="1"/>
        <pt x="174" y="325" on="1"/>
        <pt x="149" y="336" on="0"/>
        <pt x="129" y="336" on="1"/>
        <pt x="111" y="336" on="0"/>
        <pt x="89" y="316" on="0"/>
        <pt x="89" y="296" on="1"/>
        <pt x="89" y="293" on="0"/>
        <pt x="91" y="281" on="1"/>
        <pt x="26" y="281" on="1"/>
        <pt x="26" y="284" on="0"/>
        <pt x="24" y="301" on="0"/>
        <pt x="24" y="313" on="1"/>
        <pt x="24" y="359" on="0"/>
        <pt x="77" y="408" on="0"/>
        <pt x="117" y="408" on="1"/>
        <pt x="146" y="408" on="0"/>
        <pt x="179" y="394" on="1"/>
        <pt x="272" y="355" on="1"/>
        <pt x="298" y="343" on="0"/>
        <pt x="318" y="343" on="1"/>
        <pt x="356" y="343" on="0"/>
        <pt x="356" y="382" on="1"/>
        <pt x="356" y="387" on="0"/>
        <pt x="354" y="399" on="1"/>
        <pt x="419" y="399" on="1"/>
      </contour>
    </TTGlyph>
    <TTGlyph name="asterisk" xMin="57" yMin="420" xMax="446" yMax="790">
      <contour>
        <pt x="315" y="569" on="0"/>
        <pt x="334" y="542" on="1"/>
        <pt x="393" y="461" on="1"/>
        <pt x="338" y="420" on="1"/>
        <pt x="279" y="501" on="1"/>
        <pt x="259" y="528" on="0"/>
        <pt x="252" y="552" on="1"/>
        <pt x="245" y="528" on="0"/>
        <pt x="225" y="501" on="1"/>
        <pt x="166" y="420" on="1"/>
        <pt x="110" y="461" on="1"/>
        <pt x="169" y="541" on="1"/>
        <pt x="192" y="572" on="0"/>
        <pt x="209" y="583" on="1"/>
        <pt x="182" y="583" on="0"/>
        <pt x="152" y="593" on="1"/>
        <pt x="57" y="624" on="1"/>
        <pt x="78" y="689" on="1"/>
        <pt x="173" y="659" on="1"/>
        <pt x="207" y="648" on="0"/>
        <pt x="225" y="633" on="1"/>
        <pt x="217" y="659" on="0"/>
        <pt x="217" y="690" on="1"/>
        <pt x="217" y="790" on="1"/>
        <pt x="286" y="790" on="1"/>
        <pt x="286" y="690" on="1"/>
        <pt x="286" y="654" on="0"/>
        <pt x="278" y="633" on="1"/>
        <pt x="296" y="648" on="0"/>
        <pt x="330" y="659" on="1"/>
        <pt x="425" y="690" on="1"/>
        <pt x="446" y="624" on="1"/>
        <pt x="352" y="593" on="1"/>
        <pt x="322" y="583" on="0"/>
        <pt x="294" y="583" on="1"/>
      </contour>
    </TTGlyph>
    <TTGlyph name="at" xMin="71" yMin="-115" xMax="800" yMax="666">
      <contour>
        <pt x="570" y="666" on="0"/>
        <pt x="731" y="577" on="0"/>
        <pt x="800" y="409" on="0"/>
        <pt x="800" y="283" on="1"/>
        <pt x="800" y="147" on="0"/>
        <pt x="716" y="26" on="0"/>
        <pt x="636" y="26" on="1"/>
        <pt x="555" y="26" on="0"/>
        <pt x="524" y="76" on="1"/>
        <pt x="481" y="47" on="0"/>
        <pt x="410" y="47" on="1"/>
        <pt x="351" y="47" on="0"/>
        <pt x="289" y="105" on="0"/>
        <pt x="289" y="160" on="1"/>
        <pt x="289" y="176" on="1"/>
        <pt x="289" y="227" on="0"/>
        <pt x="344" y="282" on="0"/>
        <pt x="400" y="300" on="1"/>
        <pt x="504" y="333" on="1"/>
        <pt x="504" y="389" on="1"/>
        <pt x="504" y="421" on="0"/>
        <pt x="474" y="455" on="0"/>
        <pt x="434" y="455" on="1"/>
        <pt x="403" y="455" on="0"/>
        <pt x="350" y="447" on="0"/>
        <pt x="312" y="437" on="1"/>
        <pt x="312" y="497" on="1"/>
        <pt x="376" y="513" on="0"/>
        <pt x="434" y="513" on="1"/>
        <pt x="503" y="513" on="0"/>
        <pt x="569" y="449" on="0"/>
        <pt x="569" y="391" on="1"/>
        <pt x="569" y="164" on="1"/>
        <pt x="569" y="123" on="0"/>
        <pt x="603" y="87" on="0"/>
        <pt x="639" y="87" on="1"/>
        <pt x="684" y="87" on="0"/>
        <pt x="731" y="175" on="0"/>
        <pt x="731" y="283" on="1"/>
        <pt x="731" y="391" on="0"/>
        <pt x="679" y="530" on="0"/>
        <pt x="550" y="603" on="0"/>
        <pt x="436" y="603" on="1"/>
        <pt x="323" y="603" on="0"/>
        <pt x="193" y="525" on="0"/>
        <pt x="141" y="383" on="0"/>
        <pt x="141" y="275" on="1"/>
        <pt x="141" y="168" on="0"/>
        <pt x="193" y="25" on="0"/>
        <pt x="323" y="-52" on="0"/>
        <pt x="436" y="-52" on="1"/>
        <pt x="522" y="-52" on="1"/>
        <pt x="522" y="-115" on="1"/>
        <pt x="435" y="-115" on="1"/>
        <pt x="238" y="-115" on="0"/>
        <pt x="71" y="84" on="0"/>
        <pt x="71" y="275" on="1"/>
        <pt x="71" y="465" on="0"/>
        <pt x="241" y="666" on="0"/>
        <pt x="436" y="666" on="1"/>
      </contour>
      <contour>
        <pt x="504" y="272" on="1"/>
        <pt x="421" y="247" on="1"/>
        <pt x="386" y="236" on="0"/>
        <pt x="357" y="209" on="0"/>
        <pt x="357" y="177" on="1"/>
        <pt x="357" y="160" on="1"/>
        <pt x="357" y="130" on="0"/>
        <pt x="388" y="104" on="0"/>
        <pt x="419" y="104" on="1"/>
        <pt x="443" y="104" on="0"/>
        <pt x="480" y="116" on="0"/>
        <pt x="501" y="128" on="0"/>
        <pt x="504" y="130" on="1"/>
      </contour>
    </TTGlyph>
    <TTGlyph name="atilde" xMin="30" yMin="-3" xMax="365" yMax="715">
      <component glyphName="a" x="0" y="0" flags="0x0"/>
      <component glyphName="tilde" x="37" y="0" flags="0x0"/>
    </TTGlyph>
    <TTGlyph name="b" xMin="66" yMin="0" xMax="392" yMax="723">
      <contour>
        <pt x="145" y="550" on="1"/>
        <pt x="206" y="574" on="0"/>
        <pt x="260" y="574" on="1"/>
        <pt x="321" y="574" on="0"/>
        <pt x="392" y="505" on="0"/>
        <pt x="392" y="442" on="1"/>
        <pt x="392" y="148" on="1"/>
        <pt x="392" y="76" on="0"/>
        <pt x="312" y="0" on="0"/>
        <pt x="244" y="0" on="1"/>
        <pt x="66" y="0" on="1"/>
        <pt x="66" y="723" on="1"/>
        <pt x="145" y="723" on="1"/>
      </contour>
      <contour>
        <pt x="313" y="500" on="0"/>
        <pt x="244" y="500" on="1"/>
        <pt x="203" y="500" on="0"/>
        <pt x="145" y="477" on="1"/>
        <pt x="145" y="72" on="1"/>
        <pt x="225" y="72" on="1"/>
        <pt x="313" y="72" on="0"/>
        <pt x="313" y="155" on="1"/>
        <pt x="313" y="431" on="1"/>
      </contour>
    </TTGlyph>
    <TTGlyph name="backslash" xMin="33" yMin="-138" xMax="374" yMax="794">
      <contour>
        <pt x="374" y="-138" on="1"/>
        <pt x="303" y="-138" on="1"/>
        <pt x="33" y="794" on="1"/>
        <pt x="104" y="794" on="1"/>
      </contour>
    </TTGlyph>
    <TTGlyph name="bar" xMin="75" yMin="-154" xMax="134" yMax="811">
      <contour>
        <pt x="134" y="-154" on="1"/>
        <pt x="75" y="-154" on="1"/>
        <pt x="75" y="811" on="1"/>
        <pt x="134" y="811" on="1"/>
      </contour>
    </TTGlyph>
    <TTGlyph name="braceleft" xMin="58" yMin="-137" xMax="301" yMax="789">
      <contour>
        <pt x="206" y="395" on="0"/>
        <pt x="169" y="333" on="0"/>
        <pt x="119" y="326" on="1"/>
        <pt x="169" y="320" on="0"/>
        <pt x="206" y="260" on="0"/>
        <pt x="206" y="201" on="1"/>
        <pt x="206" y="-6" on="1"/>
        <pt x="206" y="-70" on="0"/>
        <pt x="283" y="-70" on="1"/>
        <pt x="301" y="-70" on="1"/>
        <pt x="301" y="-137" on="1"/>
        <pt x="280" y="-137" on="1"/>
        <pt x="212" y="-137" on="0"/>
        <pt x="137" y="-66" on="0"/>
        <pt x="137" y="-4" on="1"/>
        <pt x="137" y="223" on="1"/>
        <pt x="137" y="256" on="0"/>
        <pt x="98" y="293" on="0"/>
        <pt x="61" y="293" on="1"/>
        <pt x="58" y="293" on="1"/>
        <pt x="58" y="360" on="1"/>
        <pt x="61" y="360" on="1"/>
        <pt x="98" y="360" on="0"/>
        <pt x="137" y="396" on="0"/>
        <pt x="137" y="429" on="1"/>
        <pt x="137" y="656" on="1"/>
        <pt x="137" y="718" on="0"/>
        <pt x="212" y="789" on="0"/>
        <pt x="280" y="789" on="1"/>
        <pt x="301" y="789" on="1"/>
        <pt x="301" y="722" on="1"/>
        <pt x="283" y="722" on="1"/>
        <pt x="206" y="722" on="0"/>
        <pt x="206" y="658" on="1"/>
        <pt x="206" y="454" on="1"/>
      </contour>
    </TTGlyph>
    <TTGlyph name="braceright" xMin="54" yMin="-137" xMax="297" yMax="789">
      <contour>
        <pt x="297" y="293" on="1"/>
        <pt x="294" y="293" on="1"/>
        <pt x="258" y="293" on="0"/>
        <pt x="219" y="256" on="0"/>
        <pt x="219" y="223" on="1"/>
        <pt x="219" y="-4" on="1"/>
        <pt x="219" y="-66" on="0"/>
        <pt x="144" y="-137" on="0"/>
        <pt x="76" y="-137" on="1"/>
        <pt x="54" y="-137" on="1"/>
        <pt x="54" y="-70" on="1"/>
        <pt x="72" y="-70" on="1"/>
        <pt x="114" y="-70" on="0"/>
        <pt x="149" y="-37" on="0"/>
        <pt x="149" y="-6" on="1"/>
        <pt x="149" y="201" on="1"/>
        <pt x="149" y="259" on="0"/>
        <pt x="187" y="320" on="0"/>
        <pt x="236" y="326" on="1"/>
        <pt x="187" y="333" on="0"/>
        <pt x="149" y="395" on="0"/>
        <pt x="149" y="454" on="1"/>
        <pt x="149" y="658" on="1"/>
        <pt x="149" y="689" on="0"/>
        <pt x="114" y="722" on="0"/>
        <pt x="72" y="722" on="1"/>
        <pt x="54" y="722" on="1"/>
        <pt x="54" y="789" on="1"/>
        <pt x="76" y="789" on="1"/>
        <pt x="144" y="789" on="0"/>
        <pt x="219" y="718" on="0"/>
        <pt x="219" y="656" on="1"/>
        <pt x="219" y="429" on="1"/>
        <pt x="219" y="396" on="0"/>
        <pt x="258" y="360" on="0"/>
        <pt x="294" y="360" on="1"/>
        <pt x="297" y="360" on="1"/>
      </contour>
    </TTGlyph>
    <TTGlyph name="bracketleft" xMin="82" yMin="-138" xMax="272" yMax="794">
      <contour>
        <pt x="272" y="-76" on="1"/>
        <pt x="272" y="-138" on="1"/>
        <pt x="82" y="-138" on="1"/>
        <pt x="82" y="794" on="1"/>
        <pt x="272" y="794" on="1"/>
        <pt x="272" y="732" on="1"/>
        <pt x="149" y="732" on="1"/>
        <pt x="149" y="-76" on="1"/>
      </contour>
    </TTGlyph>
    <TTGlyph name="bracketright" xMin="31" yMin="-138" xMax="221" yMax="794">
      <contour>
        <pt x="221" y="794" on="1"/>
        <pt x="221" y="-138" on="1"/>
        <pt x="31" y="-138" on="1"/>
        <pt x="31" y="-76" on="1"/>
        <pt x="154" y="-76" on="1"/>
        <pt x="154" y="732" on="1"/>
        <pt x="31" y="732" on="1"/>
        <pt x="31" y="794" on="1"/>
      </contour>
    </TTGlyph>
    <TTGlyph name="breve" xMin="64" yMin="615" xMax="286" yMax="723">
      <contour>
        <pt x="284" y="675" on="0"/>
        <pt x="225" y="615" on="0"/>
        <pt x="175" y="615" on="1"/>
        <pt x="125" y="615" on="0"/>
        <pt x="66" y="676" on="0"/>
        <pt x="64" y="723" on="1"/>
        <pt x="117" y="723" on="1"/>
        <pt x="118" y="695" on="0"/>
        <pt x="148" y="663" on="0"/>
        <pt x="175" y="663" on="1"/>
        <pt x="202" y="663" on="0"/>
        <pt x="232" y="695" on="0"/>
        <pt x="233" y="723" on="1"/>
        <pt x="286" y="723" on="1"/>
      </contour>
    </TTGlyph>
    <TTGlyph name="brokenbar" xMin="75" yMin="-154" xMax="134" yMax="811">
      <contour>
        <pt x="134" y="432" on="1"/>
        <pt x="75" y="432" on="1"/>
        <pt x="75" y="811" on="1"/>
        <pt x="134" y="811" on="1"/>
      </contour>
      <contour>
        <pt x="134" y="-154" on="1"/>
        <pt x="75" y="-154" on="1"/>
        <pt x="75" y="225" on="1"/>
        <pt x="134" y="225" on="1"/>
      </contour>
    </TTGlyph>
    <TTGlyph name="bullet" xMin="58" yMin="252" xMax="208" yMax="402">
      <contour>
        <pt x="58" y="361" on="0"/>
        <pt x="93" y="402" on="0"/>
        <pt x="133" y="402" on="1"/>
        <pt x="173" y="402" on="0"/>
        <pt x="208" y="361" on="0"/>
        <pt x="208" y="327" on="1"/>
        <pt x="208" y="252" on="0"/>
        <pt x="133" y="252" on="1"/>
        <pt x="58" y="252" on="0"/>
        <pt x="58" y="327" on="1"/>
      </contour>
    </TTGlyph>
    <TTGlyph name="c" xMin="56" yMin="-5" xMax="337" yMax="576">
      <contour>
        <pt x="56" y="576" on="0"/>
        <pt x="227" y="576" on="1"/>
        <pt x="290" y="576" on="0"/>
        <pt x="335" y="562" on="1"/>
        <pt x="335" y="490" on="1"/>
        <pt x="289" y="503" on="0"/>
        <pt x="235" y="503" on="1"/>
        <pt x="178" y="503" on="0"/>
        <pt x="135" y="466" on="0"/>
        <pt x="135" y="426" on="1"/>
        <pt x="135" y="144" on="1"/>
        <pt x="135" y="104" on="0"/>
        <pt x="178" y="67" on="0"/>
        <pt x="235" y="67" on="1"/>
        <pt x="293" y="67" on="0"/>
        <pt x="337" y="83" on="1"/>
        <pt x="337" y="9" on="1"/>
        <pt x="281" y="-5" on="0"/>
        <pt x="227" y="-5" on="1"/>
        <pt x="139" y="-5" on="0"/>
        <pt x="56" y="69" on="0"/>
        <pt x="56" y="140" on="1"/>
        <pt x="56" y="430" on="1"/>
      </contour>
    </TTGlyph>
    <TTGlyph name="cacute" xMin="56" yMin="-5" xMax="337" yMax="723">
      <component glyphName="c" x="0" y="0" flags="0x0"/>
      <component glyphName="acute" x="81" y="0" flags="0x0"/>
    </TTGlyph>
    <TTGlyph name="caron" xMin="92" yMin="615" xMax="258" yMax="723">
      <contour>
        <pt x="258" y="723" on="1"/>
        <pt x="207" y="615" on="1"/>
        <pt x="143" y="615" on="1"/>
        <pt x="92" y="723" on="1"/>
        <pt x="138" y="723" on="1"/>
        <pt x="175" y="661" on="1"/>
        <pt x="211" y="723" on="1"/>
      </contour>
    </TTGlyph>
    <TTGlyph name="ccaron" xMin="56" yMin="-5" xMax="337" yMax="723">
      <component glyphName="c" x="0" y="0" flags="0x0"/>
      <component glyphName="caron" x="46" y="0" flags="0x0"/>
    </TTGlyph>
    <TTGlyph name="ccedilla" xMin="56" yMin="-182" xMax="337" yMax="576">
      <component glyphName="c" x="0" y="0" flags="0x0"/>
      <component glyphName="cedilla" x="42" y="0" flags="0x0"/>
    </TTGlyph>
    <TTGlyph name="cedilla" xMin="104" yMin="-182" xMax="245" yMax="6">
      <contour>
        <pt x="178" y="-40" on="1"/>
        <pt x="207" y="-42" on="0"/>
        <pt x="245" y="-76" on="0"/>
        <pt x="245" y="-107" on="1"/>
        <pt x="245" y="-143" on="0"/>
        <pt x="194" y="-182" on="0"/>
        <pt x="154" y="-182" on="1"/>
        <pt x="127" y="-182" on="0"/>
        <pt x="104" y="-176" on="1"/>
        <pt x="104" y="-133" on="1"/>
        <pt x="118" y="-140" on="0"/>
        <pt x="146" y="-140" on="1"/>
        <pt x="169" y="-140" on="0"/>
        <pt x="195" y="-122" on="0"/>
        <pt x="195" y="-105" on="1"/>
        <pt x="195" y="-70" on="0"/>
        <pt x="145" y="-70" on="1"/>
        <pt x="132" y="-70" on="1"/>
        <pt x="148" y="6" on="1"/>
        <pt x="188" y="6" on="1"/>
      </contour>
    </TTGlyph>
    <TTGlyph name="cent" xMin="64" yMin="-76" xMax="345" yMax="654">
      <contour>
        <pt x="345" y="9" on="1"/>
        <pt x="299" y="-2" on="0"/>
        <pt x="267" y="-4" on="1"/>
        <pt x="267" y="-76" on="1"/>
        <pt x="195" y="-76" on="1"/>
        <pt x="195" y="-3" on="1"/>
        <pt x="64" y="13" on="0"/>
        <pt x="64" y="140" on="1"/>
        <pt x="64" y="430" on="1"/>
        <pt x="64" y="558" on="0"/>
        <pt x="196" y="574" on="1"/>
        <pt x="196" y="654" on="1"/>
        <pt x="268" y="654" on="1"/>
        <pt x="268" y="575" on="1"/>
        <pt x="308" y="572" on="0"/>
        <pt x="343" y="562" on="1"/>
        <pt x="343" y="490" on="1"/>
        <pt x="297" y="503" on="0"/>
        <pt x="243" y="503" on="1"/>
        <pt x="186" y="503" on="0"/>
        <pt x="143" y="466" on="0"/>
        <pt x="143" y="426" on="1"/>
        <pt x="143" y="144" on="1"/>
        <pt x="143" y="104" on="0"/>
        <pt x="186" y="67" on="0"/>
        <pt x="243" y="67" on="1"/>
        <pt x="301" y="67" on="0"/>
        <pt x="345" y="83" on="1"/>
      </contour>
    </TTGlyph>
    <TTGlyph name="circumflex" xMin="92" yMin="615" xMax="258" yMax="723">
      <contour>
        <pt x="211" y="615" on="1"/>
        <pt x="175" y="677" on="1"/>
        <pt x="138" y="615" on="1"/>
        <pt x="92" y="615" on="1"/>
        <pt x="143" y="723" on="1"/>
        <pt x="207" y="723" on="1"/>
        <pt x="258" y="615" on="1"/>
      </contour>
    </TTGlyph>
    <TTGlyph name="colon" xMin="32" yMin="-6" xMax="127" yMax="442">
      <contour>
        <pt x="32" y="442" on="0"/>
        <pt x="80" y="442" on="1"/>
        <pt x="127" y="442" on="0"/>
        <pt x="127" y="393" on="1"/>
        <pt x="127" y="344" on="0"/>
        <pt x="80" y="344" on="1"/>
        <pt x="54" y="344" on="0"/>
        <pt x="32" y="369" on="0"/>
        <pt x="32" y="393" on="1"/>
      </contour>
      <contour>
        <pt x="32" y="66" on="0"/>
        <pt x="54" y="91" on="0"/>
        <pt x="80" y="91" on="1"/>
        <pt x="127" y="91" on="0"/>
        <pt x="127" y="42" on="1"/>
        <pt x="127" y="-6" on="0"/>
        <pt x="80" y="-6" on="1"/>
        <pt x="32" y="-6" on="0"/>
        <pt x="32" y="42" on="1"/>
      </contour>
    </TTGlyph>
    <TTGlyph name="comma" xMin="7" yMin="-127" xMax="126" yMax="91">
      <contour>
        <pt x="106" y="91" on="0"/>
        <pt x="126" y="73" on="0"/>
        <pt x="126" y="56" on="1"/>
        <pt x="126" y="12" on="0"/>
        <pt x="53" y="-127" on="1"/>
        <pt x="7" y="-127" on="1"/>
        <pt x="49" y="91" on="1"/>
        <pt x="88" y="91" on="1"/>
      </contour>
    </TTGlyph>
    <TTGlyph name="copyright" xMin="46" yMin="0" xMax="643" yMax="652">
      <contour>
        <pt x="46" y="427" on="0"/>
        <pt x="97" y="570" on="0"/>
        <pt x="229" y="652" on="0"/>
        <pt x="345" y="652" on="1"/>
        <pt x="463" y="652" on="0"/>
        <pt x="594" y="571" on="0"/>
        <pt x="643" y="430" on="0"/>
        <pt x="643" y="325" on="1"/>
        <pt x="643" y="171" on="0"/>
        <pt x="510" y="0" on="0"/>
        <pt x="345" y="0" on="1"/>
        <pt x="178" y="0" on="0"/>
        <pt x="46" y="169" on="0"/>
        <pt x="46" y="325" on="1"/>
      </contour>
      <contour>
        <pt x="579" y="415" on="0"/>
        <pt x="547" y="527" on="0"/>
        <pt x="445" y="591" on="0"/>
        <pt x="345" y="591" on="1"/>
        <pt x="245" y="591" on="0"/>
        <pt x="143" y="526" on="0"/>
        <pt x="110" y="414" on="0"/>
        <pt x="110" y="325" on="1"/>
        <pt x="110" y="237" on="0"/>
        <pt x="144" y="125" on="0"/>
        <pt x="247" y="61" on="0"/>
        <pt x="345" y="61" on="1"/>
        <pt x="441" y="61" on="0"/>
        <pt x="544" y="127" on="0"/>
        <pt x="579" y="239" on="0"/>
        <pt x="579" y="325" on="1"/>
      </contour>
      <contour>
        <pt x="226" y="442" on="0"/>
        <pt x="287" y="505" on="0"/>
        <pt x="358" y="505" on="1"/>
        <pt x="400" y="505" on="0"/>
        <pt x="432" y="497" on="1"/>
        <pt x="432" y="438" on="1"/>
        <pt x="398" y="448" on="0"/>
        <pt x="358" y="448" on="1"/>
        <pt x="327" y="448" on="0"/>
        <pt x="297" y="431" on="0"/>
        <pt x="289" y="403" on="0"/>
        <pt x="289" y="380" on="1"/>
        <pt x="289" y="272" on="1"/>
        <pt x="289" y="249" on="0"/>
        <pt x="297" y="221" on="0"/>
        <pt x="327" y="204" on="0"/>
        <pt x="358" y="204" on="1"/>
        <pt x="382" y="204" on="0"/>
        <pt x="413" y="208" on="0"/>
        <pt x="433" y="214" on="1"/>
        <pt x="433" y="154" on="1"/>
        <pt x="428" y="153" on="0"/>
        <pt x="382" y="147" on="0"/>
        <pt x="358" y="147" on="1"/>
        <pt x="287" y="147" on="0"/>
        <pt x="226" y="210" on="0"/>
        <pt x="226" y="271" on="1"/>
        <pt x="226" y="381" on="1"/>
      </contour>
    </TTGlyph>
    <TTGlyph name="currency" xMin="38" yMin="125" xMax="424" yMax="549">
      <contour>
        <pt x="392" y="249" on="0"/>
        <pt x="378" y="218" on="1"/>
        <pt x="423" y="174" on="1"/>
        <pt x="374" y="125" on="1"/>
        <pt x="333" y="165" on="1"/>
        <pt x="295" y="142" on="0"/>
        <pt x="231" y="142" on="1"/>
        <pt x="167" y="142" on="0"/>
        <pt x="129" y="166" on="1"/>
        <pt x="87" y="125" on="1"/>
        <pt x="38" y="174" on="1"/>
        <pt x="84" y="219" on="1"/>
        <pt x="70" y="248" on="0"/>
        <pt x="70" y="295" on="1"/>
        <pt x="70" y="378" on="1"/>
        <pt x="70" y="424" on="0"/>
        <pt x="84" y="455" on="1"/>
        <pt x="38" y="500" on="1"/>
        <pt x="88" y="549" on="1"/>
        <pt x="129" y="508" on="1"/>
        <pt x="167" y="532" on="0"/>
        <pt x="231" y="532" on="1"/>
        <pt x="296" y="532" on="0"/>
        <pt x="333" y="508" on="1"/>
        <pt x="374" y="549" on="1"/>
        <pt x="424" y="500" on="1"/>
        <pt x="378" y="455" on="1"/>
        <pt x="392" y="424" on="0"/>
        <pt x="392" y="378" on="1"/>
        <pt x="392" y="295" on="1"/>
      </contour>
      <contour>
        <pt x="279" y="211" on="0"/>
        <pt x="316" y="253" on="0"/>
        <pt x="316" y="297" on="1"/>
        <pt x="316" y="377" on="1"/>
        <pt x="316" y="421" on="0"/>
        <pt x="279" y="463" on="0"/>
        <pt x="231" y="463" on="1"/>
        <pt x="183" y="463" on="0"/>
        <pt x="146" y="421" on="0"/>
        <pt x="146" y="377" on="1"/>
        <pt x="146" y="297" on="1"/>
        <pt x="146" y="253" on="0"/>
        <pt x="183" y="211" on="0"/>
        <pt x="231" y="211" on="1"/>
      </contour>
    </TTGlyph>
    <TTGlyph name="d" xMin="56" yMin="-3" xMax="382" yMax="723">
      <contour>
        <pt x="382" y="0" on="1"/>
        <pt x="305" y="0" on="1"/>
        <pt x="305" y="34" on="1"/>
        <pt x="261" y="-3" on="0"/>
        <pt x="196" y="-3" on="1"/>
        <pt x="128" y="-3" on="0"/>
        <pt x="56" y="71" on="0"/>
        <pt x="56" y="139" on="1"/>
        <pt x="56" y="418" on="1"/>
        <pt x="56" y="491" on="0"/>
        <pt x="141" y="571" on="0"/>
        <pt x="214" y="571" on="1"/>
        <pt x="303" y="571" on="1"/>
        <pt x="303" y="723" on="1"/>
        <pt x="382" y="723" on="1"/>
      </contour>
      <contour>
        <pt x="226" y="500" on="1"/>
        <pt x="182" y="500" on="0"/>
        <pt x="135" y="458" on="0"/>
        <pt x="135" y="417" on="1"/>
        <pt x="135" y="146" on="1"/>
        <pt x="135" y="68" on="0"/>
        <pt x="211" y="68" on="1"/>
        <pt x="241" y="68" on="0"/>
        <pt x="289" y="86" on="0"/>
        <pt x="303" y="100" on="1"/>
        <pt x="303" y="500" on="1"/>
      </contour>
    </TTGlyph>
    <TTGlyph name="dagger" xMin="45" yMin="-29" xMax="312" yMax="784">
      <contour>
        <pt x="214" y="743" on="0"/>
        <pt x="209" y="658" on="0"/>
        <pt x="208" y="646" on="1"/>
        <pt x="216" y="647" on="0"/>
        <pt x="277" y="652" on="0"/>
        <pt x="312" y="652" on="1"/>
        <pt x="312" y="590" on="1"/>
        <pt x="277" y="590" on="0"/>
        <pt x="216" y="594" on="0"/>
        <pt x="208" y="595" on="1"/>
        <pt x="209" y="583" on="0"/>
        <pt x="214" y="496" on="0"/>
        <pt x="214" y="450" on="1"/>
        <pt x="214" y="-29" on="1"/>
        <pt x="143" y="-29" on="1"/>
        <pt x="143" y="450" on="1"/>
        <pt x="143" y="496" on="0"/>
        <pt x="148" y="583" on="0"/>
        <pt x="149" y="595" on="1"/>
        <pt x="141" y="594" on="0"/>
        <pt x="83" y="590" on="0"/>
        <pt x="45" y="590" on="1"/>
        <pt x="45" y="652" on="1"/>
        <pt x="82" y="652" on="0"/>
        <pt x="141" y="647" on="0"/>
        <pt x="149" y="646" on="1"/>
        <pt x="148" y="658" on="0"/>
        <pt x="143" y="743" on="0"/>
        <pt x="143" y="784" on="1"/>
        <pt x="214" y="784" on="1"/>
      </contour>
    </TTGlyph>
    <TTGlyph name="daggerdbl" xMin="45" yMin="-29" xMax="312" yMax="784">
      <contour>
        <pt x="214" y="743" on="0"/>
        <pt x="209" y="658" on="0"/>
        <pt x="208" y="646" on="1"/>
        <pt x="216" y="647" on="0"/>
        <pt x="275" y="652" on="0"/>
        <pt x="312" y="652" on="1"/>
        <pt x="312" y="590" on="1"/>
        <pt x="274" y="590" on="0"/>
        <pt x="216" y="594" on="0"/>
        <pt x="208" y="595" on="1"/>
        <pt x="210" y="471" on="0"/>
        <pt x="210" y="378" on="1"/>
        <pt x="210" y="287" on="0"/>
        <pt x="208" y="159" on="1"/>
        <pt x="216" y="160" on="0"/>
        <pt x="275" y="165" on="0"/>
        <pt x="312" y="165" on="1"/>
        <pt x="312" y="103" on="1"/>
        <pt x="274" y="103" on="0"/>
        <pt x="216" y="107" on="0"/>
        <pt x="208" y="108" on="1"/>
        <pt x="209" y="99" on="0"/>
        <pt x="214" y="24" on="0"/>
        <pt x="214" y="-29" on="1"/>
        <pt x="143" y="-29" on="1"/>
        <pt x="143" y="24" on="0"/>
        <pt x="148" y="99" on="0"/>
        <pt x="149" y="108" on="1"/>
        <pt x="141" y="107" on="0"/>
        <pt x="82" y="103" on="0"/>
        <pt x="45" y="103" on="1"/>
        <pt x="45" y="165" on="1"/>
        <pt x="83" y="165" on="0"/>
        <pt x="141" y="160" on="0"/>
        <pt x="149" y="159" on="1"/>
        <pt x="148" y="223" on="0"/>
        <pt x="148" y="378" on="1"/>
        <pt x="148" y="533" on="0"/>
        <pt x="149" y="595" on="1"/>
        <pt x="141" y="594" on="0"/>
        <pt x="83" y="590" on="0"/>
        <pt x="45" y="590" on="1"/>
        <pt x="45" y="652" on="1"/>
        <pt x="82" y="652" on="0"/>
        <pt x="141" y="647" on="0"/>
        <pt x="149" y="646" on="1"/>
        <pt x="148" y="658" on="0"/>
        <pt x="143" y="743" on="0"/>
        <pt x="143" y="784" on="1"/>
        <pt x="214" y="784" on="1"/>
      </contour>
    </TTGlyph>
    <TTGlyph name="danda" xMin="147" yMin="0" xMax="219" yMax="652">
      <contour>
        <pt x="219" y="652" on="1"/>
        <pt x="219" y="0" on="1"/>
        <pt x="147" y="0" on="1"/>
        <pt x="147" y="652" on="1"/>
      </contour>
    </TTGlyph>
    <TTGlyph name="dcaron" xMin="56" yMin="-3" xMax="506" yMax="723">
      <contour>
        <pt x="382" y="0" on="1"/>
        <pt x="305" y="0" on="1"/>
        <pt x="305" y="34" on="1"/>
        <pt x="261" y="-3" on="0"/>
        <pt x="196" y="-3" on="1"/>
        <pt x="128" y="-3" on="0"/>
        <pt x="56" y="71" on="0"/>
        <pt x="56" y="139" on="1"/>
        <pt x="56" y="418" on="1"/>
        <pt x="56" y="491" on="0"/>
        <pt x="141" y="571" on="0"/>
        <pt x="214" y="571" on="1"/>
        <pt x="303" y="571" on="1"/>
        <pt x="303" y="723" on="1"/>
        <pt x="382" y="723" on="1"/>
      </contour>
      <contour>
        <pt x="506" y="721" on="0"/>
        <pt x="506" y="695" on="1"/>
        <pt x="506" y="679" on="0"/>
        <pt x="475" y="621" on="0"/>
        <pt x="458" y="596" on="1"/>
        <pt x="422" y="596" on="1"/>
        <pt x="449" y="721" on="1"/>
        <pt x="478" y="721" on="1"/>
      </contour>
      <contour>
        <pt x="226" y="500" on="1"/>
        <pt x="182" y="500" on="0"/>
        <pt x="135" y="458" on="0"/>
        <pt x="135" y="417" on="1"/>
        <pt x="135" y="146" on="1"/>
        <pt x="135" y="68" on="0"/>
        <pt x="211" y="68" on="1"/>
        <pt x="241" y="68" on="0"/>
        <pt x="289" y="86" on="0"/>
        <pt x="303" y="100" on="1"/>
        <pt x="303" y="500" on="1"/>
      </contour>
    </TTGlyph>
    <TTGlyph name="dcroat" xMin="57" yMin="-3" xMax="423" yMax="723">
      <contour>
        <pt x="423" y="628" on="1"/>
        <pt x="383" y="628" on="1"/>
        <pt x="383" y="0" on="1"/>
        <pt x="306" y="0" on="1"/>
        <pt x="306" y="34" on="1"/>
        <pt x="262" y="-3" on="0"/>
        <pt x="197" y="-3" on="1"/>
        <pt x="129" y="-3" on="0"/>
        <pt x="57" y="71" on="0"/>
        <pt x="57" y="139" on="1"/>
        <pt x="57" y="418" on="1"/>
        <pt x="57" y="491" on="0"/>
        <pt x="142" y="571" on="0"/>
        <pt x="215" y="571" on="1"/>
        <pt x="304" y="571" on="1"/>
        <pt x="304" y="628" on="1"/>
        <pt x="179" y="628" on="1"/>
        <pt x="179" y="676" on="1"/>
        <pt x="304" y="676" on="1"/>
        <pt x="304" y="723" on="1"/>
        <pt x="383" y="723" on="1"/>
        <pt x="383" y="676" on="1"/>
        <pt x="423" y="676" on="1"/>
      </contour>
      <contour>
        <pt x="304" y="500" on="1"/>
        <pt x="227" y="500" on="1"/>
        <pt x="183" y="500" on="0"/>
        <pt x="136" y="458" on="0"/>
        <pt x="136" y="417" on="1"/>
        <pt x="136" y="146" on="1"/>
        <pt x="136" y="68" on="0"/>
        <pt x="212" y="68" on="1"/>
        <pt x="242" y="68" on="0"/>
        <pt x="290" y="86" on="0"/>
        <pt x="304" y="100" on="1"/>
      </contour>
    </TTGlyph>
    <TTGlyph name="degree" xMin="51" yMin="505" xMax="331" yMax="801">
      <contour>
        <pt x="51" y="721" on="0"/>
        <pt x="117" y="801" on="0"/>
        <pt x="190" y="801" on="1"/>
        <pt x="264" y="801" on="0"/>
        <pt x="331" y="720" on="0"/>
        <pt x="331" y="653" on="1"/>
        <pt x="331" y="585" on="0"/>
        <pt x="264" y="505" on="0"/>
        <pt x="190" y="505" on="1"/>
        <pt x="117" y="505" on="0"/>
        <pt x="51" y="585" on="0"/>
        <pt x="51" y="653" on="1"/>
      </contour>
      <contour>
        <pt x="267" y="694" on="0"/>
        <pt x="235" y="739" on="0"/>
        <pt x="190" y="739" on="1"/>
        <pt x="146" y="739" on="0"/>
        <pt x="115" y="694" on="0"/>
        <pt x="115" y="652" on="1"/>
        <pt x="115" y="610" on="0"/>
        <pt x="146" y="565" on="0"/>
        <pt x="190" y="565" on="1"/>
        <pt x="235" y="565" on="0"/>
        <pt x="267" y="610" on="0"/>
        <pt x="267" y="652" on="1"/>
      </contour>
    </TTGlyph>
    <TTGlyph name="dieresis" xMin="66" yMin="629" xMax="284" yMax="707">
      <contour>
        <pt x="66" y="707" on="0"/>
        <pt x="106" y="707" on="1"/>
        <pt x="146" y="707" on="0"/>
        <pt x="146" y="668" on="1"/>
        <pt x="146" y="629" on="0"/>
        <pt x="106" y="629" on="1"/>
        <pt x="66" y="629" on="0"/>
        <pt x="66" y="668" on="1"/>
      </contour>
      <contour>
        <pt x="204" y="707" on="0"/>
        <pt x="244" y="707" on="1"/>
        <pt x="284" y="707" on="0"/>
        <pt x="284" y="668" on="1"/>
        <pt x="284" y="629" on="0"/>
        <pt x="244" y="629" on="1"/>
        <pt x="204" y="629" on="0"/>
        <pt x="204" y="668" on="1"/>
      </contour>
    </TTGlyph>
    <TTGlyph name="divide" xMin="40" yMin="106" xMax="402" yMax="539">
      <contour>
        <pt x="178" y="539" on="0"/>
        <pt x="223" y="539" on="1"/>
        <pt x="268" y="539" on="0"/>
        <pt x="268" y="494" on="1"/>
        <pt x="268" y="449" on="0"/>
        <pt x="223" y="449" on="1"/>
        <pt x="178" y="449" on="0"/>
        <pt x="178" y="494" on="1"/>
      </contour>
      <contour>
        <pt x="402" y="291" on="1"/>
        <pt x="40" y="291" on="1"/>
        <pt x="40" y="357" on="1"/>
        <pt x="402" y="357" on="1"/>
      </contour>
      <contour>
        <pt x="178" y="196" on="0"/>
        <pt x="223" y="196" on="1"/>
        <pt x="268" y="196" on="0"/>
        <pt x="268" y="151" on="1"/>
        <pt x="268" y="106" on="0"/>
        <pt x="224" y="106" on="1"/>
        <pt x="200" y="106" on="0"/>
        <pt x="178" y="131" on="0"/>
        <pt x="178" y="151" on="1"/>
      </contour>
    </TTGlyph>
    <TTGlyph name="dollar" xMin="27" yMin="-72" xMax="362" yMax="737">
      <contour>
        <pt x="323" y="307" on="0"/>
        <pt x="362" y="244" on="0"/>
        <pt x="362" y="197" on="1"/>
        <pt x="362" y="142" on="1"/>
        <pt x="362" y="82" on="0"/>
        <pt x="292" y="8" on="0"/>
        <pt x="222" y="-2" on="1"/>
        <pt x="222" y="-72" on="1"/>
        <pt x="149" y="-72" on="1"/>
        <pt x="149" y="-5" on="1"/>
        <pt x="114" y="-3" on="0"/>
        <pt x="51" y="8" on="0"/>
        <pt x="33" y="15" on="1"/>
        <pt x="33" y="91" on="1"/>
        <pt x="59" y="81" on="0"/>
        <pt x="132" y="68" on="0"/>
        <pt x="168" y="68" on="1"/>
        <pt x="283" y="68" on="0"/>
        <pt x="283" y="148" on="1"/>
        <pt x="283" y="187" on="1"/>
        <pt x="283" y="219" on="0"/>
        <pt x="260" y="255" on="0"/>
        <pt x="229" y="272" on="1"/>
        <pt x="115" y="335" on="1"/>
        <pt x="71" y="358" on="0"/>
        <pt x="27" y="426" on="0"/>
        <pt x="27" y="476" on="1"/>
        <pt x="27" y="535" on="1"/>
        <pt x="27" y="593" on="0"/>
        <pt x="93" y="666" on="0"/>
        <pt x="158" y="676" on="1"/>
        <pt x="158" y="737" on="1"/>
        <pt x="231" y="737" on="1"/>
        <pt x="231" y="678" on="1"/>
        <pt x="293" y="675" on="0"/>
        <pt x="335" y="662" on="1"/>
        <pt x="335" y="587" on="1"/>
        <pt x="283" y="606" on="0"/>
        <pt x="206" y="606" on="1"/>
        <pt x="107" y="606" on="0"/>
        <pt x="107" y="531" on="1"/>
        <pt x="107" y="486" on="1"/>
        <pt x="107" y="452" on="0"/>
        <pt x="133" y="413" on="0"/>
        <pt x="165" y="395" on="1"/>
        <pt x="281" y="330" on="1"/>
      </contour>
    </TTGlyph>
    <TTGlyph name="dotaccent" xMin="133" yMin="649" xMax="214" yMax="728">
      <contour>
        <pt x="133" y="728" on="0"/>
        <pt x="174" y="728" on="1"/>
        <pt x="214" y="728" on="0"/>
        <pt x="214" y="688" on="1"/>
        <pt x="214" y="670" on="0"/>
        <pt x="195" y="649" on="0"/>
        <pt x="174" y="649" on="1"/>
        <pt x="133" y="649" on="0"/>
        <pt x="133" y="688" on="1"/>
      </contour>
    </TTGlyph>
    <TTGlyph name="dotlessi" xMin="66" yMin="0" xMax="145" yMax="566">
      <contour>
        <pt x="145" y="0" on="1"/>
        <pt x="66" y="0" on="1"/>
        <pt x="66" y="566" on="1"/>
        <pt x="145" y="566" on="1"/>
      </contour>
    </TTGlyph>
    <TTGlyph name="dottedcircle" xMin="44" yMin="30" xMax="616" yMax="604">
      <contour>
        <pt x="257" y="580" on="0"/>
        <pt x="282" y="604" on="0"/>
        <pt x="301" y="604" on="1"/>
        <pt x="321" y="604" on="0"/>
        <pt x="345" y="580" on="0"/>
        <pt x="345" y="560" on="1"/>
        <pt x="345" y="541" on="0"/>
        <pt x="321" y="516" on="0"/>
        <pt x="301" y="516" on="1"/>
        <pt x="282" y="516" on="0"/>
        <pt x="257" y="541" on="0"/>
        <pt x="257" y="560" on="1"/>
      </contour>
      <contour>
        <pt x="383" y="565" on="0"/>
        <pt x="409" y="590" on="0"/>
        <pt x="428" y="590" on="1"/>
        <pt x="447" y="590" on="0"/>
        <pt x="471" y="565" on="0"/>
        <pt x="471" y="545" on="1"/>
        <pt x="471" y="527" on="0"/>
        <pt x="446" y="501" on="0"/>
        <pt x="428" y="501" on="1"/>
        <pt x="409" y="501" on="0"/>
        <pt x="383" y="527" on="0"/>
        <pt x="383" y="545" on="1"/>
      </contour>
      <contour>
        <pt x="139" y="536" on="0"/>
        <pt x="164" y="561" on="0"/>
        <pt x="183" y="561" on="1"/>
        <pt x="202" y="561" on="0"/>
        <pt x="227" y="536" on="0"/>
        <pt x="227" y="517" on="1"/>
        <pt x="227" y="497" on="0"/>
        <pt x="202" y="472" on="0"/>
        <pt x="183" y="472" on="1"/>
        <pt x="164" y="472" on="0"/>
        <pt x="139" y="497" on="0"/>
        <pt x="139" y="517" on="1"/>
      </contour>
      <contour>
        <pt x="478" y="496" on="0"/>
        <pt x="503" y="522" on="0"/>
        <pt x="522" y="522" on="1"/>
        <pt x="541" y="522" on="0"/>
        <pt x="566" y="497" on="0"/>
        <pt x="566" y="477" on="1"/>
        <pt x="566" y="458" on="0"/>
        <pt x="541" y="433" on="0"/>
        <pt x="522" y="433" on="1"/>
        <pt x="503" y="433" on="0"/>
        <pt x="478" y="458" on="0"/>
        <pt x="478" y="477" on="1"/>
      </contour>
      <contour>
        <pt x="57" y="426" on="0"/>
        <pt x="83" y="451" on="0"/>
        <pt x="103" y="451" on="1"/>
        <pt x="121" y="451" on="0"/>
        <pt x="147" y="426" on="0"/>
        <pt x="147" y="407" on="1"/>
        <pt x="147" y="388" on="0"/>
        <pt x="121" y="363" on="0"/>
        <pt x="103" y="363" on="1"/>
        <pt x="83" y="363" on="0"/>
        <pt x="57" y="388" on="0"/>
        <pt x="57" y="407" on="1"/>
      </contour>
      <contour>
        <pt x="528" y="379" on="0"/>
        <pt x="553" y="403" on="0"/>
        <pt x="572" y="403" on="1"/>
        <pt x="591" y="403" on="0"/>
        <pt x="616" y="378" on="0"/>
        <pt x="616" y="359" on="1"/>
        <pt x="616" y="340" on="0"/>
        <pt x="591" y="315" on="0"/>
        <pt x="572" y="315" on="1"/>
        <pt x="553" y="315" on="0"/>
        <pt x="528" y="340" on="0"/>
        <pt x="528" y="359" on="1"/>
      </contour>
      <contour>
        <pt x="44" y="300" on="0"/>
        <pt x="69" y="326" on="0"/>
        <pt x="88" y="326" on="1"/>
        <pt x="107" y="326" on="0"/>
        <pt x="132" y="301" on="0"/>
        <pt x="132" y="281" on="1"/>
        <pt x="132" y="262" on="0"/>
        <pt x="107" y="238" on="0"/>
        <pt x="88" y="238" on="1"/>
        <pt x="69" y="238" on="0"/>
        <pt x="44" y="262" on="0"/>
        <pt x="44" y="281" on="1"/>
      </contour>
      <contour>
        <pt x="518" y="245" on="0"/>
        <pt x="544" y="270" on="0"/>
        <pt x="563" y="270" on="1"/>
        <pt x="581" y="270" on="0"/>
        <pt x="606" y="244" on="0"/>
        <pt x="606" y="225" on="1"/>
        <pt x="606" y="206" on="0"/>
        <pt x="581" y="181" on="0"/>
        <pt x="563" y="181" on="1"/>
        <pt x="544" y="181" on="0"/>
        <pt x="518" y="206" on="0"/>
        <pt x="518" y="225" on="1"/>
      </contour>
      <contour>
        <pt x="96" y="184" on="0"/>
        <pt x="121" y="209" on="0"/>
        <pt x="140" y="209" on="1"/>
        <pt x="159" y="209" on="0"/>
        <pt x="184" y="184" on="0"/>
        <pt x="184" y="165" on="1"/>
        <pt x="184" y="146" on="0"/>
        <pt x="159" y="121" on="0"/>
        <pt x="140" y="121" on="1"/>
        <pt x="121" y="121" on="0"/>
        <pt x="96" y="146" on="0"/>
        <pt x="96" y="165" on="1"/>
      </contour>
      <contour>
        <pt x="445" y="146" on="0"/>
        <pt x="470" y="171" on="0"/>
        <pt x="489" y="171" on="1"/>
        <pt x="508" y="171" on="0"/>
        <pt x="534" y="146" on="0"/>
        <pt x="534" y="127" on="1"/>
        <pt x="534" y="108" on="0"/>
        <pt x="508" y="83" on="0"/>
        <pt x="489" y="83" on="1"/>
        <pt x="470" y="83" on="0"/>
        <pt x="445" y="108" on="0"/>
        <pt x="445" y="127" on="1"/>
      </contour>
      <contour>
        <pt x="197" y="108" on="0"/>
        <pt x="223" y="134" on="0"/>
        <pt x="242" y="134" on="1"/>
        <pt x="261" y="134" on="0"/>
        <pt x="286" y="108" on="0"/>
        <pt x="286" y="90" on="1"/>
        <pt x="286" y="70" on="0"/>
        <pt x="261" y="44" on="0"/>
        <pt x="242" y="44" on="1"/>
        <pt x="223" y="44" on="0"/>
        <pt x="197" y="70" on="0"/>
        <pt x="197" y="90" on="1"/>
      </contour>
      <contour>
        <pt x="324" y="94" on="0"/>
        <pt x="349" y="118" on="0"/>
        <pt x="368" y="118" on="1"/>
        <pt x="388" y="118" on="0"/>
        <pt x="413" y="93" on="0"/>
        <pt x="413" y="74" on="1"/>
        <pt x="413" y="55" on="0"/>
        <pt x="388" y="30" on="0"/>
        <pt x="368" y="30" on="1"/>
        <pt x="349" y="30" on="0"/>
        <pt x="324" y="55" on="0"/>
        <pt x="324" y="74" on="1"/>
      </contour>
    </TTGlyph>
    <TTGlyph name="doubledanda" xMin="105" yMin="0" xMax="376" yMax="652">
      <contour>
        <pt x="177" y="652" on="1"/>
        <pt x="177" y="0" on="1"/>
        <pt x="105" y="0" on="1"/>
        <pt x="105" y="652" on="1"/>
      </contour>
      <contour>
        <pt x="376" y="652" on="1"/>
        <pt x="376" y="0" on="1"/>
        <pt x="304" y="0" on="1"/>
        <pt x="304" y="652" on="1"/>
      </contour>
    </TTGlyph>
    <TTGlyph name="dvA" xMin="37" yMin="0" xMax="592" yMax="657">
      <contour>
        <pt x="592" y="652" on="1"/>
        <pt x="592" y="590" on="1"/>
        <pt x="497" y="590" on="1"/>
        <pt x="497" y="0" on="1"/>
        <pt x="425" y="0" on="1"/>
        <pt x="425" y="213" on="1"/>
        <pt x="312" y="213" on="1"/>
        <pt x="312" y="173" on="1"/>
        <pt x="312" y="107" on="0"/>
        <pt x="230" y="35" on="0"/>
        <pt x="148" y="35" on="1"/>
        <pt x="87" y="35" on="0"/>
        <pt x="37" y="49" on="1"/>
        <pt x="37" y="117" on="1"/>
        <pt x="94" y="101" on="0"/>
        <pt x="148" y="101" on="1"/>
        <pt x="241" y="101" on="0"/>
        <pt x="241" y="175" on="1"/>
        <pt x="241" y="244" on="1"/>
        <pt x="241" y="280" on="0"/>
        <pt x="209" y="318" on="0"/>
        <pt x="161" y="319" on="1"/>
        <pt x="101" y="319" on="1"/>
        <pt x="101" y="386" on="1"/>
        <pt x="161" y="386" on="1"/>
        <pt x="209" y="386" on="0"/>
        <pt x="241" y="423" on="0"/>
        <pt x="241" y="459" on="1"/>
        <pt x="241" y="516" on="1"/>
        <pt x="241" y="590" on="0"/>
        <pt x="148" y="590" on="1"/>
        <pt x="99" y="590" on="0"/>
        <pt x="48" y="573" on="1"/>
        <pt x="48" y="643" on="1"/>
        <pt x="92" y="657" on="0"/>
        <pt x="148" y="657" on="1"/>
        <pt x="230" y="657" on="0"/>
        <pt x="312" y="584" on="0"/>
        <pt x="312" y="518" on="1"/>
        <pt x="312" y="459" on="1"/>
        <pt x="312" y="374" on="0"/>
        <pt x="262" y="352" on="1"/>
        <pt x="301" y="335" on="0"/>
        <pt x="310" y="276" on="1"/>
        <pt x="425" y="276" on="1"/>
        <pt x="425" y="652" on="1"/>
      </contour>
    </TTGlyph>
    <TTGlyph name="dvAA" xMin="58" yMin="0" xMax="824" yMax="657">
      <component glyphName="dvA" x="21" y="0" flags="0x0"/>
      <component glyphName="dvmAA" x="588" y="0" flags="0x0"/>
    </TTGlyph>
    <TTGlyph name="dvAI" xMin="-26" yMin="-5" xMax="454" yMax="881">
      <contour>
        <pt x="454" y="652" on="1"/>
        <pt x="454" y="590" on="1"/>
        <pt x="370" y="590" on="1"/>
        <pt x="370" y="398" on="1"/>
        <pt x="370" y="338" on="0"/>
        <pt x="309" y="269" on="0"/>
        <pt x="242" y="269" on="1"/>
        <pt x="226" y="269" on="0"/>
        <pt x="219" y="270" on="1"/>
        <pt x="219" y="337" on="1"/>
        <pt x="224" y="336" on="0"/>
        <pt x="236" y="336" on="1"/>
        <pt x="271" y="336" on="0"/>
        <pt x="298" y="369" on="0"/>
        <pt x="298" y="400" on="1"/>
        <pt x="298" y="590" on="1"/>
        <pt x="137" y="590" on="1"/>
        <pt x="137" y="134" on="1"/>
        <pt x="137" y="62" on="0"/>
        <pt x="230" y="62" on="1"/>
        <pt x="295" y="62" on="0"/>
        <pt x="352" y="81" on="1"/>
        <pt x="352" y="15" on="1"/>
        <pt x="332" y="7" on="0"/>
        <pt x="266" y="-5" on="0"/>
        <pt x="229" y="-5" on="1"/>
        <pt x="65" y="-5" on="0"/>
        <pt x="65" y="133" on="1"/>
        <pt x="65" y="590" on="1"/>
        <pt x="-26" y="590" on="1"/>
        <pt x="-26" y="652" on="1"/>
        <pt x="293" y="652" on="1"/>
        <pt x="129" y="881" on="1"/>
        <pt x="210" y="881" on="1"/>
        <pt x="367" y="652" on="1"/>
      </contour>
    </TTGlyph>
    <TTGlyph name="dvAU" xMin="58" yMin="0" xMax="824" yMax="881">
      <component glyphName="dvA" x="21" y="0" flags="0x0"/>
      <component glyphName="dvmAU" x="588" y="0" flags="0x0"/>
    </TTGlyph>
    <TTGlyph name="dvAbbreviationsign" xMin="51" yMin="186" xMax="331" yMax="479">
      <contour>
        <pt x="51" y="400" on="0"/>
        <pt x="117" y="479" on="0"/>
        <pt x="190" y="479" on="1"/>
        <pt x="264" y="479" on="0"/>
        <pt x="331" y="400" on="0"/>
        <pt x="331" y="332" on="1"/>
        <pt x="331" y="264" on="0"/>
        <pt x="264" y="186" on="0"/>
        <pt x="190" y="186" on="1"/>
        <pt x="117" y="186" on="0"/>
        <pt x="51" y="264" on="0"/>
        <pt x="51" y="332" on="1"/>
      </contour>
      <contour>
        <pt x="115" y="289" on="0"/>
        <pt x="146" y="246" on="0"/>
        <pt x="190" y="246" on="1"/>
        <pt x="235" y="246" on="0"/>
        <pt x="267" y="289" on="0"/>
        <pt x="267" y="331" on="1"/>
        <pt x="267" y="373" on="0"/>
        <pt x="235" y="418" on="0"/>
        <pt x="190" y="418" on="1"/>
        <pt x="146" y="418" on="0"/>
        <pt x="115" y="373" on="0"/>
        <pt x="115" y="331" on="1"/>
      </contour>
    </TTGlyph>
    <TTGlyph name="dvAcandra" xMin="37" yMin="0" xMax="626" yMax="844">
      <component glyphName="dvA" x="0" y="0" flags="0x0"/>
      <component glyphName="dvmEcandra" x="567" y="0" flags="0x0"/>
    </TTGlyph>
    <TTGlyph name="dvAnusvara" xMin="-151" yMin="727" xMax="-61" yMax="817">
      <contour>
        <pt x="-151" y="817" on="0"/>
        <pt x="-106" y="817" on="1"/>
        <pt x="-61" y="817" on="0"/>
        <pt x="-61" y="772" on="1"/>
        <pt x="-61" y="727" on="0"/>
        <pt x="-106" y="727" on="1"/>
        <pt x="-151" y="727" on="0"/>
        <pt x="-151" y="772" on="1"/>
      </contour>
    </TTGlyph>
    <TTGlyph name="dvAnusvara.amI" xMin="22" yMin="716" xMax="112" yMax="806">
      <component glyphName="dvAnusvara" x="173" y="-11" flags="0x4"/>
    </TTGlyph>
    <TTGlyph name="dvAvagraha" xMin="50" yMin="-5" xMax="385" yMax="652">
      <contour>
        <pt x="385" y="69" on="0"/>
        <pt x="307" y="-5" on="0"/>
        <pt x="222" y="-5" on="1"/>
        <pt x="215" y="-5" on="1"/>
        <pt x="130" y="-5" on="0"/>
        <pt x="52" y="69" on="0"/>
        <pt x="52" y="139" on="1"/>
        <pt x="52" y="204" on="1"/>
        <pt x="124" y="204" on="1"/>
        <pt x="124" y="137" on="1"/>
        <pt x="124" y="102" on="0"/>
        <pt x="163" y="62" on="0"/>
        <pt x="217" y="62" on="1"/>
        <pt x="220" y="62" on="1"/>
        <pt x="274" y="62" on="0"/>
        <pt x="312" y="101" on="0"/>
        <pt x="312" y="137" on="1"/>
        <pt x="312" y="200" on="1"/>
        <pt x="312" y="230" on="0"/>
        <pt x="292" y="270" on="0"/>
        <pt x="264" y="286" on="1"/>
        <pt x="130" y="363" on="1"/>
        <pt x="87" y="387" on="0"/>
        <pt x="50" y="453" on="0"/>
        <pt x="50" y="499" on="1"/>
        <pt x="50" y="526" on="1"/>
        <pt x="50" y="588" on="0"/>
        <pt x="118" y="652" on="0"/>
        <pt x="197" y="652" on="1"/>
        <pt x="361" y="652" on="1"/>
        <pt x="361" y="585" on="1"/>
        <pt x="200" y="585" on="1"/>
        <pt x="152" y="585" on="0"/>
        <pt x="122" y="554" on="0"/>
        <pt x="122" y="524" on="1"/>
        <pt x="122" y="501" on="1"/>
        <pt x="122" y="472" on="0"/>
        <pt x="143" y="433" on="0"/>
        <pt x="171" y="417" on="1"/>
        <pt x="304" y="341" on="1"/>
        <pt x="350" y="314" on="0"/>
        <pt x="385" y="248" on="0"/>
        <pt x="385" y="199" on="1"/>
        <pt x="385" y="139" on="1"/>
      </contour>
    </TTGlyph>
    <TTGlyph name="dvB" xMin="-26" yMin="68" xMax="364" yMax="652">
      <contour>
        <pt x="364" y="590" on="1"/>
        <pt x="-26" y="590" on="1"/>
        <pt x="-26" y="652" on="1"/>
        <pt x="364" y="652" on="1"/>
      </contour>
      <contour>
        <pt x="44" y="437" on="0"/>
        <pt x="120" y="505" on="0"/>
        <pt x="202" y="505" on="1"/>
        <pt x="282" y="505" on="0"/>
        <pt x="358" y="438" on="0"/>
        <pt x="358" y="371" on="1"/>
        <pt x="358" y="202" on="1"/>
        <pt x="358" y="135" on="0"/>
        <pt x="282" y="68" on="0"/>
        <pt x="202" y="68" on="1"/>
        <pt x="44" y="68" on="0"/>
        <pt x="44" y="202" on="1"/>
        <pt x="44" y="371" on="1"/>
      </contour>
      <contour>
        <pt x="291" y="442" on="0"/>
        <pt x="203" y="442" on="1"/>
        <pt x="147" y="442" on="0"/>
        <pt x="126" y="413" on="1"/>
        <pt x="291" y="221" on="1"/>
        <pt x="291" y="368" on="1"/>
      </contour>
      <contour>
        <pt x="114" y="168" on="0"/>
        <pt x="154" y="131" on="0"/>
        <pt x="203" y="131" on="1"/>
        <pt x="262" y="131" on="0"/>
        <pt x="281" y="162" on="1"/>
        <pt x="114" y="357" on="1"/>
        <pt x="114" y="204" on="1"/>
      </contour>
    </TTGlyph>
    <TTGlyph name="dvBA" xMin="-26" yMin="0" xMax="451" yMax="652">
      <contour>
        <pt x="451" y="652" on="1"/>
        <pt x="451" y="590" on="1"/>
        <pt x="356" y="590" on="1"/>
        <pt x="356" y="0" on="1"/>
        <pt x="288" y="0" on="1"/>
        <pt x="288" y="80" on="1"/>
        <pt x="255" y="68" on="0"/>
        <pt x="204" y="68" on="1"/>
        <pt x="126" y="68" on="0"/>
        <pt x="44" y="135" on="0"/>
        <pt x="44" y="202" on="1"/>
        <pt x="44" y="372" on="1"/>
        <pt x="44" y="438" on="0"/>
        <pt x="124" y="505" on="0"/>
        <pt x="202" y="505" on="1"/>
        <pt x="257" y="505" on="0"/>
        <pt x="288" y="492" on="1"/>
        <pt x="288" y="590" on="1"/>
        <pt x="-26" y="590" on="1"/>
        <pt x="-26" y="652" on="1"/>
      </contour>
      <contour>
        <pt x="129" y="442" on="0"/>
        <pt x="116" y="391" on="1"/>
        <pt x="288" y="251" on="1"/>
        <pt x="288" y="429" on="1"/>
        <pt x="257" y="442" on="0"/>
        <pt x="207" y="442" on="1"/>
      </contour>
      <contour>
        <pt x="234" y="131" on="0"/>
        <pt x="268" y="137" on="0"/>
        <pt x="288" y="142" on="1"/>
        <pt x="288" y="192" on="1"/>
        <pt x="114" y="334" on="1"/>
        <pt x="114" y="204" on="1"/>
        <pt x="114" y="131" on="0"/>
        <pt x="207" y="131" on="1"/>
      </contour>
    </TTGlyph>
    <TTGlyph name="dvBH" xMin="46" yMin="60" xMax="492" yMax="657">
      <contour>
        <pt x="326" y="337" on="1"/>
        <pt x="326" y="184" on="1"/>
        <pt x="326" y="123" on="0"/>
        <pt x="259" y="60" on="0"/>
        <pt x="186" y="60" on="1"/>
        <pt x="113" y="60" on="0"/>
        <pt x="46" y="122" on="0"/>
        <pt x="46" y="184" on="1"/>
        <pt x="46" y="278" on="1"/>
        <pt x="46" y="339" on="0"/>
        <pt x="113" y="400" on="0"/>
        <pt x="186" y="400" on="1"/>
        <pt x="256" y="400" on="1"/>
        <pt x="256" y="525" on="1"/>
        <pt x="256" y="558" on="0"/>
        <pt x="228" y="590" on="0"/>
        <pt x="189" y="590" on="1"/>
        <pt x="149" y="590" on="0"/>
        <pt x="122" y="557" on="0"/>
        <pt x="122" y="525" on="1"/>
        <pt x="122" y="511" on="0"/>
        <pt x="126" y="480" on="0"/>
        <pt x="127" y="476" on="1"/>
        <pt x="55" y="476" on="1"/>
        <pt x="54" y="481" on="0"/>
        <pt x="50" y="512" on="0"/>
        <pt x="50" y="527" on="1"/>
        <pt x="50" y="657" on="0"/>
        <pt x="189" y="657" on="1"/>
        <pt x="328" y="657" on="0"/>
        <pt x="328" y="527" on="1"/>
        <pt x="328" y="400" on="1"/>
        <pt x="492" y="400" on="1"/>
        <pt x="492" y="337" on="1"/>
      </contour>
      <contour>
        <pt x="186" y="337" on="1"/>
        <pt x="144" y="337" on="0"/>
        <pt x="116" y="308" on="0"/>
        <pt x="116" y="276" on="1"/>
        <pt x="116" y="186" on="1"/>
        <pt x="116" y="154" on="0"/>
        <pt x="144" y="124" on="0"/>
        <pt x="186" y="124" on="1"/>
        <pt x="228" y="124" on="0"/>
        <pt x="256" y="154" on="0"/>
        <pt x="256" y="186" on="1"/>
        <pt x="256" y="337" on="1"/>
      </contour>
    </TTGlyph>
    <TTGlyph name="dvBHA" xMin="46" yMin="0" xMax="619" yMax="657">
      <contour>
        <pt x="256" y="558" on="0"/>
        <pt x="229" y="590" on="0"/>
        <pt x="189" y="590" on="1"/>
        <pt x="150" y="590" on="0"/>
        <pt x="122" y="557" on="0"/>
        <pt x="122" y="525" on="1"/>
        <pt x="122" y="512" on="0"/>
        <pt x="125" y="481" on="0"/>
        <pt x="126" y="476" on="1"/>
        <pt x="54" y="476" on="1"/>
        <pt x="53" y="481" on="0"/>
        <pt x="50" y="513" on="0"/>
        <pt x="50" y="527" on="1"/>
        <pt x="50" y="657" on="0"/>
        <pt x="189" y="657" on="1"/>
        <pt x="328" y="657" on="0"/>
        <pt x="328" y="527" on="1"/>
        <pt x="328" y="400" on="1"/>
        <pt x="452" y="400" on="1"/>
        <pt x="452" y="652" on="1"/>
        <pt x="619" y="652" on="1"/>
        <pt x="619" y="590" on="1"/>
        <pt x="524" y="590" on="1"/>
        <pt x="524" y="0" on="1"/>
        <pt x="452" y="0" on="1"/>
        <pt x="452" y="337" on="1"/>
        <pt x="326" y="337" on="1"/>
        <pt x="326" y="184" on="1"/>
        <pt x="326" y="122" on="0"/>
        <pt x="259" y="60" on="0"/>
        <pt x="186" y="60" on="1"/>
        <pt x="113" y="60" on="0"/>
        <pt x="46" y="123" on="0"/>
        <pt x="46" y="184" on="1"/>
        <pt x="46" y="278" on="1"/>
        <pt x="46" y="339" on="0"/>
        <pt x="113" y="400" on="0"/>
        <pt x="186" y="400" on="1"/>
        <pt x="256" y="400" on="1"/>
        <pt x="256" y="525" on="1"/>
      </contour>
      <contour>
        <pt x="186" y="337" on="1"/>
        <pt x="144" y="337" on="0"/>
        <pt x="116" y="308" on="0"/>
        <pt x="116" y="276" on="1"/>
        <pt x="116" y="186" on="1"/>
        <pt x="116" y="154" on="0"/>
        <pt x="145" y="124" on="0"/>
        <pt x="186" y="124" on="1"/>
        <pt x="228" y="124" on="0"/>
        <pt x="256" y="154" on="0"/>
        <pt x="256" y="186" on="1"/>
        <pt x="256" y="337" on="1"/>
      </contour>
    </TTGlyph>
    <TTGlyph name="dvBH_LA" xMin="46" yMin="0" xMax="1044" yMax="657">
      <contour>
        <pt x="1044" y="652" on="1"/>
        <pt x="1044" y="590" on="1"/>
        <pt x="949" y="590" on="1"/>
        <pt x="949" y="0" on="1"/>
        <pt x="877" y="0" on="1"/>
        <pt x="877" y="401" on="1"/>
        <pt x="849" y="414" on="0"/>
        <pt x="810" y="414" on="1"/>
        <pt x="770" y="414" on="0"/>
        <pt x="733" y="378" on="0"/>
        <pt x="733" y="348" on="1"/>
        <pt x="733" y="208" on="1"/>
        <pt x="661" y="208" on="1"/>
        <pt x="661" y="348" on="1"/>
        <pt x="661" y="379" on="0"/>
        <pt x="630" y="414" on="0"/>
        <pt x="590" y="414" on="1"/>
        <pt x="548" y="414" on="0"/>
        <pt x="518" y="379" on="0"/>
        <pt x="518" y="346" on="1"/>
        <pt x="518" y="158" on="1"/>
        <pt x="518" y="113" on="0"/>
        <pt x="560" y="65" on="0"/>
        <pt x="617" y="65" on="1"/>
        <pt x="639" y="65" on="0"/>
        <pt x="674" y="70" on="1"/>
        <pt x="674" y="5" on="1"/>
        <pt x="647" y="0" on="0"/>
        <pt x="614" y="0" on="1"/>
        <pt x="527" y="0" on="0"/>
        <pt x="446" y="80" on="0"/>
        <pt x="446" y="156" on="1"/>
        <pt x="446" y="337" on="1"/>
        <pt x="326" y="337" on="1"/>
        <pt x="326" y="184" on="1"/>
        <pt x="326" y="123" on="0"/>
        <pt x="259" y="60" on="0"/>
        <pt x="186" y="60" on="1"/>
        <pt x="113" y="60" on="0"/>
        <pt x="46" y="122" on="0"/>
        <pt x="46" y="184" on="1"/>
        <pt x="46" y="278" on="1"/>
        <pt x="46" y="339" on="0"/>
        <pt x="113" y="400" on="0"/>
        <pt x="186" y="400" on="1"/>
        <pt x="256" y="400" on="1"/>
        <pt x="256" y="525" on="1"/>
        <pt x="256" y="558" on="0"/>
        <pt x="228" y="590" on="0"/>
        <pt x="189" y="590" on="1"/>
        <pt x="149" y="590" on="0"/>
        <pt x="122" y="557" on="0"/>
        <pt x="122" y="525" on="1"/>
        <pt x="122" y="511" on="0"/>
        <pt x="126" y="480" on="0"/>
        <pt x="127" y="476" on="1"/>
        <pt x="55" y="476" on="1"/>
        <pt x="54" y="481" on="0"/>
        <pt x="50" y="512" on="0"/>
        <pt x="50" y="527" on="1"/>
        <pt x="50" y="657" on="0"/>
        <pt x="189" y="657" on="1"/>
        <pt x="328" y="657" on="0"/>
        <pt x="328" y="527" on="1"/>
        <pt x="328" y="400" on="1"/>
        <pt x="454" y="400" on="1"/>
        <pt x="466" y="439" on="0"/>
        <pt x="534" y="481" on="0"/>
        <pt x="588" y="481" on="1"/>
        <pt x="627" y="481" on="0"/>
        <pt x="682" y="456" on="0"/>
        <pt x="696" y="435" on="1"/>
        <pt x="731" y="481" on="0"/>
        <pt x="806" y="481" on="1"/>
        <pt x="846" y="481" on="0"/>
        <pt x="877" y="468" on="1"/>
        <pt x="877" y="590" on="1"/>
        <pt x="386" y="590" on="1"/>
        <pt x="386" y="652" on="1"/>
      </contour>
      <contour>
        <pt x="256" y="337" on="1"/>
        <pt x="186" y="337" on="1"/>
        <pt x="144" y="337" on="0"/>
        <pt x="116" y="308" on="0"/>
        <pt x="116" y="276" on="1"/>
        <pt x="116" y="186" on="1"/>
        <pt x="116" y="154" on="0"/>
        <pt x="144" y="124" on="0"/>
        <pt x="186" y="124" on="1"/>
        <pt x="228" y="124" on="0"/>
        <pt x="256" y="154" on="0"/>
        <pt x="256" y="186" on="1"/>
      </contour>
    </TTGlyph>
    <TTGlyph name="dvBH_NA" xMin="46" yMin="0" xMax="998" yMax="657">
      <contour>
        <pt x="998" y="652" on="1"/>
        <pt x="998" y="590" on="1"/>
        <pt x="903" y="590" on="1"/>
        <pt x="903" y="0" on="1"/>
        <pt x="831" y="0" on="1"/>
        <pt x="831" y="415" on="1"/>
        <pt x="701" y="415" on="1"/>
        <pt x="704" y="410" on="0"/>
        <pt x="712" y="372" on="0"/>
        <pt x="712" y="345" on="1"/>
        <pt x="712" y="186" on="1"/>
        <pt x="712" y="60" on="0"/>
        <pt x="577" y="60" on="1"/>
        <pt x="441" y="60" on="0"/>
        <pt x="441" y="186" on="1"/>
        <pt x="441" y="337" on="1"/>
        <pt x="326" y="337" on="1"/>
        <pt x="326" y="184" on="1"/>
        <pt x="326" y="123" on="0"/>
        <pt x="259" y="60" on="0"/>
        <pt x="186" y="60" on="1"/>
        <pt x="113" y="60" on="0"/>
        <pt x="46" y="122" on="0"/>
        <pt x="46" y="184" on="1"/>
        <pt x="46" y="278" on="1"/>
        <pt x="46" y="339" on="0"/>
        <pt x="113" y="400" on="0"/>
        <pt x="186" y="400" on="1"/>
        <pt x="256" y="400" on="1"/>
        <pt x="256" y="525" on="1"/>
        <pt x="256" y="558" on="0"/>
        <pt x="228" y="590" on="0"/>
        <pt x="189" y="590" on="1"/>
        <pt x="149" y="590" on="0"/>
        <pt x="122" y="557" on="0"/>
        <pt x="122" y="525" on="1"/>
        <pt x="122" y="511" on="0"/>
        <pt x="125" y="480" on="0"/>
        <pt x="126" y="476" on="1"/>
        <pt x="54" y="476" on="1"/>
        <pt x="53" y="480" on="0"/>
        <pt x="50" y="511" on="0"/>
        <pt x="50" y="527" on="1"/>
        <pt x="50" y="657" on="0"/>
        <pt x="189" y="657" on="1"/>
        <pt x="328" y="657" on="0"/>
        <pt x="328" y="527" on="1"/>
        <pt x="328" y="400" on="1"/>
        <pt x="446" y="400" on="1"/>
        <pt x="467" y="480" on="0"/>
        <pt x="577" y="480" on="1"/>
        <pt x="831" y="480" on="1"/>
        <pt x="831" y="590" on="1"/>
        <pt x="388" y="590" on="1"/>
        <pt x="388" y="652" on="1"/>
      </contour>
      <contour>
        <pt x="643" y="344" on="1"/>
        <pt x="643" y="370" on="0"/>
        <pt x="634" y="411" on="0"/>
        <pt x="631" y="415" on="1"/>
        <pt x="577" y="415" on="1"/>
        <pt x="540" y="415" on="0"/>
        <pt x="511" y="385" on="0"/>
        <pt x="511" y="354" on="1"/>
        <pt x="511" y="187" on="1"/>
        <pt x="511" y="156" on="0"/>
        <pt x="540" y="126" on="0"/>
        <pt x="577" y="126" on="1"/>
        <pt x="614" y="126" on="0"/>
        <pt x="643" y="156" on="0"/>
        <pt x="643" y="187" on="1"/>
      </contour>
      <contour>
        <pt x="256" y="337" on="1"/>
        <pt x="186" y="337" on="1"/>
        <pt x="144" y="337" on="0"/>
        <pt x="116" y="308" on="0"/>
        <pt x="116" y="276" on="1"/>
        <pt x="116" y="186" on="1"/>
        <pt x="116" y="154" on="0"/>
        <pt x="144" y="124" on="0"/>
        <pt x="186" y="124" on="1"/>
        <pt x="228" y="124" on="0"/>
        <pt x="256" y="154" on="0"/>
        <pt x="256" y="186" on="1"/>
      </contour>
    </TTGlyph>
    <TTGlyph name="dvBH_R" xMin="51" yMin="-48" xMax="496" yMax="657">
      <contour>
        <pt x="331" y="364" on="1"/>
        <pt x="331" y="253" on="1"/>
        <pt x="331" y="192" on="0"/>
        <pt x="264" y="129" on="0"/>
        <pt x="191" y="129" on="1"/>
        <pt x="118" y="129" on="0"/>
        <pt x="51" y="192" on="0"/>
        <pt x="51" y="253" on="1"/>
        <pt x="51" y="304" on="1"/>
        <pt x="51" y="365" on="0"/>
        <pt x="118" y="427" on="0"/>
        <pt x="191" y="427" on="1"/>
        <pt x="261" y="427" on="1"/>
        <pt x="261" y="525" on="1"/>
        <pt x="261" y="558" on="0"/>
        <pt x="234" y="590" on="0"/>
        <pt x="194" y="590" on="1"/>
        <pt x="155" y="590" on="0"/>
        <pt x="127" y="557" on="0"/>
        <pt x="127" y="525" on="1"/>
        <pt x="127" y="511" on="0"/>
        <pt x="131" y="484" on="0"/>
        <pt x="132" y="480" on="1"/>
        <pt x="59" y="480" on="1"/>
        <pt x="58" y="484" on="0"/>
        <pt x="55" y="513" on="0"/>
        <pt x="55" y="527" on="1"/>
        <pt x="55" y="657" on="0"/>
        <pt x="194" y="657" on="1"/>
        <pt x="333" y="657" on="0"/>
        <pt x="333" y="527" on="1"/>
        <pt x="333" y="427" on="1"/>
        <pt x="496" y="427" on="1"/>
        <pt x="496" y="364" on="1"/>
      </contour>
      <contour>
        <pt x="191" y="364" on="1"/>
        <pt x="149" y="364" on="0"/>
        <pt x="121" y="335" on="0"/>
        <pt x="121" y="303" on="1"/>
        <pt x="121" y="254" on="1"/>
        <pt x="121" y="223" on="0"/>
        <pt x="150" y="193" on="0"/>
        <pt x="191" y="193" on="1"/>
        <pt x="233" y="193" on="0"/>
        <pt x="261" y="222" on="0"/>
        <pt x="261" y="254" on="1"/>
        <pt x="261" y="364" on="1"/>
      </contour>
      <contour>
        <pt x="477" y="175" on="0"/>
        <pt x="411" y="87" on="0"/>
        <pt x="381" y="56" on="1"/>
        <pt x="285" y="-48" on="1"/>
        <pt x="194" y="-48" on="1"/>
        <pt x="496" y="282" on="1"/>
        <pt x="496" y="204" on="1"/>
      </contour>
    </TTGlyph>
    <TTGlyph name="dvBH_RA" xMin="51" yMin="-48" xMax="626" yMax="657">
      <contour>
        <pt x="331" y="364" on="1"/>
        <pt x="331" y="253" on="1"/>
        <pt x="331" y="192" on="0"/>
        <pt x="264" y="129" on="0"/>
        <pt x="191" y="129" on="1"/>
        <pt x="118" y="129" on="0"/>
        <pt x="51" y="192" on="0"/>
        <pt x="51" y="253" on="1"/>
        <pt x="51" y="304" on="1"/>
        <pt x="51" y="365" on="0"/>
        <pt x="118" y="427" on="0"/>
        <pt x="191" y="427" on="1"/>
        <pt x="261" y="427" on="1"/>
        <pt x="261" y="525" on="1"/>
        <pt x="261" y="558" on="0"/>
        <pt x="234" y="590" on="0"/>
        <pt x="194" y="590" on="1"/>
        <pt x="155" y="590" on="0"/>
        <pt x="127" y="557" on="0"/>
        <pt x="127" y="525" on="1"/>
        <pt x="127" y="508" on="0"/>
        <pt x="130" y="483" on="0"/>
        <pt x="131" y="480" on="1"/>
        <pt x="59" y="480" on="1"/>
        <pt x="58" y="484" on="0"/>
        <pt x="55" y="511" on="0"/>
        <pt x="55" y="527" on="1"/>
        <pt x="55" y="657" on="0"/>
        <pt x="194" y="657" on="1"/>
        <pt x="333" y="657" on="0"/>
        <pt x="333" y="527" on="1"/>
        <pt x="333" y="427" on="1"/>
        <pt x="459" y="427" on="1"/>
        <pt x="459" y="652" on="1"/>
        <pt x="626" y="652" on="1"/>
        <pt x="626" y="590" on="1"/>
        <pt x="531" y="590" on="1"/>
        <pt x="531" y="-2" on="1"/>
        <pt x="462" y="-2" on="1"/>
        <pt x="462" y="25" on="1"/>
        <pt x="462" y="122" on="0"/>
        <pt x="467" y="162" on="1"/>
        <pt x="466" y="162" on="1"/>
        <pt x="459" y="139" on="0"/>
        <pt x="379" y="53" on="1"/>
        <pt x="285" y="-48" on="1"/>
        <pt x="194" y="-48" on="1"/>
        <pt x="459" y="240" on="1"/>
        <pt x="459" y="364" on="1"/>
      </contour>
      <contour>
        <pt x="191" y="364" on="1"/>
        <pt x="149" y="364" on="0"/>
        <pt x="121" y="335" on="0"/>
        <pt x="121" y="303" on="1"/>
        <pt x="121" y="254" on="1"/>
        <pt x="121" y="223" on="0"/>
        <pt x="150" y="193" on="0"/>
        <pt x="191" y="193" on="1"/>
        <pt x="233" y="193" on="0"/>
        <pt x="261" y="222" on="0"/>
        <pt x="261" y="254" on="1"/>
        <pt x="261" y="364" on="1"/>
      </contour>
    </TTGlyph>
    <TTGlyph name="dvBH_R_YA" xMin="46" yMin="-48" xMax="924" yMax="657">
      <contour>
        <pt x="924" y="652" on="1"/>
        <pt x="924" y="590" on="1"/>
        <pt x="829" y="590" on="1"/>
        <pt x="829" y="0" on="1"/>
        <pt x="757" y="0" on="1"/>
        <pt x="757" y="121" on="1"/>
        <pt x="724" y="85" on="0"/>
        <pt x="639" y="85" on="1"/>
        <pt x="515" y="85" on="0"/>
        <pt x="473" y="157" on="1"/>
        <pt x="422" y="90" on="0"/>
        <pt x="390" y="56" on="1"/>
        <pt x="294" y="-48" on="1"/>
        <pt x="203" y="-48" on="1"/>
        <pt x="451" y="223" on="1"/>
        <pt x="449" y="245" on="0"/>
        <pt x="449" y="258" on="1"/>
        <pt x="449" y="344" on="1"/>
        <pt x="437" y="353" on="0"/>
        <pt x="409" y="353" on="1"/>
        <pt x="326" y="353" on="1"/>
        <pt x="326" y="252" on="1"/>
        <pt x="326" y="190" on="0"/>
        <pt x="259" y="129" on="0"/>
        <pt x="186" y="129" on="1"/>
        <pt x="113" y="129" on="0"/>
        <pt x="46" y="191" on="0"/>
        <pt x="46" y="252" on="1"/>
        <pt x="46" y="294" on="1"/>
        <pt x="46" y="355" on="0"/>
        <pt x="113" y="416" on="0"/>
        <pt x="186" y="416" on="1"/>
        <pt x="256" y="416" on="1"/>
        <pt x="256" y="525" on="1"/>
        <pt x="256" y="558" on="0"/>
        <pt x="229" y="590" on="0"/>
        <pt x="189" y="590" on="1"/>
        <pt x="150" y="590" on="0"/>
        <pt x="122" y="557" on="0"/>
        <pt x="122" y="525" on="1"/>
        <pt x="123" y="487" on="1"/>
        <pt x="51" y="487" on="1"/>
        <pt x="50" y="527" on="1"/>
        <pt x="50" y="657" on="0"/>
        <pt x="189" y="657" on="1"/>
        <pt x="328" y="657" on="0"/>
        <pt x="328" y="527" on="1"/>
        <pt x="328" y="416" on="1"/>
        <pt x="416" y="416" on="1"/>
        <pt x="476" y="416" on="0"/>
        <pt x="497" y="390" on="1"/>
        <pt x="542" y="392" on="0"/>
        <pt x="577" y="423" on="0"/>
        <pt x="577" y="460" on="1"/>
        <pt x="577" y="523" on="1"/>
        <pt x="577" y="556" on="0"/>
        <pt x="548" y="590" on="0"/>
        <pt x="512" y="590" on="1"/>
        <pt x="386" y="590" on="1"/>
        <pt x="386" y="652" on="1"/>
      </contour>
      <contour>
        <pt x="757" y="590" on="1"/>
        <pt x="623" y="590" on="1"/>
        <pt x="634" y="584" on="0"/>
        <pt x="648" y="550" on="0"/>
        <pt x="648" y="523" on="1"/>
        <pt x="648" y="452" on="1"/>
        <pt x="648" y="336" on="0"/>
        <pt x="520" y="334" on="1"/>
        <pt x="520" y="264" on="1"/>
        <pt x="520" y="206" on="0"/>
        <pt x="575" y="152" on="0"/>
        <pt x="641" y="152" on="1"/>
        <pt x="700" y="152" on="0"/>
        <pt x="752" y="196" on="0"/>
        <pt x="757" y="245" on="1"/>
      </contour>
      <contour>
        <pt x="256" y="354" on="1"/>
        <pt x="186" y="354" on="1"/>
        <pt x="145" y="354" on="0"/>
        <pt x="116" y="324" on="0"/>
        <pt x="116" y="293" on="1"/>
        <pt x="116" y="254" on="1"/>
        <pt x="116" y="223" on="0"/>
        <pt x="145" y="193" on="0"/>
        <pt x="186" y="193" on="1"/>
        <pt x="228" y="193" on="0"/>
        <pt x="256" y="222" on="0"/>
        <pt x="256" y="254" on="1"/>
      </contour>
    </TTGlyph>
    <TTGlyph name="dvBH_VA" xMin="46" yMin="0" xMax="852" yMax="657">
      <contour>
        <pt x="852" y="652" on="1"/>
        <pt x="852" y="590" on="1"/>
        <pt x="757" y="590" on="1"/>
        <pt x="757" y="0" on="1"/>
        <pt x="685" y="0" on="1"/>
        <pt x="685" y="80" on="1"/>
        <pt x="675" y="76" on="0"/>
        <pt x="625" y="68" on="0"/>
        <pt x="596" y="68" on="1"/>
        <pt x="520" y="68" on="0"/>
        <pt x="445" y="137" on="0"/>
        <pt x="445" y="202" on="1"/>
        <pt x="445" y="337" on="1"/>
        <pt x="326" y="337" on="1"/>
        <pt x="326" y="184" on="1"/>
        <pt x="326" y="123" on="0"/>
        <pt x="259" y="60" on="0"/>
        <pt x="186" y="60" on="1"/>
        <pt x="113" y="60" on="0"/>
        <pt x="46" y="122" on="0"/>
        <pt x="46" y="184" on="1"/>
        <pt x="46" y="278" on="1"/>
        <pt x="46" y="339" on="0"/>
        <pt x="113" y="400" on="0"/>
        <pt x="186" y="400" on="1"/>
        <pt x="256" y="400" on="1"/>
        <pt x="256" y="525" on="1"/>
        <pt x="256" y="558" on="0"/>
        <pt x="228" y="590" on="0"/>
        <pt x="189" y="590" on="1"/>
        <pt x="149" y="590" on="0"/>
        <pt x="122" y="557" on="0"/>
        <pt x="122" y="525" on="1"/>
        <pt x="122" y="511" on="0"/>
        <pt x="126" y="480" on="0"/>
        <pt x="127" y="476" on="1"/>
        <pt x="55" y="476" on="1"/>
        <pt x="54" y="481" on="0"/>
        <pt x="50" y="512" on="0"/>
        <pt x="50" y="527" on="1"/>
        <pt x="50" y="657" on="0"/>
        <pt x="189" y="657" on="1"/>
        <pt x="328" y="657" on="0"/>
        <pt x="328" y="527" on="1"/>
        <pt x="328" y="400" on="1"/>
        <pt x="447" y="400" on="1"/>
        <pt x="455" y="450" on="0"/>
        <pt x="531" y="505" on="0"/>
        <pt x="596" y="505" on="1"/>
        <pt x="625" y="505" on="0"/>
        <pt x="675" y="497" on="0"/>
        <pt x="685" y="493" on="1"/>
        <pt x="685" y="590" on="1"/>
        <pt x="390" y="590" on="1"/>
        <pt x="390" y="652" on="1"/>
      </contour>
      <contour>
        <pt x="687" y="430" on="1"/>
        <pt x="677" y="434" on="0"/>
        <pt x="630" y="442" on="0"/>
        <pt x="603" y="442" on="1"/>
        <pt x="558" y="442" on="0"/>
        <pt x="516" y="403" on="0"/>
        <pt x="516" y="370" on="1"/>
        <pt x="516" y="203" on="1"/>
        <pt x="516" y="131" on="0"/>
        <pt x="603" y="131" on="1"/>
        <pt x="630" y="131" on="0"/>
        <pt x="678" y="139" on="0"/>
        <pt x="687" y="143" on="1"/>
      </contour>
      <contour>
        <pt x="256" y="337" on="1"/>
        <pt x="186" y="337" on="1"/>
        <pt x="144" y="337" on="0"/>
        <pt x="116" y="308" on="0"/>
        <pt x="116" y="276" on="1"/>
        <pt x="116" y="186" on="1"/>
        <pt x="116" y="154" on="0"/>
        <pt x="144" y="124" on="0"/>
        <pt x="186" y="124" on="1"/>
        <pt x="228" y="124" on="0"/>
        <pt x="256" y="154" on="0"/>
        <pt x="256" y="186" on="1"/>
      </contour>
    </TTGlyph>
    <TTGlyph name="dvBH_YA" xMin="46" yMin="0" xMax="924" yMax="657">
      <contour>
        <pt x="924" y="652" on="1"/>
        <pt x="924" y="590" on="1"/>
        <pt x="829" y="590" on="1"/>
        <pt x="829" y="0" on="1"/>
        <pt x="757" y="0" on="1"/>
        <pt x="757" y="96" on="1"/>
        <pt x="706" y="85" on="0"/>
        <pt x="649" y="85" on="1"/>
        <pt x="559" y="85" on="0"/>
        <pt x="449" y="166" on="0"/>
        <pt x="449" y="258" on="1"/>
        <pt x="449" y="337" on="1"/>
        <pt x="438" y="348" on="0"/>
        <pt x="407" y="348" on="1"/>
        <pt x="326" y="348" on="1"/>
        <pt x="326" y="184" on="1"/>
        <pt x="326" y="122" on="0"/>
        <pt x="259" y="60" on="0"/>
        <pt x="186" y="60" on="1"/>
        <pt x="113" y="60" on="0"/>
        <pt x="46" y="123" on="0"/>
        <pt x="46" y="184" on="1"/>
        <pt x="46" y="288" on="1"/>
        <pt x="46" y="350" on="0"/>
        <pt x="113" y="410" on="0"/>
        <pt x="186" y="410" on="1"/>
        <pt x="256" y="410" on="1"/>
        <pt x="256" y="525" on="1"/>
        <pt x="256" y="558" on="0"/>
        <pt x="229" y="590" on="0"/>
        <pt x="189" y="590" on="1"/>
        <pt x="150" y="590" on="0"/>
        <pt x="122" y="557" on="0"/>
        <pt x="122" y="525" on="1"/>
        <pt x="122" y="511" on="0"/>
        <pt x="126" y="480" on="0"/>
        <pt x="127" y="476" on="1"/>
        <pt x="55" y="476" on="1"/>
        <pt x="54" y="481" on="0"/>
        <pt x="50" y="513" on="0"/>
        <pt x="50" y="527" on="1"/>
        <pt x="50" y="657" on="0"/>
        <pt x="189" y="657" on="1"/>
        <pt x="328" y="657" on="0"/>
        <pt x="328" y="527" on="1"/>
        <pt x="328" y="410" on="1"/>
        <pt x="414" y="410" on="1"/>
        <pt x="473" y="410" on="0"/>
        <pt x="494" y="386" on="1"/>
        <pt x="541" y="388" on="0"/>
        <pt x="577" y="418" on="0"/>
        <pt x="577" y="457" on="1"/>
        <pt x="577" y="523" on="1"/>
        <pt x="577" y="542" on="0"/>
        <pt x="573" y="573" on="0"/>
        <pt x="570" y="588" on="0"/>
        <pt x="569" y="590" on="1"/>
        <pt x="386" y="590" on="1"/>
        <pt x="386" y="652" on="1"/>
      </contour>
      <contour>
        <pt x="757" y="590" on="1"/>
        <pt x="640" y="590" on="1"/>
        <pt x="641" y="588" on="0"/>
        <pt x="644" y="573" on="0"/>
        <pt x="648" y="542" on="0"/>
        <pt x="648" y="523" on="1"/>
        <pt x="648" y="449" on="1"/>
        <pt x="648" y="332" on="0"/>
        <pt x="520" y="330" on="1"/>
        <pt x="520" y="264" on="1"/>
        <pt x="520" y="207" on="0"/>
        <pt x="583" y="152" on="0"/>
        <pt x="651" y="152" on="1"/>
        <pt x="702" y="152" on="0"/>
        <pt x="757" y="163" on="1"/>
      </contour>
      <contour>
        <pt x="256" y="348" on="1"/>
        <pt x="186" y="348" on="1"/>
        <pt x="144" y="348" on="0"/>
        <pt x="116" y="319" on="0"/>
        <pt x="116" y="287" on="1"/>
        <pt x="116" y="186" on="1"/>
        <pt x="116" y="154" on="0"/>
        <pt x="145" y="124" on="0"/>
        <pt x="186" y="124" on="1"/>
        <pt x="228" y="124" on="0"/>
        <pt x="256" y="154" on="0"/>
        <pt x="256" y="186" on="1"/>
      </contour>
    </TTGlyph>
    <TTGlyph name="dvB_BA" xMin="-26" yMin="0" xMax="700" yMax="652">
      <contour>
        <pt x="700" y="590" on="1"/>
        <pt x="605" y="590" on="1"/>
        <pt x="605" y="0" on="1"/>
        <pt x="537" y="0" on="1"/>
        <pt x="537" y="80" on="1"/>
        <pt x="504" y="68" on="0"/>
        <pt x="453" y="68" on="1"/>
        <pt x="366" y="68" on="0"/>
        <pt x="325" y="110" on="1"/>
        <pt x="288" y="68" on="0"/>
        <pt x="203" y="68" on="1"/>
        <pt x="44" y="68" on="0"/>
        <pt x="44" y="202" on="1"/>
        <pt x="44" y="371" on="1"/>
        <pt x="44" y="437" on="0"/>
        <pt x="119" y="505" on="0"/>
        <pt x="199" y="505" on="1"/>
        <pt x="214" y="505" on="0"/>
        <pt x="240" y="502" on="0"/>
        <pt x="244" y="501" on="1"/>
        <pt x="244" y="438" on="1"/>
        <pt x="241" y="439" on="0"/>
        <pt x="217" y="442" on="0"/>
        <pt x="203" y="442" on="1"/>
        <pt x="161" y="442" on="0"/>
        <pt x="121" y="415" on="0"/>
        <pt x="116" y="390" on="1"/>
        <pt x="293" y="251" on="1"/>
        <pt x="293" y="372" on="1"/>
        <pt x="293" y="438" on="0"/>
        <pt x="373" y="505" on="0"/>
        <pt x="451" y="505" on="1"/>
        <pt x="506" y="505" on="0"/>
        <pt x="537" y="492" on="1"/>
        <pt x="537" y="590" on="1"/>
        <pt x="-26" y="590" on="1"/>
        <pt x="-26" y="652" on="1"/>
        <pt x="700" y="652" on="1"/>
      </contour>
      <contour>
        <pt x="378" y="442" on="0"/>
        <pt x="365" y="391" on="1"/>
        <pt x="537" y="251" on="1"/>
        <pt x="537" y="429" on="1"/>
        <pt x="506" y="442" on="0"/>
        <pt x="456" y="442" on="1"/>
      </contour>
      <contour>
        <pt x="483" y="131" on="0"/>
        <pt x="517" y="137" on="0"/>
        <pt x="537" y="142" on="1"/>
        <pt x="537" y="192" on="1"/>
        <pt x="363" y="334" on="1"/>
        <pt x="363" y="204" on="1"/>
        <pt x="363" y="131" on="0"/>
        <pt x="456" y="131" on="1"/>
      </contour>
      <contour>
        <pt x="248" y="131" on="0"/>
        <pt x="290" y="161" on="0"/>
        <pt x="293" y="191" on="1"/>
        <pt x="293" y="192" on="1"/>
        <pt x="114" y="332" on="1"/>
        <pt x="114" y="204" on="1"/>
        <pt x="114" y="168" on="0"/>
        <pt x="154" y="131" on="0"/>
        <pt x="204" y="131" on="1"/>
      </contour>
    </TTGlyph>
    <TTGlyph name="dvB_BHA" xMin="-26" yMin="0" xMax="864" yMax="657">
      <contour>
        <pt x="864" y="652" on="1"/>
        <pt x="864" y="590" on="1"/>
        <pt x="769" y="590" on="1"/>
        <pt x="769" y="0" on="1"/>
        <pt x="697" y="0" on="1"/>
        <pt x="697" y="337" on="1"/>
        <pt x="571" y="337" on="1"/>
        <pt x="571" y="184" on="1"/>
        <pt x="571" y="122" on="0"/>
        <pt x="504" y="60" on="0"/>
        <pt x="431" y="60" on="1"/>
        <pt x="348" y="60" on="0"/>
        <pt x="315" y="102" on="1"/>
        <pt x="278" y="68" on="0"/>
        <pt x="202" y="68" on="1"/>
        <pt x="44" y="68" on="0"/>
        <pt x="44" y="202" on="1"/>
        <pt x="44" y="371" on="1"/>
        <pt x="44" y="437" on="0"/>
        <pt x="119" y="505" on="0"/>
        <pt x="199" y="505" on="1"/>
        <pt x="214" y="505" on="0"/>
        <pt x="240" y="502" on="0"/>
        <pt x="244" y="501" on="1"/>
        <pt x="244" y="438" on="1"/>
        <pt x="241" y="439" on="0"/>
        <pt x="217" y="442" on="0"/>
        <pt x="203" y="442" on="1"/>
        <pt x="161" y="442" on="0"/>
        <pt x="121" y="415" on="0"/>
        <pt x="116" y="390" on="1"/>
        <pt x="291" y="253" on="1"/>
        <pt x="291" y="278" on="1"/>
        <pt x="291" y="339" on="0"/>
        <pt x="358" y="400" on="0"/>
        <pt x="431" y="400" on="1"/>
        <pt x="501" y="400" on="1"/>
        <pt x="501" y="525" on="1"/>
        <pt x="501" y="558" on="0"/>
        <pt x="474" y="590" on="0"/>
        <pt x="434" y="590" on="1"/>
        <pt x="395" y="590" on="0"/>
        <pt x="367" y="557" on="0"/>
        <pt x="367" y="525" on="1"/>
        <pt x="367" y="513" on="0"/>
        <pt x="370" y="481" on="0"/>
        <pt x="371" y="476" on="1"/>
        <pt x="299" y="476" on="1"/>
        <pt x="298" y="481" on="0"/>
        <pt x="295" y="512" on="0"/>
        <pt x="295" y="527" on="1"/>
        <pt x="295" y="657" on="0"/>
        <pt x="434" y="657" on="1"/>
        <pt x="573" y="657" on="0"/>
        <pt x="573" y="527" on="1"/>
        <pt x="573" y="400" on="1"/>
        <pt x="697" y="400" on="1"/>
        <pt x="697" y="652" on="1"/>
      </contour>
      <contour>
        <pt x="240" y="590" on="1"/>
        <pt x="-26" y="590" on="1"/>
        <pt x="-26" y="652" on="1"/>
        <pt x="240" y="652" on="1"/>
      </contour>
      <contour>
        <pt x="501" y="337" on="1"/>
        <pt x="431" y="337" on="1"/>
        <pt x="389" y="337" on="0"/>
        <pt x="361" y="308" on="0"/>
        <pt x="361" y="276" on="1"/>
        <pt x="361" y="186" on="1"/>
        <pt x="361" y="154" on="0"/>
        <pt x="390" y="124" on="0"/>
        <pt x="431" y="124" on="1"/>
        <pt x="473" y="124" on="0"/>
        <pt x="501" y="154" on="0"/>
        <pt x="501" y="186" on="1"/>
      </contour>
      <contour>
        <pt x="247" y="131" on="0"/>
        <pt x="288" y="162" on="0"/>
        <pt x="291" y="194" on="1"/>
        <pt x="114" y="332" on="1"/>
        <pt x="114" y="204" on="1"/>
        <pt x="114" y="168" on="0"/>
        <pt x="154" y="131" on="0"/>
        <pt x="203" y="131" on="1"/>
      </contour>
    </TTGlyph>
    <TTGlyph name="dvB_BH_RA" xMin="-25" yMin="-48" xMax="866" yMax="657">
      <contour>
        <pt x="866" y="652" on="1"/>
        <pt x="866" y="590" on="1"/>
        <pt x="771" y="590" on="1"/>
        <pt x="771" y="-2" on="1"/>
        <pt x="702" y="-2" on="1"/>
        <pt x="702" y="25" on="1"/>
        <pt x="702" y="122" on="0"/>
        <pt x="707" y="162" on="1"/>
        <pt x="706" y="162" on="1"/>
        <pt x="699" y="139" on="0"/>
        <pt x="619" y="53" on="1"/>
        <pt x="525" y="-48" on="1"/>
        <pt x="434" y="-48" on="1"/>
        <pt x="699" y="240" on="1"/>
        <pt x="699" y="364" on="1"/>
        <pt x="571" y="364" on="1"/>
        <pt x="571" y="253" on="1"/>
        <pt x="571" y="192" on="0"/>
        <pt x="504" y="129" on="0"/>
        <pt x="431" y="129" on="1"/>
        <pt x="377" y="129" on="0"/>
        <pt x="344" y="147" on="1"/>
        <pt x="317" y="68" on="0"/>
        <pt x="202" y="68" on="1"/>
        <pt x="44" y="68" on="0"/>
        <pt x="44" y="202" on="1"/>
        <pt x="44" y="371" on="1"/>
        <pt x="44" y="437" on="0"/>
        <pt x="119" y="505" on="0"/>
        <pt x="199" y="505" on="1"/>
        <pt x="214" y="505" on="0"/>
        <pt x="240" y="502" on="0"/>
        <pt x="244" y="501" on="1"/>
        <pt x="244" y="438" on="1"/>
        <pt x="241" y="439" on="0"/>
        <pt x="217" y="442" on="0"/>
        <pt x="203" y="442" on="1"/>
        <pt x="161" y="442" on="0"/>
        <pt x="121" y="415" on="0"/>
        <pt x="116" y="390" on="1"/>
        <pt x="291" y="253" on="1"/>
        <pt x="291" y="304" on="1"/>
        <pt x="291" y="365" on="0"/>
        <pt x="358" y="427" on="0"/>
        <pt x="431" y="427" on="1"/>
        <pt x="501" y="427" on="1"/>
        <pt x="501" y="525" on="1"/>
        <pt x="501" y="558" on="0"/>
        <pt x="474" y="590" on="0"/>
        <pt x="434" y="590" on="1"/>
        <pt x="395" y="590" on="0"/>
        <pt x="367" y="557" on="0"/>
        <pt x="367" y="525" on="1"/>
        <pt x="367" y="508" on="0"/>
        <pt x="370" y="483" on="0"/>
        <pt x="371" y="480" on="1"/>
        <pt x="299" y="480" on="1"/>
        <pt x="298" y="484" on="0"/>
        <pt x="295" y="511" on="0"/>
        <pt x="295" y="527" on="1"/>
        <pt x="295" y="657" on="0"/>
        <pt x="434" y="657" on="1"/>
        <pt x="573" y="657" on="0"/>
        <pt x="573" y="527" on="1"/>
        <pt x="573" y="427" on="1"/>
        <pt x="699" y="427" on="1"/>
        <pt x="699" y="652" on="1"/>
      </contour>
      <contour>
        <pt x="244" y="590" on="1"/>
        <pt x="-25" y="590" on="1"/>
        <pt x="-25" y="652" on="1"/>
        <pt x="244" y="652" on="1"/>
      </contour>
      <contour>
        <pt x="501" y="364" on="1"/>
        <pt x="431" y="364" on="1"/>
        <pt x="389" y="364" on="0"/>
        <pt x="361" y="335" on="0"/>
        <pt x="361" y="303" on="1"/>
        <pt x="361" y="254" on="1"/>
        <pt x="361" y="223" on="0"/>
        <pt x="390" y="193" on="0"/>
        <pt x="431" y="193" on="1"/>
        <pt x="473" y="193" on="0"/>
        <pt x="501" y="222" on="0"/>
        <pt x="501" y="254" on="1"/>
      </contour>
      <contour>
        <pt x="247" y="131" on="0"/>
        <pt x="288" y="162" on="0"/>
        <pt x="291" y="194" on="1"/>
        <pt x="114" y="332" on="1"/>
        <pt x="114" y="204" on="1"/>
        <pt x="114" y="168" on="0"/>
        <pt x="154" y="131" on="0"/>
        <pt x="203" y="131" on="1"/>
      </contour>
    </TTGlyph>
    <TTGlyph name="dvB_DA" xMin="-26" yMin="-7" xMax="680" yMax="652">
      <contour>
        <pt x="397" y="435" on="0"/>
        <pt x="362" y="403" on="0"/>
        <pt x="362" y="371" on="1"/>
        <pt x="362" y="208" on="1"/>
        <pt x="362" y="138" on="0"/>
        <pt x="451" y="138" on="1"/>
        <pt x="487" y="138" on="0"/>
        <pt x="529" y="146" on="1"/>
        <pt x="529" y="242" on="1"/>
        <pt x="599" y="242" on="1"/>
        <pt x="599" y="-7" on="1"/>
        <pt x="529" y="-7" on="1"/>
        <pt x="529" y="81" on="1"/>
        <pt x="492" y="72" on="0"/>
        <pt x="445" y="72" on="1"/>
        <pt x="367" y="72" on="0"/>
        <pt x="325" y="112" on="1"/>
        <pt x="290" y="68" on="0"/>
        <pt x="203" y="68" on="1"/>
        <pt x="44" y="68" on="0"/>
        <pt x="44" y="202" on="1"/>
        <pt x="44" y="371" on="1"/>
        <pt x="44" y="437" on="0"/>
        <pt x="119" y="505" on="0"/>
        <pt x="199" y="505" on="1"/>
        <pt x="214" y="505" on="0"/>
        <pt x="240" y="502" on="0"/>
        <pt x="244" y="501" on="1"/>
        <pt x="244" y="438" on="1"/>
        <pt x="241" y="439" on="0"/>
        <pt x="217" y="442" on="0"/>
        <pt x="203" y="442" on="1"/>
        <pt x="161" y="442" on="0"/>
        <pt x="121" y="415" on="0"/>
        <pt x="116" y="390" on="1"/>
        <pt x="290" y="253" on="1"/>
        <pt x="290" y="372" on="1"/>
        <pt x="290" y="438" on="0"/>
        <pt x="365" y="501" on="0"/>
        <pt x="442" y="501" on="1"/>
        <pt x="512" y="501" on="1"/>
        <pt x="512" y="590" on="1"/>
        <pt x="-26" y="590" on="1"/>
        <pt x="-26" y="652" on="1"/>
        <pt x="680" y="652" on="1"/>
        <pt x="680" y="590" on="1"/>
        <pt x="584" y="590" on="1"/>
        <pt x="584" y="435" on="1"/>
        <pt x="442" y="435" on="1"/>
      </contour>
      <contour>
        <pt x="281" y="131" on="0"/>
        <pt x="292" y="181" on="1"/>
        <pt x="290" y="194" on="1"/>
        <pt x="114" y="332" on="1"/>
        <pt x="114" y="204" on="1"/>
        <pt x="114" y="168" on="0"/>
        <pt x="154" y="131" on="0"/>
        <pt x="204" y="131" on="1"/>
      </contour>
    </TTGlyph>
    <TTGlyph name="dvB_DHA" xMin="-26" yMin="0" xMax="750" yMax="652">
      <contour>
        <pt x="750" y="652" on="1"/>
        <pt x="750" y="590" on="1"/>
        <pt x="655" y="590" on="1"/>
        <pt x="655" y="0" on="1"/>
        <pt x="583" y="0" on="1"/>
        <pt x="583" y="76" on="1"/>
        <pt x="534" y="62" on="0"/>
        <pt x="473" y="62" on="1"/>
        <pt x="372" y="62" on="0"/>
        <pt x="325" y="112" on="1"/>
        <pt x="289" y="68" on="0"/>
        <pt x="202" y="68" on="1"/>
        <pt x="44" y="68" on="0"/>
        <pt x="44" y="202" on="1"/>
        <pt x="44" y="371" on="1"/>
        <pt x="44" y="437" on="0"/>
        <pt x="119" y="505" on="0"/>
        <pt x="199" y="505" on="1"/>
        <pt x="214" y="505" on="0"/>
        <pt x="240" y="502" on="0"/>
        <pt x="244" y="501" on="1"/>
        <pt x="244" y="438" on="1"/>
        <pt x="241" y="439" on="0"/>
        <pt x="217" y="442" on="0"/>
        <pt x="203" y="442" on="1"/>
        <pt x="161" y="442" on="0"/>
        <pt x="121" y="415" on="0"/>
        <pt x="116" y="390" on="1"/>
        <pt x="291" y="253" on="1"/>
        <pt x="291" y="265" on="1"/>
        <pt x="291" y="344" on="0"/>
        <pt x="349" y="362" on="1"/>
        <pt x="320" y="374" on="0"/>
        <pt x="297" y="422" on="0"/>
        <pt x="297" y="459" on="1"/>
        <pt x="297" y="523" on="1"/>
        <pt x="297" y="543" on="0"/>
        <pt x="301" y="572" on="0"/>
        <pt x="306" y="588" on="0"/>
        <pt x="307" y="590" on="1"/>
        <pt x="-26" y="590" on="1"/>
        <pt x="-26" y="652" on="1"/>
        <pt x="474" y="652" on="1"/>
        <pt x="474" y="590" on="1"/>
        <pt x="380" y="590" on="1"/>
        <pt x="379" y="588" on="0"/>
        <pt x="374" y="572" on="0"/>
        <pt x="369" y="542" on="0"/>
        <pt x="369" y="523" on="1"/>
        <pt x="369" y="460" on="1"/>
        <pt x="369" y="428" on="0"/>
        <pt x="401" y="396" on="0"/>
        <pt x="445" y="395" on="1"/>
        <pt x="481" y="395" on="1"/>
        <pt x="481" y="328" on="1"/>
        <pt x="444" y="328" on="1"/>
        <pt x="399" y="328" on="0"/>
        <pt x="363" y="295" on="0"/>
        <pt x="363" y="264" on="1"/>
        <pt x="363" y="214" on="1"/>
        <pt x="363" y="167" on="0"/>
        <pt x="422" y="128" on="0"/>
        <pt x="479" y="128" on="1"/>
        <pt x="533" y="128" on="0"/>
        <pt x="583" y="141" on="1"/>
        <pt x="583" y="652" on="1"/>
      </contour>
      <contour>
        <pt x="247" y="131" on="0"/>
        <pt x="288" y="162" on="0"/>
        <pt x="291" y="194" on="1"/>
        <pt x="114" y="332" on="1"/>
        <pt x="114" y="204" on="1"/>
        <pt x="114" y="168" on="0"/>
        <pt x="154" y="131" on="0"/>
        <pt x="203" y="131" on="1"/>
      </contour>
    </TTGlyph>
    <TTGlyph name="dvB_DH_VA" xMin="-26" yMin="0" xMax="986" yMax="652">
      <contour>
        <pt x="986" y="652" on="1"/>
        <pt x="986" y="590" on="1"/>
        <pt x="891" y="590" on="1"/>
        <pt x="891" y="0" on="1"/>
        <pt x="819" y="0" on="1"/>
        <pt x="819" y="80" on="1"/>
        <pt x="808" y="76" on="0"/>
        <pt x="758" y="68" on="0"/>
        <pt x="729" y="68" on="1"/>
        <pt x="655" y="68" on="0"/>
        <pt x="616" y="102" on="1"/>
        <pt x="534" y="81" on="0"/>
        <pt x="478" y="81" on="1"/>
        <pt x="382" y="81" on="0"/>
        <pt x="333" y="124" on="1"/>
        <pt x="299" y="68" on="0"/>
        <pt x="202" y="68" on="1"/>
        <pt x="44" y="68" on="0"/>
        <pt x="44" y="202" on="1"/>
        <pt x="44" y="371" on="1"/>
        <pt x="44" y="437" on="0"/>
        <pt x="119" y="505" on="0"/>
        <pt x="199" y="505" on="1"/>
        <pt x="214" y="505" on="0"/>
        <pt x="240" y="502" on="0"/>
        <pt x="243" y="501" on="1"/>
        <pt x="243" y="438" on="1"/>
        <pt x="240" y="439" on="0"/>
        <pt x="216" y="442" on="0"/>
        <pt x="202" y="442" on="1"/>
        <pt x="161" y="442" on="0"/>
        <pt x="121" y="415" on="0"/>
        <pt x="116" y="390" on="1"/>
        <pt x="290" y="253" on="1"/>
        <pt x="291" y="253" on="1"/>
        <pt x="291" y="279" on="1"/>
        <pt x="291" y="358" on="0"/>
        <pt x="349" y="376" on="1"/>
        <pt x="320" y="388" on="0"/>
        <pt x="297" y="436" on="0"/>
        <pt x="297" y="473" on="1"/>
        <pt x="297" y="523" on="1"/>
        <pt x="297" y="543" on="0"/>
        <pt x="301" y="573" on="0"/>
        <pt x="304" y="588" on="0"/>
        <pt x="305" y="590" on="1"/>
        <pt x="-26" y="590" on="1"/>
        <pt x="-26" y="652" on="1"/>
        <pt x="446" y="652" on="1"/>
        <pt x="446" y="590" on="1"/>
        <pt x="378" y="590" on="1"/>
        <pt x="377" y="588" on="0"/>
        <pt x="373" y="573" on="0"/>
        <pt x="369" y="542" on="0"/>
        <pt x="369" y="523" on="1"/>
        <pt x="369" y="474" on="1"/>
        <pt x="369" y="442" on="0"/>
        <pt x="401" y="410" on="0"/>
        <pt x="445" y="410" on="1"/>
        <pt x="481" y="410" on="1"/>
        <pt x="481" y="343" on="1"/>
        <pt x="444" y="343" on="1"/>
        <pt x="399" y="343" on="0"/>
        <pt x="363" y="310" on="0"/>
        <pt x="363" y="278" on="1"/>
        <pt x="363" y="233" on="1"/>
        <pt x="363" y="186" on="0"/>
        <pt x="422" y="146" on="0"/>
        <pt x="480" y="146" on="1"/>
        <pt x="529" y="146" on="0"/>
        <pt x="583" y="159" on="1"/>
        <pt x="578" y="181" on="0"/>
        <pt x="578" y="202" on="1"/>
        <pt x="578" y="371" on="1"/>
        <pt x="578" y="434" on="0"/>
        <pt x="654" y="505" on="0"/>
        <pt x="729" y="505" on="1"/>
        <pt x="758" y="505" on="0"/>
        <pt x="808" y="497" on="0"/>
        <pt x="819" y="493" on="1"/>
        <pt x="819" y="590" on="1"/>
        <pt x="563" y="590" on="1"/>
        <pt x="563" y="652" on="1"/>
      </contour>
      <contour>
        <pt x="821" y="430" on="1"/>
        <pt x="810" y="434" on="0"/>
        <pt x="763" y="442" on="0"/>
        <pt x="736" y="442" on="1"/>
        <pt x="691" y="442" on="0"/>
        <pt x="649" y="403" on="0"/>
        <pt x="649" y="370" on="1"/>
        <pt x="649" y="203" on="1"/>
        <pt x="649" y="131" on="0"/>
        <pt x="736" y="131" on="1"/>
        <pt x="763" y="131" on="0"/>
        <pt x="811" y="139" on="0"/>
        <pt x="821" y="143" on="1"/>
      </contour>
      <contour>
        <pt x="246" y="131" on="0"/>
        <pt x="288" y="163" on="0"/>
        <pt x="290" y="195" on="1"/>
        <pt x="114" y="332" on="1"/>
        <pt x="114" y="204" on="1"/>
        <pt x="114" y="168" on="0"/>
        <pt x="153" y="131" on="0"/>
        <pt x="202" y="131" on="1"/>
      </contour>
    </TTGlyph>
    <TTGlyph name="dvB_JA" xMin="-26" yMin="0" xMax="889" yMax="652">
      <contour>
        <pt x="889" y="590" on="1"/>
        <pt x="797" y="590" on="1"/>
        <pt x="797" y="0" on="1"/>
        <pt x="725" y="0" on="1"/>
        <pt x="725" y="431" on="1"/>
        <pt x="589" y="431" on="1"/>
        <pt x="590" y="429" on="0"/>
        <pt x="593" y="414" on="0"/>
        <pt x="597" y="384" on="0"/>
        <pt x="597" y="364" on="1"/>
        <pt x="597" y="201" on="1"/>
        <pt x="597" y="133" on="0"/>
        <pt x="516" y="61" on="0"/>
        <pt x="438" y="61" on="1"/>
        <pt x="405" y="61" on="0"/>
        <pt x="321" y="76" on="0"/>
        <pt x="294" y="85" on="1"/>
        <pt x="257" y="68" on="0"/>
        <pt x="202" y="68" on="1"/>
        <pt x="44" y="68" on="0"/>
        <pt x="44" y="202" on="1"/>
        <pt x="44" y="371" on="1"/>
        <pt x="44" y="437" on="0"/>
        <pt x="120" y="505" on="0"/>
        <pt x="202" y="505" on="1"/>
        <pt x="282" y="505" on="0"/>
        <pt x="358" y="438" on="0"/>
        <pt x="358" y="371" on="1"/>
        <pt x="358" y="202" on="1"/>
        <pt x="358" y="165" on="0"/>
        <pt x="347" y="140" on="1"/>
        <pt x="412" y="127" on="0"/>
        <pt x="436" y="127" on="1"/>
        <pt x="525" y="127" on="0"/>
        <pt x="525" y="202" on="1"/>
        <pt x="525" y="361" on="1"/>
        <pt x="525" y="381" on="0"/>
        <pt x="521" y="411" on="0"/>
        <pt x="517" y="426" on="0"/>
        <pt x="516" y="428" on="1"/>
        <pt x="423" y="428" on="1"/>
        <pt x="423" y="494" on="1"/>
        <pt x="725" y="494" on="1"/>
        <pt x="725" y="590" on="1"/>
        <pt x="-26" y="590" on="1"/>
        <pt x="-26" y="652" on="1"/>
        <pt x="889" y="652" on="1"/>
      </contour>
      <contour>
        <pt x="147" y="442" on="0"/>
        <pt x="126" y="413" on="1"/>
        <pt x="291" y="221" on="1"/>
        <pt x="291" y="368" on="1"/>
        <pt x="291" y="442" on="0"/>
        <pt x="203" y="442" on="1"/>
      </contour>
      <contour>
        <pt x="262" y="131" on="0"/>
        <pt x="281" y="162" on="1"/>
        <pt x="114" y="357" on="1"/>
        <pt x="114" y="204" on="1"/>
        <pt x="114" y="168" on="0"/>
        <pt x="154" y="131" on="0"/>
        <pt x="203" y="131" on="1"/>
      </contour>
    </TTGlyph>
    <TTGlyph name="dvB_JHA" xMin="-26" yMin="-62" xMax="977" yMax="652">
      <contour>
        <pt x="977" y="590" on="1"/>
        <pt x="882" y="590" on="1"/>
        <pt x="882" y="0" on="1"/>
        <pt x="810" y="0" on="1"/>
        <pt x="810" y="254" on="1"/>
        <pt x="670" y="254" on="1"/>
        <pt x="698" y="234" on="0"/>
        <pt x="698" y="186" on="1"/>
        <pt x="698" y="143" on="1"/>
        <pt x="698" y="78" on="0"/>
        <pt x="626" y="16" on="0"/>
        <pt x="549" y="16" on="1"/>
        <pt x="506" y="16" on="0"/>
        <pt x="466" y="25" on="1"/>
        <pt x="466" y="-62" on="1"/>
        <pt x="396" y="-62" on="1"/>
        <pt x="396" y="158" on="1"/>
        <pt x="466" y="158" on="1"/>
        <pt x="466" y="90" on="1"/>
        <pt x="501" y="81" on="0"/>
        <pt x="542" y="81" on="1"/>
        <pt x="588" y="81" on="0"/>
        <pt x="627" y="115" on="0"/>
        <pt x="627" y="146" on="1"/>
        <pt x="627" y="186" on="1"/>
        <pt x="627" y="218" on="0"/>
        <pt x="592" y="251" on="0"/>
        <pt x="548" y="251" on="1"/>
        <pt x="354" y="251" on="1"/>
        <pt x="354" y="193" on="1"/>
        <pt x="354" y="62" on="0"/>
        <pt x="202" y="62" on="1"/>
        <pt x="44" y="62" on="0"/>
        <pt x="44" y="197" on="1"/>
        <pt x="44" y="365" on="1"/>
        <pt x="44" y="500" on="0"/>
        <pt x="199" y="500" on="1"/>
        <pt x="217" y="500" on="0"/>
        <pt x="249" y="496" on="0"/>
        <pt x="254" y="495" on="1"/>
        <pt x="254" y="432" on="1"/>
        <pt x="250" y="433" on="0"/>
        <pt x="220" y="437" on="0"/>
        <pt x="203" y="437" on="1"/>
        <pt x="161" y="437" on="0"/>
        <pt x="121" y="410" on="0"/>
        <pt x="116" y="384" on="1"/>
        <pt x="291" y="247" on="1"/>
        <pt x="291" y="314" on="1"/>
        <pt x="395" y="314" on="1"/>
        <pt x="383" y="340" on="0"/>
        <pt x="383" y="374" on="1"/>
        <pt x="383" y="382" on="1"/>
        <pt x="383" y="444" on="0"/>
        <pt x="456" y="505" on="0"/>
        <pt x="531" y="505" on="1"/>
        <pt x="617" y="505" on="1"/>
        <pt x="617" y="590" on="1"/>
        <pt x="-26" y="590" on="1"/>
        <pt x="-26" y="652" on="1"/>
        <pt x="977" y="652" on="1"/>
      </contour>
      <contour>
        <pt x="810" y="590" on="1"/>
        <pt x="689" y="590" on="1"/>
        <pt x="689" y="440" on="1"/>
        <pt x="531" y="440" on="1"/>
        <pt x="488" y="440" on="0"/>
        <pt x="455" y="411" on="0"/>
        <pt x="455" y="381" on="1"/>
        <pt x="455" y="375" on="1"/>
        <pt x="455" y="345" on="0"/>
        <pt x="487" y="315" on="0"/>
        <pt x="529" y="314" on="1"/>
        <pt x="810" y="314" on="1"/>
      </contour>
      <contour>
        <pt x="247" y="125" on="0"/>
        <pt x="288" y="156" on="0"/>
        <pt x="291" y="188" on="1"/>
        <pt x="114" y="326" on="1"/>
        <pt x="114" y="198" on="1"/>
        <pt x="114" y="162" on="0"/>
        <pt x="154" y="125" on="0"/>
        <pt x="203" y="125" on="1"/>
      </contour>
    </TTGlyph>
    <TTGlyph name="dvB_J_YA" xMin="44" yMin="0" xMax="1181" yMax="652">
      <contour>
        <pt x="225" y="590" on="1"/>
        <pt x="113" y="590" on="1"/>
        <pt x="113" y="652" on="1"/>
        <pt x="225" y="652" on="1"/>
      </contour>
      <contour>
        <pt x="1181" y="590" on="1"/>
        <pt x="1086" y="590" on="1"/>
        <pt x="1086" y="0" on="1"/>
        <pt x="1014" y="0" on="1"/>
        <pt x="1014" y="96" on="1"/>
        <pt x="963" y="85" on="0"/>
        <pt x="906" y="85" on="1"/>
        <pt x="816" y="85" on="0"/>
        <pt x="706" y="166" on="0"/>
        <pt x="706" y="258" on="1"/>
        <pt x="706" y="379" on="1"/>
        <pt x="706" y="412" on="0"/>
        <pt x="670" y="431" on="0"/>
        <pt x="622" y="431" on="1"/>
        <pt x="589" y="431" on="1"/>
        <pt x="590" y="429" on="0"/>
        <pt x="593" y="414" on="0"/>
        <pt x="597" y="384" on="0"/>
        <pt x="597" y="364" on="1"/>
        <pt x="597" y="201" on="1"/>
        <pt x="597" y="133" on="0"/>
        <pt x="516" y="61" on="0"/>
        <pt x="438" y="61" on="1"/>
        <pt x="404" y="61" on="0"/>
        <pt x="317" y="77" on="0"/>
        <pt x="289" y="86" on="1"/>
        <pt x="307" y="151" on="1"/>
        <pt x="332" y="143" on="0"/>
        <pt x="412" y="127" on="0"/>
        <pt x="436" y="127" on="1"/>
        <pt x="525" y="127" on="0"/>
        <pt x="525" y="202" on="1"/>
        <pt x="525" y="361" on="1"/>
        <pt x="525" y="381" on="0"/>
        <pt x="521" y="411" on="0"/>
        <pt x="517" y="426" on="0"/>
        <pt x="516" y="428" on="1"/>
        <pt x="423" y="428" on="1"/>
        <pt x="423" y="494" on="1"/>
        <pt x="640" y="494" on="1"/>
        <pt x="701" y="494" on="0"/>
        <pt x="765" y="451" on="0"/>
        <pt x="768" y="402" on="1"/>
        <pt x="805" y="406" on="0"/>
        <pt x="834" y="437" on="0"/>
        <pt x="834" y="472" on="1"/>
        <pt x="834" y="523" on="1"/>
        <pt x="834" y="542" on="0"/>
        <pt x="830" y="573" on="0"/>
        <pt x="827" y="588" on="0"/>
        <pt x="826" y="590" on="1"/>
        <pt x="292" y="590" on="1"/>
        <pt x="292" y="652" on="1"/>
        <pt x="1181" y="652" on="1"/>
      </contour>
      <contour>
        <pt x="1014" y="590" on="1"/>
        <pt x="897" y="590" on="1"/>
        <pt x="898" y="586" on="0"/>
        <pt x="904" y="550" on="0"/>
        <pt x="904" y="523" on="1"/>
        <pt x="904" y="464" on="1"/>
        <pt x="904" y="347" on="0"/>
        <pt x="777" y="345" on="1"/>
        <pt x="777" y="264" on="1"/>
        <pt x="777" y="207" on="0"/>
        <pt x="840" y="152" on="0"/>
        <pt x="908" y="152" on="1"/>
        <pt x="959" y="152" on="0"/>
        <pt x="1014" y="163" on="1"/>
      </contour>
      <contour>
        <pt x="252" y="376" on="0"/>
        <pt x="202" y="376" on="1"/>
        <pt x="186" y="376" on="1"/>
        <pt x="149" y="418" on="0"/>
        <pt x="142" y="418" on="1"/>
        <pt x="145" y="438" on="0"/>
        <pt x="173" y="438" on="1"/>
        <pt x="181" y="438" on="0"/>
        <pt x="186" y="437" on="1"/>
        <pt x="216" y="437" on="0"/>
        <pt x="273" y="397" on="0"/>
        <pt x="285" y="373" on="1"/>
      </contour>
      <contour>
        <pt x="114" y="220" on="1"/>
        <pt x="114" y="212" on="0"/>
        <pt x="119" y="200" on="1"/>
        <pt x="44" y="207" on="0"/>
        <pt x="44" y="230" on="1"/>
        <pt x="44" y="343" on="1"/>
        <pt x="44" y="375" on="0"/>
        <pt x="186" y="376" on="1"/>
        <pt x="221" y="336" on="0"/>
        <pt x="291" y="243" on="0"/>
        <pt x="291" y="237" on="1"/>
        <pt x="291" y="352" on="1"/>
        <pt x="291" y="361" on="0"/>
        <pt x="285" y="373" on="1"/>
        <pt x="358" y="364" on="0"/>
        <pt x="358" y="343" on="1"/>
        <pt x="358" y="230" on="1"/>
        <pt x="358" y="200" on="0"/>
        <pt x="223" y="197" on="1"/>
        <pt x="188" y="238" on="0"/>
        <pt x="114" y="334" on="0"/>
        <pt x="114" y="341" on="1"/>
      </contour>
      <contour>
        <pt x="260" y="157" on="0"/>
        <pt x="265" y="157" on="1"/>
        <pt x="263" y="135" on="0"/>
        <pt x="232" y="135" on="1"/>
        <pt x="219" y="136" on="1"/>
        <pt x="188" y="136" on="0"/>
        <pt x="130" y="176" on="0"/>
        <pt x="119" y="200" on="1"/>
        <pt x="152" y="197" on="0"/>
        <pt x="202" y="197" on="1"/>
        <pt x="223" y="197" on="1"/>
      </contour>
    </TTGlyph>
    <TTGlyph name="dvB_JxA" xMin="-26" yMin="-76" xMax="892" yMax="652">
      <contour>
        <pt x="892" y="590" on="1"/>
        <pt x="797" y="590" on="1"/>
        <pt x="797" y="0" on="1"/>
        <pt x="725" y="0" on="1"/>
        <pt x="725" y="431" on="1"/>
        <pt x="589" y="431" on="1"/>
        <pt x="590" y="429" on="0"/>
        <pt x="593" y="414" on="0"/>
        <pt x="597" y="384" on="0"/>
        <pt x="597" y="364" on="1"/>
        <pt x="597" y="201" on="1"/>
        <pt x="597" y="133" on="0"/>
        <pt x="516" y="61" on="0"/>
        <pt x="438" y="61" on="1"/>
        <pt x="405" y="61" on="0"/>
        <pt x="321" y="76" on="0"/>
        <pt x="294" y="85" on="1"/>
        <pt x="257" y="68" on="0"/>
        <pt x="202" y="68" on="1"/>
        <pt x="44" y="68" on="0"/>
        <pt x="44" y="202" on="1"/>
        <pt x="44" y="371" on="1"/>
        <pt x="44" y="437" on="0"/>
        <pt x="120" y="505" on="0"/>
        <pt x="202" y="505" on="1"/>
        <pt x="282" y="505" on="0"/>
        <pt x="358" y="438" on="0"/>
        <pt x="358" y="371" on="1"/>
        <pt x="358" y="202" on="1"/>
        <pt x="358" y="165" on="0"/>
        <pt x="347" y="140" on="1"/>
        <pt x="412" y="127" on="0"/>
        <pt x="436" y="127" on="1"/>
        <pt x="525" y="127" on="0"/>
        <pt x="525" y="202" on="1"/>
        <pt x="525" y="361" on="1"/>
        <pt x="525" y="381" on="0"/>
        <pt x="521" y="411" on="0"/>
        <pt x="517" y="426" on="0"/>
        <pt x="516" y="428" on="1"/>
        <pt x="423" y="428" on="1"/>
        <pt x="423" y="494" on="1"/>
        <pt x="725" y="494" on="1"/>
        <pt x="725" y="590" on="1"/>
        <pt x="-26" y="590" on="1"/>
        <pt x="-26" y="652" on="1"/>
        <pt x="892" y="652" on="1"/>
      </contour>
      <contour>
        <pt x="147" y="442" on="0"/>
        <pt x="126" y="413" on="1"/>
        <pt x="291" y="221" on="1"/>
        <pt x="291" y="368" on="1"/>
        <pt x="291" y="442" on="0"/>
        <pt x="203" y="442" on="1"/>
      </contour>
      <contour>
        <pt x="262" y="131" on="0"/>
        <pt x="281" y="162" on="1"/>
        <pt x="114" y="357" on="1"/>
        <pt x="114" y="204" on="1"/>
        <pt x="114" y="168" on="0"/>
        <pt x="154" y="131" on="0"/>
        <pt x="203" y="131" on="1"/>
      </contour>
      <contour>
        <pt x="355" y="14" on="0"/>
        <pt x="355" y="-31" on="1"/>
        <pt x="355" y="-76" on="0"/>
        <pt x="310" y="-76" on="1"/>
        <pt x="265" y="-76" on="0"/>
        <pt x="265" y="-31" on="1"/>
        <pt x="265" y="14" on="0"/>
        <pt x="310" y="14" on="1"/>
      </contour>
    </TTGlyph>
    <TTGlyph name="dvB_LA" xMin="-26" yMin="0" xMax="892" yMax="652">
      <contour>
        <pt x="892" y="590" on="1"/>
        <pt x="797" y="590" on="1"/>
        <pt x="797" y="0" on="1"/>
        <pt x="725" y="0" on="1"/>
        <pt x="725" y="401" on="1"/>
        <pt x="697" y="414" on="0"/>
        <pt x="658" y="414" on="1"/>
        <pt x="618" y="414" on="0"/>
        <pt x="581" y="378" on="0"/>
        <pt x="581" y="348" on="1"/>
        <pt x="581" y="208" on="1"/>
        <pt x="509" y="208" on="1"/>
        <pt x="509" y="348" on="1"/>
        <pt x="509" y="379" on="0"/>
        <pt x="477" y="414" on="0"/>
        <pt x="437" y="414" on="1"/>
        <pt x="396" y="414" on="0"/>
        <pt x="365" y="379" on="0"/>
        <pt x="365" y="346" on="1"/>
        <pt x="365" y="158" on="1"/>
        <pt x="365" y="113" on="0"/>
        <pt x="408" y="65" on="0"/>
        <pt x="464" y="65" on="1"/>
        <pt x="484" y="65" on="0"/>
        <pt x="522" y="70" on="1"/>
        <pt x="522" y="5" on="1"/>
        <pt x="495" y="0" on="0"/>
        <pt x="462" y="0" on="1"/>
        <pt x="333" y="0" on="0"/>
        <pt x="302" y="91" on="1"/>
        <pt x="267" y="68" on="0"/>
        <pt x="203" y="68" on="1"/>
        <pt x="44" y="68" on="0"/>
        <pt x="44" y="202" on="1"/>
        <pt x="44" y="371" on="1"/>
        <pt x="44" y="437" on="0"/>
        <pt x="119" y="505" on="0"/>
        <pt x="199" y="505" on="1"/>
        <pt x="214" y="505" on="0"/>
        <pt x="240" y="502" on="0"/>
        <pt x="244" y="501" on="1"/>
        <pt x="244" y="438" on="1"/>
        <pt x="241" y="439" on="0"/>
        <pt x="217" y="442" on="0"/>
        <pt x="203" y="442" on="1"/>
        <pt x="161" y="442" on="0"/>
        <pt x="121" y="415" on="0"/>
        <pt x="116" y="390" on="1"/>
        <pt x="293" y="251" on="1"/>
        <pt x="293" y="347" on="1"/>
        <pt x="293" y="411" on="0"/>
        <pt x="365" y="481" on="0"/>
        <pt x="436" y="481" on="1"/>
        <pt x="475" y="481" on="0"/>
        <pt x="530" y="456" on="0"/>
        <pt x="544" y="435" on="1"/>
        <pt x="579" y="481" on="0"/>
        <pt x="654" y="481" on="1"/>
        <pt x="694" y="481" on="0"/>
        <pt x="725" y="468" on="1"/>
        <pt x="725" y="590" on="1"/>
        <pt x="-26" y="590" on="1"/>
        <pt x="-26" y="652" on="1"/>
        <pt x="892" y="652" on="1"/>
      </contour>
      <contour>
        <pt x="247" y="131" on="0"/>
        <pt x="289" y="159" on="0"/>
        <pt x="293" y="188" on="1"/>
        <pt x="293" y="192" on="1"/>
        <pt x="114" y="332" on="1"/>
        <pt x="114" y="204" on="1"/>
        <pt x="114" y="168" on="0"/>
        <pt x="154" y="131" on="0"/>
        <pt x="204" y="131" on="1"/>
      </contour>
    </TTGlyph>
    <TTGlyph name="dvB_L_YA" xMin="-26" yMin="0" xMax="1184" yMax="652">
      <contour>
        <pt x="1184" y="590" on="1"/>
        <pt x="1089" y="590" on="1"/>
        <pt x="1089" y="0" on="1"/>
        <pt x="1017" y="0" on="1"/>
        <pt x="1017" y="96" on="1"/>
        <pt x="966" y="85" on="0"/>
        <pt x="909" y="85" on="1"/>
        <pt x="819" y="85" on="0"/>
        <pt x="709" y="166" on="0"/>
        <pt x="709" y="258" on="1"/>
        <pt x="709" y="346" on="1"/>
        <pt x="709" y="381" on="0"/>
        <pt x="683" y="414" on="0"/>
        <pt x="641" y="414" on="1"/>
        <pt x="603" y="414" on="0"/>
        <pt x="576" y="380" on="0"/>
        <pt x="576" y="346" on="1"/>
        <pt x="576" y="208" on="1"/>
        <pt x="504" y="208" on="1"/>
        <pt x="504" y="346" on="1"/>
        <pt x="504" y="379" on="0"/>
        <pt x="473" y="414" on="0"/>
        <pt x="432" y="414" on="1"/>
        <pt x="390" y="414" on="0"/>
        <pt x="360" y="379" on="0"/>
        <pt x="360" y="346" on="1"/>
        <pt x="360" y="158" on="1"/>
        <pt x="360" y="113" on="0"/>
        <pt x="402" y="65" on="0"/>
        <pt x="459" y="65" on="1"/>
        <pt x="518" y="66" on="1"/>
        <pt x="518" y="1" on="1"/>
        <pt x="457" y="0" on="1"/>
        <pt x="328" y="0" on="0"/>
        <pt x="299" y="90" on="1"/>
        <pt x="263" y="68" on="0"/>
        <pt x="202" y="68" on="1"/>
        <pt x="44" y="68" on="0"/>
        <pt x="44" y="202" on="1"/>
        <pt x="44" y="371" on="1"/>
        <pt x="44" y="437" on="0"/>
        <pt x="119" y="505" on="0"/>
        <pt x="199" y="505" on="1"/>
        <pt x="214" y="505" on="0"/>
        <pt x="240" y="502" on="0"/>
        <pt x="243" y="501" on="1"/>
        <pt x="243" y="438" on="1"/>
        <pt x="240" y="439" on="0"/>
        <pt x="216" y="442" on="0"/>
        <pt x="202" y="442" on="1"/>
        <pt x="161" y="442" on="0"/>
        <pt x="121" y="415" on="0"/>
        <pt x="116" y="390" on="1"/>
        <pt x="290" y="253" on="1"/>
        <pt x="290" y="347" on="1"/>
        <pt x="290" y="411" on="0"/>
        <pt x="360" y="481" on="0"/>
        <pt x="430" y="481" on="1"/>
        <pt x="470" y="481" on="0"/>
        <pt x="524" y="456" on="0"/>
        <pt x="539" y="435" on="1"/>
        <pt x="572" y="481" on="0"/>
        <pt x="639" y="481" on="1"/>
        <pt x="750" y="481" on="0"/>
        <pt x="771" y="387" on="1"/>
        <pt x="808" y="391" on="0"/>
        <pt x="837" y="422" on="0"/>
        <pt x="837" y="457" on="1"/>
        <pt x="837" y="523" on="1"/>
        <pt x="837" y="542" on="0"/>
        <pt x="833" y="573" on="0"/>
        <pt x="830" y="588" on="0"/>
        <pt x="829" y="590" on="1"/>
        <pt x="-26" y="590" on="1"/>
        <pt x="-26" y="652" on="1"/>
        <pt x="1184" y="652" on="1"/>
      </contour>
      <contour>
        <pt x="1017" y="590" on="1"/>
        <pt x="900" y="590" on="1"/>
        <pt x="901" y="588" on="0"/>
        <pt x="904" y="573" on="0"/>
        <pt x="908" y="542" on="0"/>
        <pt x="908" y="523" on="1"/>
        <pt x="908" y="449" on="1"/>
        <pt x="908" y="332" on="0"/>
        <pt x="780" y="330" on="1"/>
        <pt x="780" y="264" on="1"/>
        <pt x="780" y="207" on="0"/>
        <pt x="844" y="152" on="0"/>
        <pt x="912" y="152" on="1"/>
        <pt x="962" y="152" on="0"/>
        <pt x="1017" y="163" on="1"/>
      </contour>
      <contour>
        <pt x="246" y="131" on="0"/>
        <pt x="288" y="163" on="0"/>
        <pt x="290" y="195" on="1"/>
        <pt x="114" y="332" on="1"/>
        <pt x="114" y="204" on="1"/>
        <pt x="114" y="168" on="0"/>
        <pt x="153" y="131" on="0"/>
        <pt x="202" y="131" on="1"/>
      </contour>
    </TTGlyph>
    <TTGlyph name="dvB_NA" xMin="-26" yMin="0" xMax="843" yMax="652">
      <contour>
        <pt x="843" y="590" on="1"/>
        <pt x="748" y="590" on="1"/>
        <pt x="748" y="0" on="1"/>
        <pt x="676" y="0" on="1"/>
        <pt x="676" y="415" on="1"/>
        <pt x="546" y="415" on="1"/>
        <pt x="549" y="410" on="0"/>
        <pt x="557" y="372" on="0"/>
        <pt x="557" y="345" on="1"/>
        <pt x="557" y="186" on="1"/>
        <pt x="557" y="60" on="0"/>
        <pt x="421" y="60" on="1"/>
        <pt x="345" y="60" on="0"/>
        <pt x="311" y="100" on="1"/>
        <pt x="273" y="68" on="0"/>
        <pt x="199" y="68" on="1"/>
        <pt x="119" y="68" on="0"/>
        <pt x="44" y="136" on="0"/>
        <pt x="44" y="202" on="1"/>
        <pt x="44" y="367" on="1"/>
        <pt x="44" y="433" on="0"/>
        <pt x="119" y="501" on="0"/>
        <pt x="199" y="501" on="1"/>
        <pt x="289" y="501" on="0"/>
        <pt x="325" y="454" on="1"/>
        <pt x="359" y="480" on="0"/>
        <pt x="421" y="480" on="1"/>
        <pt x="676" y="480" on="1"/>
        <pt x="676" y="590" on="1"/>
        <pt x="-26" y="590" on="1"/>
        <pt x="-26" y="652" on="1"/>
        <pt x="843" y="652" on="1"/>
      </contour>
      <contour>
        <pt x="159" y="438" on="0"/>
        <pt x="120" y="411" on="0"/>
        <pt x="115" y="385" on="1"/>
        <pt x="285" y="254" on="1"/>
        <pt x="285" y="365" on="1"/>
        <pt x="285" y="403" on="0"/>
        <pt x="248" y="438" on="0"/>
        <pt x="200" y="438" on="1"/>
      </contour>
      <contour>
        <pt x="487" y="344" on="1"/>
        <pt x="487" y="382" on="0"/>
        <pt x="476" y="415" on="1"/>
        <pt x="421" y="415" on="1"/>
        <pt x="385" y="415" on="0"/>
        <pt x="355" y="384" on="0"/>
        <pt x="355" y="354" on="1"/>
        <pt x="355" y="187" on="1"/>
        <pt x="355" y="157" on="0"/>
        <pt x="385" y="126" on="0"/>
        <pt x="421" y="126" on="1"/>
        <pt x="458" y="126" on="0"/>
        <pt x="487" y="156" on="0"/>
        <pt x="487" y="187" on="1"/>
      </contour>
      <contour>
        <pt x="244" y="131" on="0"/>
        <pt x="283" y="164" on="0"/>
        <pt x="285" y="197" on="1"/>
        <pt x="114" y="328" on="1"/>
        <pt x="114" y="204" on="1"/>
        <pt x="114" y="168" on="0"/>
        <pt x="152" y="131" on="0"/>
        <pt x="200" y="131" on="1"/>
      </contour>
    </TTGlyph>
    <TTGlyph name="dvB_R" xMin="-26" yMin="-70" xMax="382" yMax="652">
      <contour>
        <pt x="382" y="652" on="1"/>
        <pt x="382" y="590" on="1"/>
        <pt x="-26" y="590" on="1"/>
        <pt x="-26" y="652" on="1"/>
      </contour>
      <contour>
        <pt x="286" y="505" on="0"/>
        <pt x="362" y="438" on="0"/>
        <pt x="362" y="371" on="1"/>
        <pt x="362" y="215" on="1"/>
        <pt x="362" y="184" on="0"/>
        <pt x="345" y="140" on="0"/>
        <pt x="314" y="105" on="0"/>
        <pt x="282" y="75" on="1"/>
        <pt x="132" y="-70" on="1"/>
        <pt x="37" y="-70" on="1"/>
        <pt x="197" y="82" on="1"/>
        <pt x="120" y="84" on="0"/>
        <pt x="48" y="152" on="0"/>
        <pt x="48" y="215" on="1"/>
        <pt x="48" y="371" on="1"/>
        <pt x="48" y="437" on="0"/>
        <pt x="124" y="505" on="0"/>
        <pt x="206" y="505" on="1"/>
      </contour>
      <contour>
        <pt x="165" y="442" on="0"/>
        <pt x="125" y="416" on="0"/>
        <pt x="120" y="390" on="1"/>
        <pt x="294" y="263" on="1"/>
        <pt x="294" y="369" on="1"/>
        <pt x="294" y="406" on="0"/>
        <pt x="254" y="442" on="0"/>
        <pt x="206" y="442" on="1"/>
      </contour>
      <contour>
        <pt x="251" y="143" on="0"/>
        <pt x="292" y="174" on="0"/>
        <pt x="294" y="206" on="1"/>
        <pt x="118" y="333" on="1"/>
        <pt x="118" y="216" on="1"/>
        <pt x="118" y="180" on="0"/>
        <pt x="157" y="143" on="0"/>
        <pt x="206" y="143" on="1"/>
      </contour>
    </TTGlyph>
    <TTGlyph name="dvB_RA" xMin="-26" yMin="-51" xMax="455" yMax="652">
      <contour>
        <pt x="455" y="652" on="1"/>
        <pt x="455" y="590" on="1"/>
        <pt x="360" y="590" on="1"/>
        <pt x="360" y="0" on="1"/>
        <pt x="292" y="0" on="1"/>
        <pt x="292" y="108" on="1"/>
        <pt x="287" y="106" on="1"/>
        <pt x="131" y="-51" on="1"/>
        <pt x="41" y="-51" on="1"/>
        <pt x="189" y="96" on="1"/>
        <pt x="119" y="100" on="0"/>
        <pt x="48" y="161" on="0"/>
        <pt x="48" y="223" on="1"/>
        <pt x="48" y="372" on="1"/>
        <pt x="48" y="438" on="0"/>
        <pt x="128" y="505" on="0"/>
        <pt x="206" y="505" on="1"/>
        <pt x="261" y="505" on="0"/>
        <pt x="292" y="492" on="1"/>
        <pt x="292" y="590" on="1"/>
        <pt x="-26" y="590" on="1"/>
        <pt x="-26" y="652" on="1"/>
      </contour>
      <contour>
        <pt x="133" y="442" on="0"/>
        <pt x="120" y="391" on="1"/>
        <pt x="292" y="251" on="1"/>
        <pt x="292" y="429" on="1"/>
        <pt x="261" y="442" on="0"/>
        <pt x="210" y="442" on="1"/>
      </contour>
      <contour>
        <pt x="118" y="152" on="0"/>
        <pt x="210" y="152" on="1"/>
        <pt x="259" y="152" on="0"/>
        <pt x="292" y="163" on="1"/>
        <pt x="292" y="192" on="1"/>
        <pt x="118" y="333" on="1"/>
        <pt x="118" y="225" on="1"/>
      </contour>
    </TTGlyph>
    <TTGlyph name="dvB_SA" xMin="-26" yMin="-5" xMax="865" yMax="652">
      <contour>
        <pt x="865" y="590" on="1"/>
        <pt x="770" y="590" on="1"/>
        <pt x="770" y="0" on="1"/>
        <pt x="698" y="0" on="1"/>
        <pt x="698" y="287" on="1"/>
        <pt x="542" y="287" on="1"/>
        <pt x="507" y="250" on="0"/>
        <pt x="431" y="250" on="1"/>
        <pt x="395" y="250" on="0"/>
        <pt x="363" y="258" on="1"/>
        <pt x="363" y="146" on="1"/>
        <pt x="363" y="102" on="0"/>
        <pt x="418" y="61" on="0"/>
        <pt x="473" y="61" on="1"/>
        <pt x="511" y="61" on="0"/>
        <pt x="561" y="70" on="0"/>
        <pt x="595" y="80" on="1"/>
        <pt x="595" y="13" on="1"/>
        <pt x="537" y="-5" on="0"/>
        <pt x="466" y="-5" on="1"/>
        <pt x="401" y="-5" on="0"/>
        <pt x="316" y="43" on="0"/>
        <pt x="300" y="89" on="1"/>
        <pt x="264" y="68" on="0"/>
        <pt x="203" y="68" on="1"/>
        <pt x="44" y="68" on="0"/>
        <pt x="44" y="202" on="1"/>
        <pt x="44" y="371" on="1"/>
        <pt x="44" y="437" on="0"/>
        <pt x="119" y="505" on="0"/>
        <pt x="199" y="505" on="1"/>
        <pt x="212" y="505" on="0"/>
        <pt x="231" y="503" on="0"/>
        <pt x="234" y="503" on="1"/>
        <pt x="234" y="440" on="1"/>
        <pt x="231" y="440" on="0"/>
        <pt x="215" y="442" on="0"/>
        <pt x="203" y="442" on="1"/>
        <pt x="161" y="442" on="0"/>
        <pt x="121" y="415" on="0"/>
        <pt x="116" y="390" on="1"/>
        <pt x="291" y="253" on="1"/>
        <pt x="291" y="450" on="1"/>
        <pt x="363" y="450" on="1"/>
        <pt x="363" y="324" on="1"/>
        <pt x="395" y="315" on="0"/>
        <pt x="425" y="315" on="1"/>
        <pt x="469" y="315" on="0"/>
        <pt x="504" y="351" on="0"/>
        <pt x="504" y="383" on="1"/>
        <pt x="504" y="523" on="1"/>
        <pt x="504" y="542" on="0"/>
        <pt x="500" y="573" on="0"/>
        <pt x="496" y="588" on="0"/>
        <pt x="495" y="590" on="1"/>
        <pt x="-26" y="590" on="1"/>
        <pt x="-26" y="652" on="1"/>
        <pt x="865" y="652" on="1"/>
      </contour>
      <contour>
        <pt x="698" y="590" on="1"/>
        <pt x="568" y="590" on="1"/>
        <pt x="569" y="586" on="0"/>
        <pt x="575" y="551" on="0"/>
        <pt x="575" y="523" on="1"/>
        <pt x="575" y="383" on="1"/>
        <pt x="575" y="365" on="0"/>
        <pt x="572" y="350" on="1"/>
        <pt x="698" y="350" on="1"/>
      </contour>
      <contour>
        <pt x="278" y="131" on="0"/>
        <pt x="291" y="178" on="1"/>
        <pt x="291" y="194" on="1"/>
        <pt x="114" y="332" on="1"/>
        <pt x="114" y="204" on="1"/>
        <pt x="114" y="168" on="0"/>
        <pt x="154" y="131" on="0"/>
        <pt x="204" y="131" on="1"/>
      </contour>
    </TTGlyph>
    <TTGlyph name="dvB_SHA" xMin="-26" yMin="-3" xMax="860" yMax="657">
      <contour>
        <pt x="521" y="657" on="0"/>
        <pt x="596" y="587" on="0"/>
        <pt x="596" y="523" on="1"/>
        <pt x="596" y="383" on="1"/>
        <pt x="596" y="320" on="0"/>
        <pt x="523" y="252" on="0"/>
        <pt x="449" y="252" on="1"/>
        <pt x="403" y="252" on="0"/>
        <pt x="366" y="265" on="1"/>
        <pt x="366" y="151" on="1"/>
        <pt x="366" y="108" on="0"/>
        <pt x="423" y="63" on="0"/>
        <pt x="476" y="63" on="1"/>
        <pt x="509" y="63" on="0"/>
        <pt x="561" y="73" on="0"/>
        <pt x="591" y="82" on="1"/>
        <pt x="591" y="15" on="1"/>
        <pt x="533" y="-3" on="0"/>
        <pt x="469" y="-3" on="1"/>
        <pt x="407" y="-3" on="0"/>
        <pt x="320" y="47" on="0"/>
        <pt x="303" y="91" on="1"/>
        <pt x="266" y="68" on="0"/>
        <pt x="203" y="68" on="1"/>
        <pt x="44" y="68" on="0"/>
        <pt x="44" y="202" on="1"/>
        <pt x="44" y="371" on="1"/>
        <pt x="44" y="437" on="0"/>
        <pt x="119" y="505" on="0"/>
        <pt x="199" y="505" on="1"/>
        <pt x="214" y="505" on="0"/>
        <pt x="240" y="502" on="0"/>
        <pt x="244" y="501" on="1"/>
        <pt x="244" y="438" on="1"/>
        <pt x="241" y="439" on="0"/>
        <pt x="217" y="442" on="0"/>
        <pt x="203" y="442" on="1"/>
        <pt x="161" y="442" on="0"/>
        <pt x="121" y="415" on="0"/>
        <pt x="116" y="390" on="1"/>
        <pt x="293" y="251" on="1"/>
        <pt x="293" y="404" on="1"/>
        <pt x="366" y="404" on="1"/>
        <pt x="366" y="330" on="1"/>
        <pt x="401" y="317" on="0"/>
        <pt x="445" y="317" on="1"/>
        <pt x="489" y="317" on="0"/>
        <pt x="524" y="353" on="0"/>
        <pt x="524" y="385" on="1"/>
        <pt x="524" y="522" on="1"/>
        <pt x="524" y="554" on="0"/>
        <pt x="489" y="590" on="0"/>
        <pt x="445" y="590" on="1"/>
        <pt x="401" y="590" on="0"/>
        <pt x="366" y="553" on="0"/>
        <pt x="366" y="521" on="1"/>
        <pt x="366" y="495" on="0"/>
        <pt x="369" y="483" on="1"/>
        <pt x="297" y="483" on="1"/>
        <pt x="293" y="499" on="0"/>
        <pt x="293" y="523" on="1"/>
        <pt x="293" y="587" on="0"/>
        <pt x="369" y="657" on="0"/>
        <pt x="445" y="657" on="1"/>
      </contour>
      <contour>
        <pt x="239" y="590" on="1"/>
        <pt x="-26" y="590" on="1"/>
        <pt x="-26" y="652" on="1"/>
        <pt x="239" y="652" on="1"/>
      </contour>
      <contour>
        <pt x="860" y="652" on="1"/>
        <pt x="860" y="590" on="1"/>
        <pt x="765" y="590" on="1"/>
        <pt x="765" y="0" on="1"/>
        <pt x="693" y="0" on="1"/>
        <pt x="693" y="652" on="1"/>
      </contour>
      <contour>
        <pt x="247" y="131" on="0"/>
        <pt x="289" y="159" on="0"/>
        <pt x="293" y="188" on="1"/>
        <pt x="293" y="192" on="1"/>
        <pt x="114" y="332" on="1"/>
        <pt x="114" y="204" on="1"/>
        <pt x="114" y="168" on="0"/>
        <pt x="154" y="131" on="0"/>
        <pt x="204" y="131" on="1"/>
      </contour>
    </TTGlyph>
    <TTGlyph name="dvB_TA" xMin="-26" yMin="-1" xMax="706" yMax="652">
      <contour>
        <pt x="706" y="590" on="1"/>
        <pt x="611" y="590" on="1"/>
        <pt x="611" y="0" on="1"/>
        <pt x="539" y="0" on="1"/>
        <pt x="539" y="424" on="1"/>
        <pt x="485" y="436" on="0"/>
        <pt x="453" y="436" on="1"/>
        <pt x="366" y="436" on="0"/>
        <pt x="366" y="364" on="1"/>
        <pt x="366" y="130" on="1"/>
        <pt x="366" y="97" on="0"/>
        <pt x="403" y="65" on="0"/>
        <pt x="448" y="66" on="1"/>
        <pt x="448" y="-1" on="1"/>
        <pt x="426" y="-1" on="1"/>
        <pt x="316" y="-1" on="0"/>
        <pt x="297" y="88" on="1"/>
        <pt x="262" y="68" on="0"/>
        <pt x="203" y="68" on="1"/>
        <pt x="44" y="68" on="0"/>
        <pt x="44" y="202" on="1"/>
        <pt x="44" y="371" on="1"/>
        <pt x="44" y="437" on="0"/>
        <pt x="119" y="505" on="0"/>
        <pt x="199" y="505" on="1"/>
        <pt x="214" y="505" on="0"/>
        <pt x="240" y="502" on="0"/>
        <pt x="244" y="501" on="1"/>
        <pt x="244" y="438" on="1"/>
        <pt x="241" y="439" on="0"/>
        <pt x="217" y="442" on="0"/>
        <pt x="203" y="442" on="1"/>
        <pt x="161" y="442" on="0"/>
        <pt x="121" y="415" on="0"/>
        <pt x="116" y="390" on="1"/>
        <pt x="294" y="250" on="1"/>
        <pt x="294" y="366" on="1"/>
        <pt x="294" y="430" on="0"/>
        <pt x="371" y="502" on="0"/>
        <pt x="447" y="502" on="1"/>
        <pt x="501" y="502" on="0"/>
        <pt x="539" y="490" on="1"/>
        <pt x="539" y="590" on="1"/>
        <pt x="-26" y="590" on="1"/>
        <pt x="-26" y="652" on="1"/>
        <pt x="706" y="652" on="1"/>
      </contour>
      <contour>
        <pt x="249" y="131" on="0"/>
        <pt x="290" y="161" on="0"/>
        <pt x="293" y="192" on="1"/>
        <pt x="114" y="332" on="1"/>
        <pt x="114" y="204" on="1"/>
        <pt x="114" y="168" on="0"/>
        <pt x="154" y="131" on="0"/>
        <pt x="204" y="131" on="1"/>
      </contour>
    </TTGlyph>
    <TTGlyph name="dvB_VA" xMin="-26" yMin="0" xMax="698" yMax="652">
      <contour>
        <pt x="698" y="590" on="1"/>
        <pt x="604" y="590" on="1"/>
        <pt x="604" y="0" on="1"/>
        <pt x="531" y="0" on="1"/>
        <pt x="531" y="80" on="1"/>
        <pt x="521" y="76" on="0"/>
        <pt x="471" y="68" on="0"/>
        <pt x="442" y="68" on="1"/>
        <pt x="360" y="68" on="0"/>
        <pt x="322" y="109" on="1"/>
        <pt x="286" y="68" on="0"/>
        <pt x="203" y="68" on="1"/>
        <pt x="44" y="68" on="0"/>
        <pt x="44" y="202" on="1"/>
        <pt x="44" y="371" on="1"/>
        <pt x="44" y="437" on="0"/>
        <pt x="119" y="505" on="0"/>
        <pt x="199" y="505" on="1"/>
        <pt x="214" y="505" on="0"/>
        <pt x="240" y="502" on="0"/>
        <pt x="244" y="501" on="1"/>
        <pt x="244" y="438" on="1"/>
        <pt x="241" y="439" on="0"/>
        <pt x="217" y="442" on="0"/>
        <pt x="203" y="442" on="1"/>
        <pt x="161" y="442" on="0"/>
        <pt x="121" y="415" on="0"/>
        <pt x="116" y="390" on="1"/>
        <pt x="291" y="253" on="1"/>
        <pt x="291" y="371" on="1"/>
        <pt x="291" y="434" on="0"/>
        <pt x="367" y="505" on="0"/>
        <pt x="442" y="505" on="1"/>
        <pt x="471" y="505" on="0"/>
        <pt x="521" y="497" on="0"/>
        <pt x="531" y="493" on="1"/>
        <pt x="531" y="590" on="1"/>
        <pt x="-26" y="590" on="1"/>
        <pt x="-26" y="652" on="1"/>
        <pt x="698" y="652" on="1"/>
      </contour>
      <contour>
        <pt x="533" y="430" on="1"/>
        <pt x="523" y="434" on="0"/>
        <pt x="476" y="442" on="0"/>
        <pt x="449" y="442" on="1"/>
        <pt x="404" y="442" on="0"/>
        <pt x="362" y="403" on="0"/>
        <pt x="362" y="370" on="1"/>
        <pt x="362" y="203" on="1"/>
        <pt x="362" y="131" on="0"/>
        <pt x="449" y="131" on="1"/>
        <pt x="476" y="131" on="0"/>
        <pt x="524" y="139" on="0"/>
        <pt x="533" y="143" on="1"/>
      </contour>
      <contour>
        <pt x="247" y="131" on="0"/>
        <pt x="288" y="162" on="0"/>
        <pt x="291" y="194" on="1"/>
        <pt x="114" y="332" on="1"/>
        <pt x="114" y="204" on="1"/>
        <pt x="114" y="168" on="0"/>
        <pt x="154" y="131" on="0"/>
        <pt x="204" y="131" on="1"/>
      </contour>
    </TTGlyph>
    <TTGlyph name="dvB_YA" xMin="-26" yMin="0" xMax="766" yMax="652">
      <contour>
        <pt x="766" y="590" on="1"/>
        <pt x="671" y="590" on="1"/>
        <pt x="671" y="0" on="1"/>
        <pt x="599" y="0" on="1"/>
        <pt x="599" y="96" on="1"/>
        <pt x="548" y="85" on="0"/>
        <pt x="491" y="85" on="1"/>
        <pt x="390" y="85" on="0"/>
        <pt x="340" y="130" on="1"/>
        <pt x="307" y="68" on="0"/>
        <pt x="203" y="68" on="1"/>
        <pt x="44" y="68" on="0"/>
        <pt x="44" y="202" on="1"/>
        <pt x="44" y="371" on="1"/>
        <pt x="44" y="437" on="0"/>
        <pt x="119" y="505" on="0"/>
        <pt x="199" y="505" on="1"/>
        <pt x="214" y="505" on="0"/>
        <pt x="240" y="502" on="0"/>
        <pt x="244" y="501" on="1"/>
        <pt x="244" y="438" on="1"/>
        <pt x="241" y="439" on="0"/>
        <pt x="217" y="442" on="0"/>
        <pt x="203" y="442" on="1"/>
        <pt x="161" y="442" on="0"/>
        <pt x="121" y="415" on="0"/>
        <pt x="116" y="390" on="1"/>
        <pt x="290" y="253" on="1"/>
        <pt x="290" y="258" on="1"/>
        <pt x="290" y="385" on="1"/>
        <pt x="312" y="385" on="1"/>
        <pt x="354" y="385" on="0"/>
        <pt x="398" y="397" on="0"/>
        <pt x="418" y="428" on="0"/>
        <pt x="418" y="457" on="1"/>
        <pt x="418" y="523" on="1"/>
        <pt x="418" y="550" on="0"/>
        <pt x="412" y="586" on="0"/>
        <pt x="411" y="590" on="1"/>
        <pt x="-26" y="590" on="1"/>
        <pt x="-26" y="652" on="1"/>
        <pt x="766" y="652" on="1"/>
      </contour>
      <contour>
        <pt x="599" y="590" on="1"/>
        <pt x="482" y="590" on="1"/>
        <pt x="483" y="586" on="0"/>
        <pt x="489" y="550" on="0"/>
        <pt x="489" y="523" on="1"/>
        <pt x="489" y="449" on="1"/>
        <pt x="489" y="332" on="0"/>
        <pt x="362" y="330" on="1"/>
        <pt x="362" y="264" on="1"/>
        <pt x="362" y="207" on="0"/>
        <pt x="425" y="152" on="0"/>
        <pt x="493" y="152" on="1"/>
        <pt x="544" y="152" on="0"/>
        <pt x="599" y="163" on="1"/>
      </contour>
      <contour>
        <pt x="249" y="131" on="0"/>
        <pt x="290" y="161" on="0"/>
        <pt x="293" y="192" on="1"/>
        <pt x="114" y="332" on="1"/>
        <pt x="114" y="204" on="1"/>
        <pt x="114" y="168" on="0"/>
        <pt x="154" y="131" on="0"/>
        <pt x="204" y="131" on="1"/>
      </contour>
    </TTGlyph>
    <TTGlyph name="dvC" xMin="-33" yMin="61" xMax="335" yMax="652">
      <contour>
        <pt x="-33" y="590" on="1"/>
        <pt x="-33" y="652" on="1"/>
        <pt x="324" y="652" on="1"/>
        <pt x="324" y="590" on="1"/>
      </contour>
      <contour>
        <pt x="317" y="70" on="0"/>
        <pt x="256" y="61" on="0"/>
        <pt x="230" y="61" on="1"/>
        <pt x="80" y="61" on="0"/>
        <pt x="80" y="196" on="1"/>
        <pt x="80" y="336" on="1"/>
        <pt x="80" y="360" on="0"/>
        <pt x="84" y="397" on="0"/>
        <pt x="88" y="416" on="0"/>
        <pt x="89" y="418" on="1"/>
        <pt x="5" y="418" on="1"/>
        <pt x="5" y="482" on="1"/>
        <pt x="264" y="482" on="1"/>
        <pt x="264" y="420" on="1"/>
        <pt x="162" y="420" on="1"/>
        <pt x="161" y="418" on="0"/>
        <pt x="156" y="398" on="0"/>
        <pt x="152" y="361" on="0"/>
        <pt x="152" y="336" on="1"/>
        <pt x="152" y="198" on="1"/>
        <pt x="152" y="161" on="0"/>
        <pt x="192" y="126" on="0"/>
        <pt x="238" y="126" on="1"/>
        <pt x="261" y="126" on="0"/>
        <pt x="315" y="134" on="0"/>
        <pt x="335" y="141" on="1"/>
        <pt x="335" y="76" on="1"/>
      </contour>
    </TTGlyph>
    <TTGlyph name="dvCA" xMin="-26" yMin="0" xMax="490" yMax="652">
      <contour>
        <pt x="159" y="161" on="0"/>
        <pt x="199" y="126" on="0"/>
        <pt x="244" y="126" on="1"/>
        <pt x="284" y="126" on="0"/>
        <pt x="323" y="139" on="1"/>
        <pt x="323" y="590" on="1"/>
        <pt x="-26" y="590" on="1"/>
        <pt x="-26" y="652" on="1"/>
        <pt x="490" y="652" on="1"/>
        <pt x="490" y="590" on="1"/>
        <pt x="396" y="590" on="1"/>
        <pt x="396" y="0" on="1"/>
        <pt x="323" y="0" on="1"/>
        <pt x="323" y="74" on="1"/>
        <pt x="286" y="61" on="0"/>
        <pt x="236" y="61" on="1"/>
        <pt x="87" y="61" on="0"/>
        <pt x="87" y="196" on="1"/>
        <pt x="87" y="336" on="1"/>
        <pt x="87" y="360" on="0"/>
        <pt x="91" y="397" on="0"/>
        <pt x="95" y="416" on="0"/>
        <pt x="96" y="418" on="1"/>
        <pt x="12" y="418" on="1"/>
        <pt x="12" y="482" on="1"/>
        <pt x="271" y="482" on="1"/>
        <pt x="271" y="420" on="1"/>
        <pt x="169" y="420" on="1"/>
        <pt x="168" y="418" on="0"/>
        <pt x="163" y="398" on="0"/>
        <pt x="159" y="361" on="0"/>
        <pt x="159" y="336" on="1"/>
        <pt x="159" y="198" on="1"/>
      </contour>
    </TTGlyph>
    <TTGlyph name="dvCH" xMin="-26" yMin="18" xMax="536" yMax="652">
      <contour>
        <pt x="392" y="495" on="0"/>
        <pt x="459" y="428" on="0"/>
        <pt x="459" y="368" on="1"/>
        <pt x="459" y="169" on="1"/>
        <pt x="459" y="88" on="0"/>
        <pt x="368" y="18" on="0"/>
        <pt x="259" y="18" on="1"/>
        <pt x="151" y="18" on="0"/>
        <pt x="58" y="86" on="0"/>
        <pt x="58" y="165" on="1"/>
        <pt x="58" y="199" on="1"/>
        <pt x="58" y="233" on="0"/>
        <pt x="86" y="283" on="0"/>
        <pt x="116" y="293" on="1"/>
        <pt x="86" y="304" on="0"/>
        <pt x="64" y="351" on="0"/>
        <pt x="64" y="389" on="1"/>
        <pt x="64" y="520" on="1"/>
        <pt x="64" y="571" on="0"/>
        <pt x="91" y="590" on="1"/>
        <pt x="-26" y="590" on="1"/>
        <pt x="-26" y="652" on="1"/>
        <pt x="536" y="652" on="1"/>
        <pt x="536" y="590" on="1"/>
        <pt x="205" y="590" on="1"/>
        <pt x="169" y="590" on="0"/>
        <pt x="136" y="557" on="0"/>
        <pt x="136" y="519" on="1"/>
        <pt x="136" y="390" on="1"/>
        <pt x="136" y="358" on="0"/>
        <pt x="168" y="326" on="0"/>
        <pt x="212" y="326" on="1"/>
        <pt x="267" y="326" on="1"/>
        <pt x="267" y="261" on="1"/>
        <pt x="213" y="261" on="1"/>
        <pt x="167" y="261" on="0"/>
        <pt x="130" y="229" on="0"/>
        <pt x="130" y="195" on="1"/>
        <pt x="130" y="168" on="1"/>
        <pt x="130" y="134" on="0"/>
        <pt x="151" y="99" on="0"/>
        <pt x="206" y="84" on="0"/>
        <pt x="259" y="84" on="1"/>
        <pt x="312" y="84" on="0"/>
        <pt x="367" y="100" on="0"/>
        <pt x="388" y="137" on="0"/>
        <pt x="388" y="171" on="1"/>
        <pt x="388" y="361" on="1"/>
        <pt x="388" y="397" on="0"/>
        <pt x="356" y="432" on="0"/>
        <pt x="312" y="432" on="1"/>
        <pt x="293" y="432" on="0"/>
        <pt x="262" y="424" on="0"/>
        <pt x="258" y="422" on="1"/>
        <pt x="258" y="486" on="1"/>
        <pt x="263" y="488" on="0"/>
        <pt x="298" y="495" on="0"/>
        <pt x="319" y="495" on="1"/>
      </contour>
    </TTGlyph>
    <TTGlyph name="dvCHA" xMin="-26" yMin="18" xMax="537" yMax="652">
      <contour>
        <pt x="62" y="543" on="0"/>
        <pt x="66" y="572" on="0"/>
        <pt x="71" y="588" on="0"/>
        <pt x="72" y="590" on="1"/>
        <pt x="-26" y="590" on="1"/>
        <pt x="-26" y="652" on="1"/>
        <pt x="537" y="652" on="1"/>
        <pt x="537" y="590" on="1"/>
        <pt x="386" y="590" on="1"/>
        <pt x="386" y="485" on="1"/>
        <pt x="423" y="475" on="0"/>
        <pt x="457" y="416" on="0"/>
        <pt x="457" y="368" on="1"/>
        <pt x="457" y="169" on="1"/>
        <pt x="457" y="87" on="0"/>
        <pt x="367" y="18" on="0"/>
        <pt x="258" y="18" on="1"/>
        <pt x="149" y="18" on="0"/>
        <pt x="56" y="86" on="0"/>
        <pt x="56" y="165" on="1"/>
        <pt x="56" y="199" on="1"/>
        <pt x="56" y="234" on="0"/>
        <pt x="84" y="283" on="0"/>
        <pt x="115" y="293" on="1"/>
        <pt x="85" y="304" on="0"/>
        <pt x="62" y="352" on="0"/>
        <pt x="62" y="389" on="1"/>
        <pt x="62" y="523" on="1"/>
      </contour>
      <contour>
        <pt x="134" y="358" on="0"/>
        <pt x="166" y="326" on="0"/>
        <pt x="210" y="326" on="1"/>
        <pt x="266" y="326" on="1"/>
        <pt x="266" y="261" on="1"/>
        <pt x="212" y="261" on="1"/>
        <pt x="166" y="261" on="0"/>
        <pt x="129" y="229" on="0"/>
        <pt x="129" y="195" on="1"/>
        <pt x="129" y="167" on="1"/>
        <pt x="129" y="134" on="0"/>
        <pt x="150" y="99" on="0"/>
        <pt x="204" y="84" on="0"/>
        <pt x="258" y="84" on="1"/>
        <pt x="311" y="84" on="0"/>
        <pt x="365" y="100" on="0"/>
        <pt x="386" y="137" on="0"/>
        <pt x="386" y="171" on="1"/>
        <pt x="386" y="361" on="1"/>
        <pt x="386" y="398" on="0"/>
        <pt x="355" y="432" on="0"/>
        <pt x="312" y="432" on="1"/>
        <pt x="293" y="432" on="0"/>
        <pt x="261" y="425" on="0"/>
        <pt x="257" y="424" on="1"/>
        <pt x="257" y="487" on="1"/>
        <pt x="262" y="488" on="0"/>
        <pt x="298" y="495" on="0"/>
        <pt x="320" y="495" on="1"/>
        <pt x="320" y="590" on="1"/>
        <pt x="145" y="590" on="1"/>
        <pt x="144" y="588" on="0"/>
        <pt x="139" y="572" on="0"/>
        <pt x="134" y="542" on="0"/>
        <pt x="134" y="523" on="1"/>
        <pt x="134" y="390" on="1"/>
      </contour>
    </TTGlyph>
    <TTGlyph name="dvCH_R" xMin="-26" yMin="-303" xMax="537" yMax="652">
      <component glyphName="dvCHA" x="0" y="0" flags="0x0"/>
      <component glyphName="dvRashtrasign" x="475" y="16" flags="0x4"/>
      <component glyphName="dvVirama" x="364" y="-93" flags="0x4"/>
    </TTGlyph>
    <TTGlyph name="dvCH_RA" xMin="-26" yMin="-123" xMax="537" yMax="652">
      <component glyphName="dvCHA" x="0" y="0" flags="0x0"/>
      <component glyphName="dvRashtrasign" x="475" y="16" flags="0x4"/>
    </TTGlyph>
    <TTGlyph name="dvCH_R_YA" xMin="-26" yMin="-123" xMax="1038" yMax="652">
      <contour>
        <pt x="1038" y="590" on="1"/>
        <pt x="943" y="590" on="1"/>
        <pt x="943" y="0" on="1"/>
        <pt x="871" y="0" on="1"/>
        <pt x="871" y="80" on="1"/>
        <pt x="809" y="68" on="0"/>
        <pt x="754" y="68" on="1"/>
        <pt x="562" y="68" on="0"/>
        <pt x="562" y="241" on="1"/>
        <pt x="562" y="297" on="1"/>
        <pt x="599" y="297" on="1"/>
        <pt x="652" y="297" on="0"/>
        <pt x="690" y="322" on="0"/>
        <pt x="690" y="359" on="1"/>
        <pt x="690" y="368" on="1"/>
        <pt x="690" y="399" on="0"/>
        <pt x="663" y="430" on="0"/>
        <pt x="624" y="430" on="1"/>
        <pt x="447" y="430" on="1"/>
        <pt x="457" y="406" on="0"/>
        <pt x="457" y="368" on="1"/>
        <pt x="457" y="169" on="1"/>
        <pt x="457" y="102" on="0"/>
        <pt x="399" y="33" on="0"/>
        <pt x="331" y="23" on="1"/>
        <pt x="409" y="-123" on="1"/>
        <pt x="333" y="-123" on="1"/>
        <pt x="262" y="18" on="1"/>
        <pt x="258" y="18" on="1"/>
        <pt x="258" y="18" on="1"/>
        <pt x="188" y="-123" on="1"/>
        <pt x="112" y="-123" on="1"/>
        <pt x="189" y="22" on="1"/>
        <pt x="119" y="32" on="0"/>
        <pt x="56" y="100" on="0"/>
        <pt x="56" y="165" on="1"/>
        <pt x="56" y="199" on="1"/>
        <pt x="56" y="234" on="0"/>
        <pt x="84" y="283" on="0"/>
        <pt x="115" y="293" on="1"/>
        <pt x="85" y="304" on="0"/>
        <pt x="62" y="352" on="0"/>
        <pt x="62" y="389" on="1"/>
        <pt x="62" y="523" on="1"/>
        <pt x="62" y="543" on="0"/>
        <pt x="66" y="572" on="0"/>
        <pt x="71" y="588" on="0"/>
        <pt x="72" y="590" on="1"/>
        <pt x="-26" y="590" on="1"/>
        <pt x="-26" y="652" on="1"/>
        <pt x="1038" y="652" on="1"/>
      </contour>
      <contour>
        <pt x="386" y="361" on="1"/>
        <pt x="386" y="398" on="0"/>
        <pt x="355" y="432" on="0"/>
        <pt x="312" y="432" on="1"/>
        <pt x="293" y="432" on="0"/>
        <pt x="261" y="425" on="0"/>
        <pt x="257" y="424" on="1"/>
        <pt x="257" y="487" on="1"/>
        <pt x="262" y="488" on="0"/>
        <pt x="298" y="495" on="0"/>
        <pt x="320" y="495" on="1"/>
        <pt x="320" y="590" on="1"/>
        <pt x="145" y="590" on="1"/>
        <pt x="144" y="588" on="0"/>
        <pt x="139" y="572" on="0"/>
        <pt x="134" y="542" on="0"/>
        <pt x="134" y="523" on="1"/>
        <pt x="134" y="390" on="1"/>
        <pt x="134" y="358" on="0"/>
        <pt x="166" y="326" on="0"/>
        <pt x="210" y="326" on="1"/>
        <pt x="266" y="326" on="1"/>
        <pt x="266" y="261" on="1"/>
        <pt x="212" y="261" on="1"/>
        <pt x="166" y="261" on="0"/>
        <pt x="129" y="229" on="0"/>
        <pt x="129" y="195" on="1"/>
        <pt x="129" y="167" on="1"/>
        <pt x="129" y="134" on="0"/>
        <pt x="150" y="99" on="0"/>
        <pt x="204" y="84" on="0"/>
        <pt x="258" y="84" on="1"/>
        <pt x="311" y="84" on="0"/>
        <pt x="365" y="100" on="0"/>
        <pt x="386" y="137" on="0"/>
        <pt x="386" y="171" on="1"/>
      </contour>
      <contour>
        <pt x="871" y="590" on="1"/>
        <pt x="386" y="590" on="1"/>
        <pt x="386" y="496" on="1"/>
        <pt x="623" y="496" on="1"/>
        <pt x="694" y="496" on="0"/>
        <pt x="761" y="435" on="0"/>
        <pt x="761" y="372" on="1"/>
        <pt x="761" y="356" on="1"/>
        <pt x="761" y="241" on="0"/>
        <pt x="633" y="241" on="1"/>
        <pt x="633" y="240" on="1"/>
        <pt x="633" y="185" on="0"/>
        <pt x="690" y="135" on="0"/>
        <pt x="757" y="135" on="1"/>
        <pt x="816" y="135" on="0"/>
        <pt x="871" y="147" on="1"/>
      </contour>
    </TTGlyph>
</ttFont>
